<?xml version="1.0" encoding="utf-8" standalone="no"?>
<!DOCTYPE svg PUBLIC "-//W3C//DTD SVG 1.1//EN"
  "http://www.w3.org/Graphics/SVG/1.1/DTD/svg11.dtd">
<!-- Created with matplotlib (https://matplotlib.org/) -->
<svg height="285.874375pt" version="1.1" viewBox="0 0 1001.35 285.874375" width="1001.35pt" xmlns="http://www.w3.org/2000/svg" xmlns:xlink="http://www.w3.org/1999/xlink">
 <metadata>
  <rdf:RDF xmlns:cc="http://creativecommons.org/ns#" xmlns:dc="http://purl.org/dc/elements/1.1/" xmlns:rdf="http://www.w3.org/1999/02/22-rdf-syntax-ns#">
   <cc:Work>
    <dc:type rdf:resource="http://purl.org/dc/dcmitype/StillImage"/>
    <dc:date>2021-03-31T13:56:39.748161</dc:date>
    <dc:format>image/svg+xml</dc:format>
    <dc:creator>
     <cc:Agent>
      <dc:title>Matplotlib v3.3.4, https://matplotlib.org/</dc:title>
     </cc:Agent>
    </dc:creator>
   </cc:Work>
  </rdf:RDF>
 </metadata>
 <defs>
  <style type="text/css">*{stroke-linecap:butt;stroke-linejoin:round;}</style>
 </defs>
 <g id="figure_1">
  <g id="patch_1">
   <path d="M 0 285.874375 
L 1001.35 285.874375 
L 1001.35 -0 
L 0 -0 
z
" style="fill:none;"/>
  </g>
  <g id="axes_1">
   <g id="patch_2">
    <path d="M 54 236.14 
L 994.15 236.14 
L 994.15 41.04 
L 54 41.04 
z
" style="fill:#ffffff;"/>
   </g>
   <g id="matplotlib.axis_1">
    <g id="xtick_1">
     <g id="line2d_1">
      <path clip-path="url(#pb18816724b)" d="M 148.015 236.14 
L 148.015 41.04 
" style="fill:none;stroke:#b0b0b0;stroke-linecap:square;stroke-width:0.8;"/>
     </g>
     <g id="line2d_2">
      <defs>
       <path d="M 0 0 
L 0 6 
" id="m5f654de6cd" style="stroke:#000000;"/>
      </defs>
      <g>
       <use style="stroke:#000000;" x="148.015" xlink:href="#m5f654de6cd" y="236.14"/>
      </g>
     </g>
     <g id="text_1">
      <!-- −40 -->
      <g transform="translate(133.241719 256.277812)scale(0.14 -0.14)">
       <defs>
        <path d="M 10.59375 35.5 
L 73.1875 35.5 
L 73.1875 27.203125 
L 10.59375 27.203125 
z
" id="DejaVuSans-8722"/>
        <path d="M 37.796875 64.3125 
L 12.890625 25.390625 
L 37.796875 25.390625 
z
M 35.203125 72.90625 
L 47.609375 72.90625 
L 47.609375 25.390625 
L 58.015625 25.390625 
L 58.015625 17.1875 
L 47.609375 17.1875 
L 47.609375 0 
L 37.796875 0 
L 37.796875 17.1875 
L 4.890625 17.1875 
L 4.890625 26.703125 
z
" id="DejaVuSans-52"/>
        <path d="M 31.78125 66.40625 
Q 24.171875 66.40625 20.328125 58.90625 
Q 16.5 51.421875 16.5 36.375 
Q 16.5 21.390625 20.328125 13.890625 
Q 24.171875 6.390625 31.78125 6.390625 
Q 39.453125 6.390625 43.28125 13.890625 
Q 47.125 21.390625 47.125 36.375 
Q 47.125 51.421875 43.28125 58.90625 
Q 39.453125 66.40625 31.78125 66.40625 
z
M 31.78125 74.21875 
Q 44.046875 74.21875 50.515625 64.515625 
Q 56.984375 54.828125 56.984375 36.375 
Q 56.984375 17.96875 50.515625 8.265625 
Q 44.046875 -1.421875 31.78125 -1.421875 
Q 19.53125 -1.421875 13.0625 8.265625 
Q 6.59375 17.96875 6.59375 36.375 
Q 6.59375 54.828125 13.0625 64.515625 
Q 19.53125 74.21875 31.78125 74.21875 
z
" id="DejaVuSans-48"/>
       </defs>
       <use xlink:href="#DejaVuSans-8722"/>
       <use x="83.789062" xlink:href="#DejaVuSans-52"/>
       <use x="147.412109" xlink:href="#DejaVuSans-48"/>
      </g>
     </g>
    </g>
    <g id="xtick_2">
     <g id="line2d_3">
      <path clip-path="url(#pb18816724b)" d="M 336.045 236.14 
L 336.045 41.04 
" style="fill:none;stroke:#b0b0b0;stroke-linecap:square;stroke-width:0.8;"/>
     </g>
     <g id="line2d_4">
      <g>
       <use style="stroke:#000000;" x="336.045" xlink:href="#m5f654de6cd" y="236.14"/>
      </g>
     </g>
     <g id="text_2">
      <!-- −20 -->
      <g transform="translate(321.271719 256.277812)scale(0.14 -0.14)">
       <defs>
        <path d="M 19.1875 8.296875 
L 53.609375 8.296875 
L 53.609375 0 
L 7.328125 0 
L 7.328125 8.296875 
Q 12.9375 14.109375 22.625 23.890625 
Q 32.328125 33.6875 34.8125 36.53125 
Q 39.546875 41.84375 41.421875 45.53125 
Q 43.3125 49.21875 43.3125 52.78125 
Q 43.3125 58.59375 39.234375 62.25 
Q 35.15625 65.921875 28.609375 65.921875 
Q 23.96875 65.921875 18.8125 64.3125 
Q 13.671875 62.703125 7.8125 59.421875 
L 7.8125 69.390625 
Q 13.765625 71.78125 18.9375 73 
Q 24.125 74.21875 28.421875 74.21875 
Q 39.75 74.21875 46.484375 68.546875 
Q 53.21875 62.890625 53.21875 53.421875 
Q 53.21875 48.921875 51.53125 44.890625 
Q 49.859375 40.875 45.40625 35.40625 
Q 44.1875 33.984375 37.640625 27.21875 
Q 31.109375 20.453125 19.1875 8.296875 
z
" id="DejaVuSans-50"/>
       </defs>
       <use xlink:href="#DejaVuSans-8722"/>
       <use x="83.789062" xlink:href="#DejaVuSans-50"/>
       <use x="147.412109" xlink:href="#DejaVuSans-48"/>
      </g>
     </g>
    </g>
    <g id="xtick_3">
     <g id="line2d_5">
      <path clip-path="url(#pb18816724b)" d="M 524.075 236.14 
L 524.075 41.04 
" style="fill:none;stroke:#b0b0b0;stroke-linecap:square;stroke-width:0.8;"/>
     </g>
     <g id="line2d_6">
      <g>
       <use style="stroke:#000000;" x="524.075" xlink:href="#m5f654de6cd" y="236.14"/>
      </g>
     </g>
     <g id="text_3">
      <!-- 0 -->
      <g transform="translate(519.62125 256.277812)scale(0.14 -0.14)">
       <use xlink:href="#DejaVuSans-48"/>
      </g>
     </g>
    </g>
    <g id="xtick_4">
     <g id="line2d_7">
      <path clip-path="url(#pb18816724b)" d="M 712.105 236.14 
L 712.105 41.04 
" style="fill:none;stroke:#b0b0b0;stroke-linecap:square;stroke-width:0.8;"/>
     </g>
     <g id="line2d_8">
      <g>
       <use style="stroke:#000000;" x="712.105" xlink:href="#m5f654de6cd" y="236.14"/>
      </g>
     </g>
     <g id="text_4">
      <!-- 20 -->
      <g transform="translate(703.1975 256.277812)scale(0.14 -0.14)">
       <use xlink:href="#DejaVuSans-50"/>
       <use x="63.623047" xlink:href="#DejaVuSans-48"/>
      </g>
     </g>
    </g>
    <g id="xtick_5">
     <g id="line2d_9">
      <path clip-path="url(#pb18816724b)" d="M 900.135 236.14 
L 900.135 41.04 
" style="fill:none;stroke:#b0b0b0;stroke-linecap:square;stroke-width:0.8;"/>
     </g>
     <g id="line2d_10">
      <g>
       <use style="stroke:#000000;" x="900.135" xlink:href="#m5f654de6cd" y="236.14"/>
      </g>
     </g>
     <g id="text_5">
      <!-- 40 -->
      <g transform="translate(891.2275 256.277812)scale(0.14 -0.14)">
       <use xlink:href="#DejaVuSans-52"/>
       <use x="63.623047" xlink:href="#DejaVuSans-48"/>
      </g>
     </g>
    </g>
    <g id="text_6">
     <!-- Binned deformations [mm] -->
     <g transform="translate(416.2625 275.346875)scale(0.16 -0.16)">
      <defs>
       <path d="M 19.671875 34.8125 
L 19.671875 8.109375 
L 35.5 8.109375 
Q 43.453125 8.109375 47.28125 11.40625 
Q 51.125 14.703125 51.125 21.484375 
Q 51.125 28.328125 47.28125 31.5625 
Q 43.453125 34.8125 35.5 34.8125 
z
M 19.671875 64.796875 
L 19.671875 42.828125 
L 34.28125 42.828125 
Q 41.5 42.828125 45.03125 45.53125 
Q 48.578125 48.25 48.578125 53.8125 
Q 48.578125 59.328125 45.03125 62.0625 
Q 41.5 64.796875 34.28125 64.796875 
z
M 9.8125 72.90625 
L 35.015625 72.90625 
Q 46.296875 72.90625 52.390625 68.21875 
Q 58.5 63.53125 58.5 54.890625 
Q 58.5 48.1875 55.375 44.234375 
Q 52.25 40.28125 46.1875 39.3125 
Q 53.46875 37.75 57.5 32.78125 
Q 61.53125 27.828125 61.53125 20.40625 
Q 61.53125 10.640625 54.890625 5.3125 
Q 48.25 0 35.984375 0 
L 9.8125 0 
z
" id="DejaVuSans-66"/>
       <path d="M 9.421875 54.6875 
L 18.40625 54.6875 
L 18.40625 0 
L 9.421875 0 
z
M 9.421875 75.984375 
L 18.40625 75.984375 
L 18.40625 64.59375 
L 9.421875 64.59375 
z
" id="DejaVuSans-105"/>
       <path d="M 54.890625 33.015625 
L 54.890625 0 
L 45.90625 0 
L 45.90625 32.71875 
Q 45.90625 40.484375 42.875 44.328125 
Q 39.84375 48.1875 33.796875 48.1875 
Q 26.515625 48.1875 22.3125 43.546875 
Q 18.109375 38.921875 18.109375 30.90625 
L 18.109375 0 
L 9.078125 0 
L 9.078125 54.6875 
L 18.109375 54.6875 
L 18.109375 46.1875 
Q 21.34375 51.125 25.703125 53.5625 
Q 30.078125 56 35.796875 56 
Q 45.21875 56 50.046875 50.171875 
Q 54.890625 44.34375 54.890625 33.015625 
z
" id="DejaVuSans-110"/>
       <path d="M 56.203125 29.59375 
L 56.203125 25.203125 
L 14.890625 25.203125 
Q 15.484375 15.921875 20.484375 11.0625 
Q 25.484375 6.203125 34.421875 6.203125 
Q 39.59375 6.203125 44.453125 7.46875 
Q 49.3125 8.734375 54.109375 11.28125 
L 54.109375 2.78125 
Q 49.265625 0.734375 44.1875 -0.34375 
Q 39.109375 -1.421875 33.890625 -1.421875 
Q 20.796875 -1.421875 13.15625 6.1875 
Q 5.515625 13.8125 5.515625 26.8125 
Q 5.515625 40.234375 12.765625 48.109375 
Q 20.015625 56 32.328125 56 
Q 43.359375 56 49.78125 48.890625 
Q 56.203125 41.796875 56.203125 29.59375 
z
M 47.21875 32.234375 
Q 47.125 39.59375 43.09375 43.984375 
Q 39.0625 48.390625 32.421875 48.390625 
Q 24.90625 48.390625 20.390625 44.140625 
Q 15.875 39.890625 15.1875 32.171875 
z
" id="DejaVuSans-101"/>
       <path d="M 45.40625 46.390625 
L 45.40625 75.984375 
L 54.390625 75.984375 
L 54.390625 0 
L 45.40625 0 
L 45.40625 8.203125 
Q 42.578125 3.328125 38.25 0.953125 
Q 33.9375 -1.421875 27.875 -1.421875 
Q 17.96875 -1.421875 11.734375 6.484375 
Q 5.515625 14.40625 5.515625 27.296875 
Q 5.515625 40.1875 11.734375 48.09375 
Q 17.96875 56 27.875 56 
Q 33.9375 56 38.25 53.625 
Q 42.578125 51.265625 45.40625 46.390625 
z
M 14.796875 27.296875 
Q 14.796875 17.390625 18.875 11.75 
Q 22.953125 6.109375 30.078125 6.109375 
Q 37.203125 6.109375 41.296875 11.75 
Q 45.40625 17.390625 45.40625 27.296875 
Q 45.40625 37.203125 41.296875 42.84375 
Q 37.203125 48.484375 30.078125 48.484375 
Q 22.953125 48.484375 18.875 42.84375 
Q 14.796875 37.203125 14.796875 27.296875 
z
" id="DejaVuSans-100"/>
       <path id="DejaVuSans-32"/>
       <path d="M 37.109375 75.984375 
L 37.109375 68.5 
L 28.515625 68.5 
Q 23.6875 68.5 21.796875 66.546875 
Q 19.921875 64.59375 19.921875 59.515625 
L 19.921875 54.6875 
L 34.71875 54.6875 
L 34.71875 47.703125 
L 19.921875 47.703125 
L 19.921875 0 
L 10.890625 0 
L 10.890625 47.703125 
L 2.296875 47.703125 
L 2.296875 54.6875 
L 10.890625 54.6875 
L 10.890625 58.5 
Q 10.890625 67.625 15.140625 71.796875 
Q 19.390625 75.984375 28.609375 75.984375 
z
" id="DejaVuSans-102"/>
       <path d="M 30.609375 48.390625 
Q 23.390625 48.390625 19.1875 42.75 
Q 14.984375 37.109375 14.984375 27.296875 
Q 14.984375 17.484375 19.15625 11.84375 
Q 23.34375 6.203125 30.609375 6.203125 
Q 37.796875 6.203125 41.984375 11.859375 
Q 46.1875 17.53125 46.1875 27.296875 
Q 46.1875 37.015625 41.984375 42.703125 
Q 37.796875 48.390625 30.609375 48.390625 
z
M 30.609375 56 
Q 42.328125 56 49.015625 48.375 
Q 55.71875 40.765625 55.71875 27.296875 
Q 55.71875 13.875 49.015625 6.21875 
Q 42.328125 -1.421875 30.609375 -1.421875 
Q 18.84375 -1.421875 12.171875 6.21875 
Q 5.515625 13.875 5.515625 27.296875 
Q 5.515625 40.765625 12.171875 48.375 
Q 18.84375 56 30.609375 56 
z
" id="DejaVuSans-111"/>
       <path d="M 41.109375 46.296875 
Q 39.59375 47.171875 37.8125 47.578125 
Q 36.03125 48 33.890625 48 
Q 26.265625 48 22.1875 43.046875 
Q 18.109375 38.09375 18.109375 28.8125 
L 18.109375 0 
L 9.078125 0 
L 9.078125 54.6875 
L 18.109375 54.6875 
L 18.109375 46.1875 
Q 20.953125 51.171875 25.484375 53.578125 
Q 30.03125 56 36.53125 56 
Q 37.453125 56 38.578125 55.875 
Q 39.703125 55.765625 41.0625 55.515625 
z
" id="DejaVuSans-114"/>
       <path d="M 52 44.1875 
Q 55.375 50.25 60.0625 53.125 
Q 64.75 56 71.09375 56 
Q 79.640625 56 84.28125 50.015625 
Q 88.921875 44.046875 88.921875 33.015625 
L 88.921875 0 
L 79.890625 0 
L 79.890625 32.71875 
Q 79.890625 40.578125 77.09375 44.375 
Q 74.3125 48.1875 68.609375 48.1875 
Q 61.625 48.1875 57.5625 43.546875 
Q 53.515625 38.921875 53.515625 30.90625 
L 53.515625 0 
L 44.484375 0 
L 44.484375 32.71875 
Q 44.484375 40.625 41.703125 44.40625 
Q 38.921875 48.1875 33.109375 48.1875 
Q 26.21875 48.1875 22.15625 43.53125 
Q 18.109375 38.875 18.109375 30.90625 
L 18.109375 0 
L 9.078125 0 
L 9.078125 54.6875 
L 18.109375 54.6875 
L 18.109375 46.1875 
Q 21.1875 51.21875 25.484375 53.609375 
Q 29.78125 56 35.6875 56 
Q 41.65625 56 45.828125 52.96875 
Q 50 49.953125 52 44.1875 
z
" id="DejaVuSans-109"/>
       <path d="M 34.28125 27.484375 
Q 23.390625 27.484375 19.1875 25 
Q 14.984375 22.515625 14.984375 16.5 
Q 14.984375 11.71875 18.140625 8.90625 
Q 21.296875 6.109375 26.703125 6.109375 
Q 34.1875 6.109375 38.703125 11.40625 
Q 43.21875 16.703125 43.21875 25.484375 
L 43.21875 27.484375 
z
M 52.203125 31.203125 
L 52.203125 0 
L 43.21875 0 
L 43.21875 8.296875 
Q 40.140625 3.328125 35.546875 0.953125 
Q 30.953125 -1.421875 24.3125 -1.421875 
Q 15.921875 -1.421875 10.953125 3.296875 
Q 6 8.015625 6 15.921875 
Q 6 25.140625 12.171875 29.828125 
Q 18.359375 34.515625 30.609375 34.515625 
L 43.21875 34.515625 
L 43.21875 35.40625 
Q 43.21875 41.609375 39.140625 45 
Q 35.0625 48.390625 27.6875 48.390625 
Q 23 48.390625 18.546875 47.265625 
Q 14.109375 46.140625 10.015625 43.890625 
L 10.015625 52.203125 
Q 14.9375 54.109375 19.578125 55.046875 
Q 24.21875 56 28.609375 56 
Q 40.484375 56 46.34375 49.84375 
Q 52.203125 43.703125 52.203125 31.203125 
z
" id="DejaVuSans-97"/>
       <path d="M 18.3125 70.21875 
L 18.3125 54.6875 
L 36.8125 54.6875 
L 36.8125 47.703125 
L 18.3125 47.703125 
L 18.3125 18.015625 
Q 18.3125 11.328125 20.140625 9.421875 
Q 21.96875 7.515625 27.59375 7.515625 
L 36.8125 7.515625 
L 36.8125 0 
L 27.59375 0 
Q 17.1875 0 13.234375 3.875 
Q 9.28125 7.765625 9.28125 18.015625 
L 9.28125 47.703125 
L 2.6875 47.703125 
L 2.6875 54.6875 
L 9.28125 54.6875 
L 9.28125 70.21875 
z
" id="DejaVuSans-116"/>
       <path d="M 44.28125 53.078125 
L 44.28125 44.578125 
Q 40.484375 46.53125 36.375 47.5 
Q 32.28125 48.484375 27.875 48.484375 
Q 21.1875 48.484375 17.84375 46.4375 
Q 14.5 44.390625 14.5 40.28125 
Q 14.5 37.15625 16.890625 35.375 
Q 19.28125 33.59375 26.515625 31.984375 
L 29.59375 31.296875 
Q 39.15625 29.25 43.1875 25.515625 
Q 47.21875 21.78125 47.21875 15.09375 
Q 47.21875 7.46875 41.1875 3.015625 
Q 35.15625 -1.421875 24.609375 -1.421875 
Q 20.21875 -1.421875 15.453125 -0.5625 
Q 10.6875 0.296875 5.421875 2 
L 5.421875 11.28125 
Q 10.40625 8.6875 15.234375 7.390625 
Q 20.0625 6.109375 24.8125 6.109375 
Q 31.15625 6.109375 34.5625 8.28125 
Q 37.984375 10.453125 37.984375 14.40625 
Q 37.984375 18.0625 35.515625 20.015625 
Q 33.0625 21.96875 24.703125 23.78125 
L 21.578125 24.515625 
Q 13.234375 26.265625 9.515625 29.90625 
Q 5.8125 33.546875 5.8125 39.890625 
Q 5.8125 47.609375 11.28125 51.796875 
Q 16.75 56 26.8125 56 
Q 31.78125 56 36.171875 55.265625 
Q 40.578125 54.546875 44.28125 53.078125 
z
" id="DejaVuSans-115"/>
       <path d="M 8.59375 75.984375 
L 29.296875 75.984375 
L 29.296875 69 
L 17.578125 69 
L 17.578125 -6.203125 
L 29.296875 -6.203125 
L 29.296875 -13.1875 
L 8.59375 -13.1875 
z
" id="DejaVuSans-91"/>
       <path d="M 30.421875 75.984375 
L 30.421875 -13.1875 
L 9.71875 -13.1875 
L 9.71875 -6.203125 
L 21.390625 -6.203125 
L 21.390625 69 
L 9.71875 69 
L 9.71875 75.984375 
z
" id="DejaVuSans-93"/>
      </defs>
      <use xlink:href="#DejaVuSans-66"/>
      <use x="68.603516" xlink:href="#DejaVuSans-105"/>
      <use x="96.386719" xlink:href="#DejaVuSans-110"/>
      <use x="159.765625" xlink:href="#DejaVuSans-110"/>
      <use x="223.144531" xlink:href="#DejaVuSans-101"/>
      <use x="284.667969" xlink:href="#DejaVuSans-100"/>
      <use x="348.144531" xlink:href="#DejaVuSans-32"/>
      <use x="379.931641" xlink:href="#DejaVuSans-100"/>
      <use x="443.408203" xlink:href="#DejaVuSans-101"/>
      <use x="504.931641" xlink:href="#DejaVuSans-102"/>
      <use x="540.136719" xlink:href="#DejaVuSans-111"/>
      <use x="601.318359" xlink:href="#DejaVuSans-114"/>
      <use x="640.681641" xlink:href="#DejaVuSans-109"/>
      <use x="738.09375" xlink:href="#DejaVuSans-97"/>
      <use x="799.373047" xlink:href="#DejaVuSans-116"/>
      <use x="838.582031" xlink:href="#DejaVuSans-105"/>
      <use x="866.365234" xlink:href="#DejaVuSans-111"/>
      <use x="927.546875" xlink:href="#DejaVuSans-110"/>
      <use x="990.925781" xlink:href="#DejaVuSans-115"/>
      <use x="1043.025391" xlink:href="#DejaVuSans-32"/>
      <use x="1074.8125" xlink:href="#DejaVuSans-91"/>
      <use x="1113.826172" xlink:href="#DejaVuSans-109"/>
      <use x="1211.238281" xlink:href="#DejaVuSans-109"/>
      <use x="1308.650391" xlink:href="#DejaVuSans-93"/>
     </g>
    </g>
   </g>
   <g id="matplotlib.axis_2">
    <g id="ytick_1">
     <g id="line2d_11">
      <path clip-path="url(#pb18816724b)" d="M 54 227.271818 
L 994.15 227.271818 
" style="fill:none;stroke:#b0b0b0;stroke-linecap:square;stroke-width:0.8;"/>
     </g>
     <g id="line2d_12">
      <defs>
       <path d="M 0 0 
L -6 0 
" id="ma4ff519c0a" style="stroke:#000000;"/>
      </defs>
      <g>
       <use style="stroke:#000000;" x="54" xlink:href="#ma4ff519c0a" y="227.271818"/>
      </g>
     </g>
     <g id="text_7">
      <!-- 0 -->
      <g transform="translate(35.5925 232.590724)scale(0.14 -0.14)">
       <use xlink:href="#DejaVuSans-48"/>
      </g>
     </g>
    </g>
    <g id="ytick_2">
     <g id="line2d_13">
      <path clip-path="url(#pb18816724b)" d="M 54 187.15255 
L 994.15 187.15255 
" style="fill:none;stroke:#b0b0b0;stroke-linecap:square;stroke-width:0.8;"/>
     </g>
     <g id="line2d_14">
      <g>
       <use style="stroke:#000000;" x="54" xlink:href="#ma4ff519c0a" y="187.15255"/>
      </g>
     </g>
     <g id="text_8">
      <!-- 20 -->
      <g transform="translate(26.685 192.471456)scale(0.14 -0.14)">
       <use xlink:href="#DejaVuSans-50"/>
       <use x="63.623047" xlink:href="#DejaVuSans-48"/>
      </g>
     </g>
    </g>
    <g id="ytick_3">
     <g id="line2d_15">
      <path clip-path="url(#pb18816724b)" d="M 54 147.033282 
L 994.15 147.033282 
" style="fill:none;stroke:#b0b0b0;stroke-linecap:square;stroke-width:0.8;"/>
     </g>
     <g id="line2d_16">
      <g>
       <use style="stroke:#000000;" x="54" xlink:href="#ma4ff519c0a" y="147.033282"/>
      </g>
     </g>
     <g id="text_9">
      <!-- 40 -->
      <g transform="translate(26.685 152.352189)scale(0.14 -0.14)">
       <use xlink:href="#DejaVuSans-52"/>
       <use x="63.623047" xlink:href="#DejaVuSans-48"/>
      </g>
     </g>
    </g>
    <g id="ytick_4">
     <g id="line2d_17">
      <path clip-path="url(#pb18816724b)" d="M 54 106.914014 
L 994.15 106.914014 
" style="fill:none;stroke:#b0b0b0;stroke-linecap:square;stroke-width:0.8;"/>
     </g>
     <g id="line2d_18">
      <g>
       <use style="stroke:#000000;" x="54" xlink:href="#ma4ff519c0a" y="106.914014"/>
      </g>
     </g>
     <g id="text_10">
      <!-- 60 -->
      <g transform="translate(26.685 112.232921)scale(0.14 -0.14)">
       <defs>
        <path d="M 33.015625 40.375 
Q 26.375 40.375 22.484375 35.828125 
Q 18.609375 31.296875 18.609375 23.390625 
Q 18.609375 15.53125 22.484375 10.953125 
Q 26.375 6.390625 33.015625 6.390625 
Q 39.65625 6.390625 43.53125 10.953125 
Q 47.40625 15.53125 47.40625 23.390625 
Q 47.40625 31.296875 43.53125 35.828125 
Q 39.65625 40.375 33.015625 40.375 
z
M 52.59375 71.296875 
L 52.59375 62.3125 
Q 48.875 64.0625 45.09375 64.984375 
Q 41.3125 65.921875 37.59375 65.921875 
Q 27.828125 65.921875 22.671875 59.328125 
Q 17.53125 52.734375 16.796875 39.40625 
Q 19.671875 43.65625 24.015625 45.921875 
Q 28.375 48.1875 33.59375 48.1875 
Q 44.578125 48.1875 50.953125 41.515625 
Q 57.328125 34.859375 57.328125 23.390625 
Q 57.328125 12.15625 50.6875 5.359375 
Q 44.046875 -1.421875 33.015625 -1.421875 
Q 20.359375 -1.421875 13.671875 8.265625 
Q 6.984375 17.96875 6.984375 36.375 
Q 6.984375 53.65625 15.1875 63.9375 
Q 23.390625 74.21875 37.203125 74.21875 
Q 40.921875 74.21875 44.703125 73.484375 
Q 48.484375 72.75 52.59375 71.296875 
z
" id="DejaVuSans-54"/>
       </defs>
       <use xlink:href="#DejaVuSans-54"/>
       <use x="63.623047" xlink:href="#DejaVuSans-48"/>
      </g>
     </g>
    </g>
    <g id="ytick_5">
     <g id="line2d_19">
      <path clip-path="url(#pb18816724b)" d="M 54 66.794746 
L 994.15 66.794746 
" style="fill:none;stroke:#b0b0b0;stroke-linecap:square;stroke-width:0.8;"/>
     </g>
     <g id="line2d_20">
      <g>
       <use style="stroke:#000000;" x="54" xlink:href="#ma4ff519c0a" y="66.794746"/>
      </g>
     </g>
     <g id="text_11">
      <!-- 80 -->
      <g transform="translate(26.685 72.113653)scale(0.14 -0.14)">
       <defs>
        <path d="M 31.78125 34.625 
Q 24.75 34.625 20.71875 30.859375 
Q 16.703125 27.09375 16.703125 20.515625 
Q 16.703125 13.921875 20.71875 10.15625 
Q 24.75 6.390625 31.78125 6.390625 
Q 38.8125 6.390625 42.859375 10.171875 
Q 46.921875 13.96875 46.921875 20.515625 
Q 46.921875 27.09375 42.890625 30.859375 
Q 38.875 34.625 31.78125 34.625 
z
M 21.921875 38.8125 
Q 15.578125 40.375 12.03125 44.71875 
Q 8.5 49.078125 8.5 55.328125 
Q 8.5 64.0625 14.71875 69.140625 
Q 20.953125 74.21875 31.78125 74.21875 
Q 42.671875 74.21875 48.875 69.140625 
Q 55.078125 64.0625 55.078125 55.328125 
Q 55.078125 49.078125 51.53125 44.71875 
Q 48 40.375 41.703125 38.8125 
Q 48.828125 37.15625 52.796875 32.3125 
Q 56.78125 27.484375 56.78125 20.515625 
Q 56.78125 9.90625 50.3125 4.234375 
Q 43.84375 -1.421875 31.78125 -1.421875 
Q 19.734375 -1.421875 13.25 4.234375 
Q 6.78125 9.90625 6.78125 20.515625 
Q 6.78125 27.484375 10.78125 32.3125 
Q 14.796875 37.15625 21.921875 38.8125 
z
M 18.3125 54.390625 
Q 18.3125 48.734375 21.84375 45.5625 
Q 25.390625 42.390625 31.78125 42.390625 
Q 38.140625 42.390625 41.71875 45.5625 
Q 45.3125 48.734375 45.3125 54.390625 
Q 45.3125 60.0625 41.71875 63.234375 
Q 38.140625 66.40625 31.78125 66.40625 
Q 25.390625 66.40625 21.84375 63.234375 
Q 18.3125 60.0625 18.3125 54.390625 
z
" id="DejaVuSans-56"/>
       </defs>
       <use xlink:href="#DejaVuSans-56"/>
       <use x="63.623047" xlink:href="#DejaVuSans-48"/>
      </g>
     </g>
    </g>
    <g id="text_12">
     <!-- Frequency -->
     <g transform="translate(19.3575 179.9175)rotate(-90)scale(0.16 -0.16)">
      <defs>
       <path d="M 9.8125 72.90625 
L 51.703125 72.90625 
L 51.703125 64.59375 
L 19.671875 64.59375 
L 19.671875 43.109375 
L 48.578125 43.109375 
L 48.578125 34.8125 
L 19.671875 34.8125 
L 19.671875 0 
L 9.8125 0 
z
" id="DejaVuSans-70"/>
       <path d="M 14.796875 27.296875 
Q 14.796875 17.390625 18.875 11.75 
Q 22.953125 6.109375 30.078125 6.109375 
Q 37.203125 6.109375 41.296875 11.75 
Q 45.40625 17.390625 45.40625 27.296875 
Q 45.40625 37.203125 41.296875 42.84375 
Q 37.203125 48.484375 30.078125 48.484375 
Q 22.953125 48.484375 18.875 42.84375 
Q 14.796875 37.203125 14.796875 27.296875 
z
M 45.40625 8.203125 
Q 42.578125 3.328125 38.25 0.953125 
Q 33.9375 -1.421875 27.875 -1.421875 
Q 17.96875 -1.421875 11.734375 6.484375 
Q 5.515625 14.40625 5.515625 27.296875 
Q 5.515625 40.1875 11.734375 48.09375 
Q 17.96875 56 27.875 56 
Q 33.9375 56 38.25 53.625 
Q 42.578125 51.265625 45.40625 46.390625 
L 45.40625 54.6875 
L 54.390625 54.6875 
L 54.390625 -20.796875 
L 45.40625 -20.796875 
z
" id="DejaVuSans-113"/>
       <path d="M 8.5 21.578125 
L 8.5 54.6875 
L 17.484375 54.6875 
L 17.484375 21.921875 
Q 17.484375 14.15625 20.5 10.265625 
Q 23.53125 6.390625 29.59375 6.390625 
Q 36.859375 6.390625 41.078125 11.03125 
Q 45.3125 15.671875 45.3125 23.6875 
L 45.3125 54.6875 
L 54.296875 54.6875 
L 54.296875 0 
L 45.3125 0 
L 45.3125 8.40625 
Q 42.046875 3.421875 37.71875 1 
Q 33.40625 -1.421875 27.6875 -1.421875 
Q 18.265625 -1.421875 13.375 4.4375 
Q 8.5 10.296875 8.5 21.578125 
z
M 31.109375 56 
z
" id="DejaVuSans-117"/>
       <path d="M 48.78125 52.59375 
L 48.78125 44.1875 
Q 44.96875 46.296875 41.140625 47.34375 
Q 37.3125 48.390625 33.40625 48.390625 
Q 24.65625 48.390625 19.8125 42.84375 
Q 14.984375 37.3125 14.984375 27.296875 
Q 14.984375 17.28125 19.8125 11.734375 
Q 24.65625 6.203125 33.40625 6.203125 
Q 37.3125 6.203125 41.140625 7.25 
Q 44.96875 8.296875 48.78125 10.40625 
L 48.78125 2.09375 
Q 45.015625 0.34375 40.984375 -0.53125 
Q 36.96875 -1.421875 32.421875 -1.421875 
Q 20.0625 -1.421875 12.78125 6.34375 
Q 5.515625 14.109375 5.515625 27.296875 
Q 5.515625 40.671875 12.859375 48.328125 
Q 20.21875 56 33.015625 56 
Q 37.15625 56 41.109375 55.140625 
Q 45.0625 54.296875 48.78125 52.59375 
z
" id="DejaVuSans-99"/>
       <path d="M 32.171875 -5.078125 
Q 28.375 -14.84375 24.75 -17.8125 
Q 21.140625 -20.796875 15.09375 -20.796875 
L 7.90625 -20.796875 
L 7.90625 -13.28125 
L 13.1875 -13.28125 
Q 16.890625 -13.28125 18.9375 -11.515625 
Q 21 -9.765625 23.484375 -3.21875 
L 25.09375 0.875 
L 2.984375 54.6875 
L 12.5 54.6875 
L 29.59375 11.921875 
L 46.6875 54.6875 
L 56.203125 54.6875 
z
" id="DejaVuSans-121"/>
      </defs>
      <use xlink:href="#DejaVuSans-70"/>
      <use x="50.269531" xlink:href="#DejaVuSans-114"/>
      <use x="89.132812" xlink:href="#DejaVuSans-101"/>
      <use x="150.65625" xlink:href="#DejaVuSans-113"/>
      <use x="214.132812" xlink:href="#DejaVuSans-117"/>
      <use x="277.511719" xlink:href="#DejaVuSans-101"/>
      <use x="339.035156" xlink:href="#DejaVuSans-110"/>
      <use x="402.414062" xlink:href="#DejaVuSans-99"/>
      <use x="457.394531" xlink:href="#DejaVuSans-121"/>
     </g>
    </g>
   </g>
   <g id="line2d_21">
    <path clip-path="url(#pb18816724b)" d="M 62.801246 227.271818 
L 81.604246 227.271818 
L 100.407246 227.271818 
L 119.210246 227.271818 
L 138.013246 227.271818 
L 156.816246 227.271818 
L 175.619246 227.271818 
L 194.422246 227.271818 
L 213.225246 227.271818 
L 232.028246 227.271818 
L 250.831246 227.271818 
L 269.634246 227.271818 
L 288.437246 227.194666 
L 307.240246 227.001785 
L 326.043246 227.001785 
L 344.846246 225.343007 
L 363.649246 217.473459 
L 382.452246 201.502904 
L 401.255246 159.60913 
L 420.058246 124.157584 
L 438.861246 151.430971 
L 457.664246 131.795676 
L 476.467246 121.457249 
L 495.270246 62.628515 
L 514.073246 64.171564 
L 532.876246 57.112115 
L 551.679246 123.733246 
L 570.482246 133.18442 
L 589.285246 69.765115 
L 608.088246 65.521731 
L 626.891246 130.291203 
L 645.694246 144.641557 
L 664.497246 174.692431 
L 683.300246 203.740324 
L 702.103246 218.707898 
L 720.906246 207.443642 
L 739.709246 210.336858 
L 758.512246 221.9483 
L 777.315246 223.568501 
L 796.118246 223.838535 
L 814.921246 225.998803 
L 833.724246 225.574465 
L 852.527246 226.307413 
L 871.330246 226.037379 
L 890.133246 226.53887 
L 908.936246 226.461718 
L 927.739246 226.461718 
L 946.542246 226.770327 
L 965.345246 226.808904 
L 984.148246 226.84748 
L 1002.35 226.84748 
" style="fill:none;stroke:#0000ff;stroke-dasharray:5.55,2.4;stroke-dashoffset:0;stroke-width:1.5;"/>
    <defs>
     <path d="M 0 3 
C 0.795609 3 1.55874 2.683901 2.12132 2.12132 
C 2.683901 1.55874 3 0.795609 3 0 
C 3 -0.795609 2.683901 -1.55874 2.12132 -2.12132 
C 1.55874 -2.683901 0.795609 -3 0 -3 
C -0.795609 -3 -1.55874 -2.683901 -2.12132 -2.12132 
C -2.683901 -1.55874 -3 -0.795609 -3 0 
C -3 0.795609 -2.683901 1.55874 -2.12132 2.12132 
C -1.55874 2.683901 -0.795609 3 0 3 
z
" id="mdb24b982cf" style="stroke:#0000ff;"/>
    </defs>
    <g clip-path="url(#pb18816724b)">
     <use style="fill:#ffffff;stroke:#0000ff;" x="62.801246" xlink:href="#mdb24b982cf" y="227.271818"/>
     <use style="fill:#ffffff;stroke:#0000ff;" x="81.604246" xlink:href="#mdb24b982cf" y="227.271818"/>
     <use style="fill:#ffffff;stroke:#0000ff;" x="100.407246" xlink:href="#mdb24b982cf" y="227.271818"/>
     <use style="fill:#ffffff;stroke:#0000ff;" x="119.210246" xlink:href="#mdb24b982cf" y="227.271818"/>
     <use style="fill:#ffffff;stroke:#0000ff;" x="138.013246" xlink:href="#mdb24b982cf" y="227.271818"/>
     <use style="fill:#ffffff;stroke:#0000ff;" x="156.816246" xlink:href="#mdb24b982cf" y="227.271818"/>
     <use style="fill:#ffffff;stroke:#0000ff;" x="175.619246" xlink:href="#mdb24b982cf" y="227.271818"/>
     <use style="fill:#ffffff;stroke:#0000ff;" x="194.422246" xlink:href="#mdb24b982cf" y="227.271818"/>
     <use style="fill:#ffffff;stroke:#0000ff;" x="213.225246" xlink:href="#mdb24b982cf" y="227.271818"/>
     <use style="fill:#ffffff;stroke:#0000ff;" x="232.028246" xlink:href="#mdb24b982cf" y="227.271818"/>
     <use style="fill:#ffffff;stroke:#0000ff;" x="250.831246" xlink:href="#mdb24b982cf" y="227.271818"/>
     <use style="fill:#ffffff;stroke:#0000ff;" x="269.634246" xlink:href="#mdb24b982cf" y="227.271818"/>
     <use style="fill:#ffffff;stroke:#0000ff;" x="288.437246" xlink:href="#mdb24b982cf" y="227.194666"/>
     <use style="fill:#ffffff;stroke:#0000ff;" x="307.240246" xlink:href="#mdb24b982cf" y="227.001785"/>
     <use style="fill:#ffffff;stroke:#0000ff;" x="326.043246" xlink:href="#mdb24b982cf" y="227.001785"/>
     <use style="fill:#ffffff;stroke:#0000ff;" x="344.846246" xlink:href="#mdb24b982cf" y="225.343007"/>
     <use style="fill:#ffffff;stroke:#0000ff;" x="363.649246" xlink:href="#mdb24b982cf" y="217.473459"/>
     <use style="fill:#ffffff;stroke:#0000ff;" x="382.452246" xlink:href="#mdb24b982cf" y="201.502904"/>
     <use style="fill:#ffffff;stroke:#0000ff;" x="401.255246" xlink:href="#mdb24b982cf" y="159.60913"/>
     <use style="fill:#ffffff;stroke:#0000ff;" x="420.058246" xlink:href="#mdb24b982cf" y="124.157584"/>
     <use style="fill:#ffffff;stroke:#0000ff;" x="438.861246" xlink:href="#mdb24b982cf" y="151.430971"/>
     <use style="fill:#ffffff;stroke:#0000ff;" x="457.664246" xlink:href="#mdb24b982cf" y="131.795676"/>
     <use style="fill:#ffffff;stroke:#0000ff;" x="476.467246" xlink:href="#mdb24b982cf" y="121.457249"/>
     <use style="fill:#ffffff;stroke:#0000ff;" x="495.270246" xlink:href="#mdb24b982cf" y="62.628515"/>
     <use style="fill:#ffffff;stroke:#0000ff;" x="514.073246" xlink:href="#mdb24b982cf" y="64.171564"/>
     <use style="fill:#ffffff;stroke:#0000ff;" x="532.876246" xlink:href="#mdb24b982cf" y="57.112115"/>
     <use style="fill:#ffffff;stroke:#0000ff;" x="551.679246" xlink:href="#mdb24b982cf" y="123.733246"/>
     <use style="fill:#ffffff;stroke:#0000ff;" x="570.482246" xlink:href="#mdb24b982cf" y="133.18442"/>
     <use style="fill:#ffffff;stroke:#0000ff;" x="589.285246" xlink:href="#mdb24b982cf" y="69.765115"/>
     <use style="fill:#ffffff;stroke:#0000ff;" x="608.088246" xlink:href="#mdb24b982cf" y="65.521731"/>
     <use style="fill:#ffffff;stroke:#0000ff;" x="626.891246" xlink:href="#mdb24b982cf" y="130.291203"/>
     <use style="fill:#ffffff;stroke:#0000ff;" x="645.694246" xlink:href="#mdb24b982cf" y="144.641557"/>
     <use style="fill:#ffffff;stroke:#0000ff;" x="664.497246" xlink:href="#mdb24b982cf" y="174.692431"/>
     <use style="fill:#ffffff;stroke:#0000ff;" x="683.300246" xlink:href="#mdb24b982cf" y="203.740324"/>
     <use style="fill:#ffffff;stroke:#0000ff;" x="702.103246" xlink:href="#mdb24b982cf" y="218.707898"/>
     <use style="fill:#ffffff;stroke:#0000ff;" x="720.906246" xlink:href="#mdb24b982cf" y="207.443642"/>
     <use style="fill:#ffffff;stroke:#0000ff;" x="739.709246" xlink:href="#mdb24b982cf" y="210.336858"/>
     <use style="fill:#ffffff;stroke:#0000ff;" x="758.512246" xlink:href="#mdb24b982cf" y="221.9483"/>
     <use style="fill:#ffffff;stroke:#0000ff;" x="777.315246" xlink:href="#mdb24b982cf" y="223.568501"/>
     <use style="fill:#ffffff;stroke:#0000ff;" x="796.118246" xlink:href="#mdb24b982cf" y="223.838535"/>
     <use style="fill:#ffffff;stroke:#0000ff;" x="814.921246" xlink:href="#mdb24b982cf" y="225.998803"/>
     <use style="fill:#ffffff;stroke:#0000ff;" x="833.724246" xlink:href="#mdb24b982cf" y="225.574465"/>
     <use style="fill:#ffffff;stroke:#0000ff;" x="852.527246" xlink:href="#mdb24b982cf" y="226.307413"/>
     <use style="fill:#ffffff;stroke:#0000ff;" x="871.330246" xlink:href="#mdb24b982cf" y="226.037379"/>
     <use style="fill:#ffffff;stroke:#0000ff;" x="890.133246" xlink:href="#mdb24b982cf" y="226.53887"/>
     <use style="fill:#ffffff;stroke:#0000ff;" x="908.936246" xlink:href="#mdb24b982cf" y="226.461718"/>
     <use style="fill:#ffffff;stroke:#0000ff;" x="927.739246" xlink:href="#mdb24b982cf" y="226.461718"/>
     <use style="fill:#ffffff;stroke:#0000ff;" x="946.542246" xlink:href="#mdb24b982cf" y="226.770327"/>
     <use style="fill:#ffffff;stroke:#0000ff;" x="965.345246" xlink:href="#mdb24b982cf" y="226.808904"/>
     <use style="fill:#ffffff;stroke:#0000ff;" x="984.148246" xlink:href="#mdb24b982cf" y="226.84748"/>
     <use style="fill:#ffffff;stroke:#0000ff;" x="1002.951246" xlink:href="#mdb24b982cf" y="226.84748"/>
     <use style="fill:#ffffff;stroke:#0000ff;" x="1021.754246" xlink:href="#mdb24b982cf" y="227.078937"/>
     <use style="fill:#ffffff;stroke:#0000ff;" x="1040.557246" xlink:href="#mdb24b982cf" y="226.616022"/>
     <use style="fill:#ffffff;stroke:#0000ff;" x="1059.360246" xlink:href="#mdb24b982cf" y="227.078937"/>
     <use style="fill:#ffffff;stroke:#0000ff;" x="1078.163246" xlink:href="#mdb24b982cf" y="226.963208"/>
     <use style="fill:#ffffff;stroke:#0000ff;" x="1096.966246" xlink:href="#mdb24b982cf" y="227.078937"/>
     <use style="fill:#ffffff;stroke:#0000ff;" x="1115.769246" xlink:href="#mdb24b982cf" y="227.117513"/>
    </g>
   </g>
   <g id="line2d_22">
    <path clip-path="url(#pb18816724b)" d="M 62.801246 227.162402 
L 81.604246 227.12593 
L 100.407246 227.162402 
L 119.210246 227.052986 
L 138.013246 226.761209 
L 156.816246 226.724737 
L 175.619246 226.542377 
L 194.422246 225.995296 
L 213.225246 225.448215 
L 232.028246 223.40578 
L 250.831246 221.582177 
L 269.634246 220.196238 
L 288.437246 212.427689 
L 307.240246 202.54376 
L 326.043246 203.564978 
L 344.846246 169.536544 
L 363.649246 164.649288 
L 382.452246 172.199005 
L 401.255246 178.946336 
L 420.058246 164.466928 
L 438.861246 155.239496 
L 457.664246 150.826377 
L 476.467246 137.988211 
L 495.270246 142.620163 
L 514.073246 114.682564 
L 532.876246 49.908182 
L 551.679246 55.342519 
L 570.482246 113.442513 
L 589.285246 164.868121 
L 608.088246 166.071699 
L 626.891246 166.399947 
L 645.694246 163.810431 
L 664.497246 142.03661 
L 683.300246 162.351548 
L 702.103246 173.730832 
L 720.906246 188.538489 
L 739.709246 213.667739 
L 758.512246 217.387889 
L 777.315246 217.314945 
L 796.118246 216.074895 
L 814.921246 218.883244 
L 833.724246 220.925679 
L 852.527246 221.728065 
L 871.330246 227.198874 
L 890.133246 227.271818 
L 908.936246 227.271818 
L 927.739246 227.271818 
L 946.542246 227.271818 
L 965.345246 227.271818 
L 984.148246 227.271818 
L 1002.35 227.271818 
" style="fill:none;stroke:#ff0000;stroke-dasharray:5.55,2.4;stroke-dashoffset:0;stroke-width:1.5;"/>
    <defs>
     <path d="M 0 3 
C 0.795609 3 1.55874 2.683901 2.12132 2.12132 
C 2.683901 1.55874 3 0.795609 3 0 
C 3 -0.795609 2.683901 -1.55874 2.12132 -2.12132 
C 1.55874 -2.683901 0.795609 -3 0 -3 
C -0.795609 -3 -1.55874 -2.683901 -2.12132 -2.12132 
C -2.683901 -1.55874 -3 -0.795609 -3 0 
C -3 0.795609 -2.683901 1.55874 -2.12132 2.12132 
C -1.55874 2.683901 -0.795609 3 0 3 
z
" id="mcfe8cb1281" style="stroke:#ff0000;"/>
    </defs>
    <g clip-path="url(#pb18816724b)">
     <use style="fill:#ffffff;stroke:#ff0000;" x="62.801246" xlink:href="#mcfe8cb1281" y="227.162402"/>
     <use style="fill:#ffffff;stroke:#ff0000;" x="81.604246" xlink:href="#mcfe8cb1281" y="227.12593"/>
     <use style="fill:#ffffff;stroke:#ff0000;" x="100.407246" xlink:href="#mcfe8cb1281" y="227.162402"/>
     <use style="fill:#ffffff;stroke:#ff0000;" x="119.210246" xlink:href="#mcfe8cb1281" y="227.052986"/>
     <use style="fill:#ffffff;stroke:#ff0000;" x="138.013246" xlink:href="#mcfe8cb1281" y="226.761209"/>
     <use style="fill:#ffffff;stroke:#ff0000;" x="156.816246" xlink:href="#mcfe8cb1281" y="226.724737"/>
     <use style="fill:#ffffff;stroke:#ff0000;" x="175.619246" xlink:href="#mcfe8cb1281" y="226.542377"/>
     <use style="fill:#ffffff;stroke:#ff0000;" x="194.422246" xlink:href="#mcfe8cb1281" y="225.995296"/>
     <use style="fill:#ffffff;stroke:#ff0000;" x="213.225246" xlink:href="#mcfe8cb1281" y="225.448215"/>
     <use style="fill:#ffffff;stroke:#ff0000;" x="232.028246" xlink:href="#mcfe8cb1281" y="223.40578"/>
     <use style="fill:#ffffff;stroke:#ff0000;" x="250.831246" xlink:href="#mcfe8cb1281" y="221.582177"/>
     <use style="fill:#ffffff;stroke:#ff0000;" x="269.634246" xlink:href="#mcfe8cb1281" y="220.196238"/>
     <use style="fill:#ffffff;stroke:#ff0000;" x="288.437246" xlink:href="#mcfe8cb1281" y="212.427689"/>
     <use style="fill:#ffffff;stroke:#ff0000;" x="307.240246" xlink:href="#mcfe8cb1281" y="202.54376"/>
     <use style="fill:#ffffff;stroke:#ff0000;" x="326.043246" xlink:href="#mcfe8cb1281" y="203.564978"/>
     <use style="fill:#ffffff;stroke:#ff0000;" x="344.846246" xlink:href="#mcfe8cb1281" y="169.536544"/>
     <use style="fill:#ffffff;stroke:#ff0000;" x="363.649246" xlink:href="#mcfe8cb1281" y="164.649288"/>
     <use style="fill:#ffffff;stroke:#ff0000;" x="382.452246" xlink:href="#mcfe8cb1281" y="172.199005"/>
     <use style="fill:#ffffff;stroke:#ff0000;" x="401.255246" xlink:href="#mcfe8cb1281" y="178.946336"/>
     <use style="fill:#ffffff;stroke:#ff0000;" x="420.058246" xlink:href="#mcfe8cb1281" y="164.466928"/>
     <use style="fill:#ffffff;stroke:#ff0000;" x="438.861246" xlink:href="#mcfe8cb1281" y="155.239496"/>
     <use style="fill:#ffffff;stroke:#ff0000;" x="457.664246" xlink:href="#mcfe8cb1281" y="150.826377"/>
     <use style="fill:#ffffff;stroke:#ff0000;" x="476.467246" xlink:href="#mcfe8cb1281" y="137.988211"/>
     <use style="fill:#ffffff;stroke:#ff0000;" x="495.270246" xlink:href="#mcfe8cb1281" y="142.620163"/>
     <use style="fill:#ffffff;stroke:#ff0000;" x="514.073246" xlink:href="#mcfe8cb1281" y="114.682564"/>
     <use style="fill:#ffffff;stroke:#ff0000;" x="532.876246" xlink:href="#mcfe8cb1281" y="49.908182"/>
     <use style="fill:#ffffff;stroke:#ff0000;" x="551.679246" xlink:href="#mcfe8cb1281" y="55.342519"/>
     <use style="fill:#ffffff;stroke:#ff0000;" x="570.482246" xlink:href="#mcfe8cb1281" y="113.442513"/>
     <use style="fill:#ffffff;stroke:#ff0000;" x="589.285246" xlink:href="#mcfe8cb1281" y="164.868121"/>
     <use style="fill:#ffffff;stroke:#ff0000;" x="608.088246" xlink:href="#mcfe8cb1281" y="166.071699"/>
     <use style="fill:#ffffff;stroke:#ff0000;" x="626.891246" xlink:href="#mcfe8cb1281" y="166.399947"/>
     <use style="fill:#ffffff;stroke:#ff0000;" x="645.694246" xlink:href="#mcfe8cb1281" y="163.810431"/>
     <use style="fill:#ffffff;stroke:#ff0000;" x="664.497246" xlink:href="#mcfe8cb1281" y="142.03661"/>
     <use style="fill:#ffffff;stroke:#ff0000;" x="683.300246" xlink:href="#mcfe8cb1281" y="162.351548"/>
     <use style="fill:#ffffff;stroke:#ff0000;" x="702.103246" xlink:href="#mcfe8cb1281" y="173.730832"/>
     <use style="fill:#ffffff;stroke:#ff0000;" x="720.906246" xlink:href="#mcfe8cb1281" y="188.538489"/>
     <use style="fill:#ffffff;stroke:#ff0000;" x="739.709246" xlink:href="#mcfe8cb1281" y="213.667739"/>
     <use style="fill:#ffffff;stroke:#ff0000;" x="758.512246" xlink:href="#mcfe8cb1281" y="217.387889"/>
     <use style="fill:#ffffff;stroke:#ff0000;" x="777.315246" xlink:href="#mcfe8cb1281" y="217.314945"/>
     <use style="fill:#ffffff;stroke:#ff0000;" x="796.118246" xlink:href="#mcfe8cb1281" y="216.074895"/>
     <use style="fill:#ffffff;stroke:#ff0000;" x="814.921246" xlink:href="#mcfe8cb1281" y="218.883244"/>
     <use style="fill:#ffffff;stroke:#ff0000;" x="833.724246" xlink:href="#mcfe8cb1281" y="220.925679"/>
     <use style="fill:#ffffff;stroke:#ff0000;" x="852.527246" xlink:href="#mcfe8cb1281" y="221.728065"/>
     <use style="fill:#ffffff;stroke:#ff0000;" x="871.330246" xlink:href="#mcfe8cb1281" y="227.198874"/>
     <use style="fill:#ffffff;stroke:#ff0000;" x="890.133246" xlink:href="#mcfe8cb1281" y="227.271818"/>
     <use style="fill:#ffffff;stroke:#ff0000;" x="908.936246" xlink:href="#mcfe8cb1281" y="227.271818"/>
     <use style="fill:#ffffff;stroke:#ff0000;" x="927.739246" xlink:href="#mcfe8cb1281" y="227.271818"/>
     <use style="fill:#ffffff;stroke:#ff0000;" x="946.542246" xlink:href="#mcfe8cb1281" y="227.271818"/>
     <use style="fill:#ffffff;stroke:#ff0000;" x="965.345246" xlink:href="#mcfe8cb1281" y="227.271818"/>
     <use style="fill:#ffffff;stroke:#ff0000;" x="984.148246" xlink:href="#mcfe8cb1281" y="227.271818"/>
     <use style="fill:#ffffff;stroke:#ff0000;" x="1002.951246" xlink:href="#mcfe8cb1281" y="227.271818"/>
     <use style="fill:#ffffff;stroke:#ff0000;" x="1021.754246" xlink:href="#mcfe8cb1281" y="227.271818"/>
     <use style="fill:#ffffff;stroke:#ff0000;" x="1040.557246" xlink:href="#mcfe8cb1281" y="227.271818"/>
     <use style="fill:#ffffff;stroke:#ff0000;" x="1059.360246" xlink:href="#mcfe8cb1281" y="227.271818"/>
     <use style="fill:#ffffff;stroke:#ff0000;" x="1078.163246" xlink:href="#mcfe8cb1281" y="227.271818"/>
     <use style="fill:#ffffff;stroke:#ff0000;" x="1096.966246" xlink:href="#mcfe8cb1281" y="227.271818"/>
     <use style="fill:#ffffff;stroke:#ff0000;" x="1115.769246" xlink:href="#mcfe8cb1281" y="227.271818"/>
    </g>
   </g>
   <g id="patch_3">
    <path d="M 54 236.14 
L 54 41.04 
" style="fill:none;stroke:#000000;stroke-linecap:square;stroke-linejoin:miter;stroke-width:0.8;"/>
   </g>
   <g id="patch_4">
    <path d="M 994.15 236.14 
L 994.15 41.04 
" style="fill:none;stroke:#000000;stroke-linecap:square;stroke-linejoin:miter;stroke-width:0.8;"/>
   </g>
   <g id="patch_5">
    <path d="M 54 236.14 
L 994.15 236.14 
" style="fill:none;stroke:#000000;stroke-linecap:square;stroke-linejoin:miter;stroke-width:0.8;"/>
   </g>
   <g id="patch_6">
    <path d="M 54 41.04 
L 994.15 41.04 
" style="fill:none;stroke:#000000;stroke-linecap:square;stroke-linejoin:miter;stroke-width:0.8;"/>
   </g>
   <g id="legend_1">
    <g id="patch_7">
     <path d="M 722.9525 100.81 
L 982.95 100.81 
Q 986.15 100.81 986.15 97.61 
L 986.15 52.24 
Q 986.15 49.04 982.95 49.04 
L 722.9525 49.04 
Q 719.7525 49.04 719.7525 52.24 
L 719.7525 97.61 
Q 719.7525 100.81 722.9525 100.81 
z
" style="fill:#ffffff;opacity:0.8;stroke:#cccccc;stroke-linejoin:miter;"/>
    </g>
    <g id="line2d_23">
     <path d="M 726.1525 61.9975 
L 758.1525 61.9975 
" style="fill:none;stroke:#0000ff;stroke-dasharray:5.55,2.4;stroke-dashoffset:0;stroke-width:1.5;"/>
    </g>
    <g id="line2d_24">
     <g>
      <use style="fill:#ffffff;stroke:#0000ff;" x="742.1525" xlink:href="#mdb24b982cf" y="61.9975"/>
     </g>
    </g>
    <g id="text_13">
     <!-- Dry season deformation -->
     <g transform="translate(770.9525 67.5975)scale(0.16 -0.16)">
      <defs>
       <path d="M 19.671875 64.796875 
L 19.671875 8.109375 
L 31.59375 8.109375 
Q 46.6875 8.109375 53.6875 14.9375 
Q 60.6875 21.78125 60.6875 36.53125 
Q 60.6875 51.171875 53.6875 57.984375 
Q 46.6875 64.796875 31.59375 64.796875 
z
M 9.8125 72.90625 
L 30.078125 72.90625 
Q 51.265625 72.90625 61.171875 64.09375 
Q 71.09375 55.28125 71.09375 36.53125 
Q 71.09375 17.671875 61.125 8.828125 
Q 51.171875 0 30.078125 0 
L 9.8125 0 
z
" id="DejaVuSans-68"/>
      </defs>
      <use xlink:href="#DejaVuSans-68"/>
      <use x="77.001953" xlink:href="#DejaVuSans-114"/>
      <use x="118.115234" xlink:href="#DejaVuSans-121"/>
      <use x="177.294922" xlink:href="#DejaVuSans-32"/>
      <use x="209.082031" xlink:href="#DejaVuSans-115"/>
      <use x="261.181641" xlink:href="#DejaVuSans-101"/>
      <use x="322.705078" xlink:href="#DejaVuSans-97"/>
      <use x="383.984375" xlink:href="#DejaVuSans-115"/>
      <use x="436.083984" xlink:href="#DejaVuSans-111"/>
      <use x="497.265625" xlink:href="#DejaVuSans-110"/>
      <use x="560.644531" xlink:href="#DejaVuSans-32"/>
      <use x="592.431641" xlink:href="#DejaVuSans-100"/>
      <use x="655.908203" xlink:href="#DejaVuSans-101"/>
      <use x="717.431641" xlink:href="#DejaVuSans-102"/>
      <use x="752.636719" xlink:href="#DejaVuSans-111"/>
      <use x="813.818359" xlink:href="#DejaVuSans-114"/>
      <use x="853.181641" xlink:href="#DejaVuSans-109"/>
      <use x="950.59375" xlink:href="#DejaVuSans-97"/>
      <use x="1011.873047" xlink:href="#DejaVuSans-116"/>
      <use x="1051.082031" xlink:href="#DejaVuSans-105"/>
      <use x="1078.865234" xlink:href="#DejaVuSans-111"/>
      <use x="1140.046875" xlink:href="#DejaVuSans-110"/>
     </g>
    </g>
    <g id="line2d_25">
     <path d="M 726.1525 85.4825 
L 758.1525 85.4825 
" style="fill:none;stroke:#ff0000;stroke-dasharray:5.55,2.4;stroke-dashoffset:0;stroke-width:1.5;"/>
    </g>
    <g id="line2d_26">
     <g>
      <use style="fill:#ffffff;stroke:#ff0000;" x="742.1525" xlink:href="#mcfe8cb1281" y="85.4825"/>
     </g>
    </g>
    <g id="text_14">
     <!-- Rainy season deformation -->
     <g transform="translate(770.9525 91.0825)scale(0.16 -0.16)">
      <defs>
       <path d="M 44.390625 34.1875 
Q 47.5625 33.109375 50.5625 29.59375 
Q 53.5625 26.078125 56.59375 19.921875 
L 66.609375 0 
L 56 0 
L 46.6875 18.703125 
Q 43.0625 26.03125 39.671875 28.421875 
Q 36.28125 30.8125 30.421875 30.8125 
L 19.671875 30.8125 
L 19.671875 0 
L 9.8125 0 
L 9.8125 72.90625 
L 32.078125 72.90625 
Q 44.578125 72.90625 50.734375 67.671875 
Q 56.890625 62.453125 56.890625 51.90625 
Q 56.890625 45.015625 53.6875 40.46875 
Q 50.484375 35.9375 44.390625 34.1875 
z
M 19.671875 64.796875 
L 19.671875 38.921875 
L 32.078125 38.921875 
Q 39.203125 38.921875 42.84375 42.21875 
Q 46.484375 45.515625 46.484375 51.90625 
Q 46.484375 58.296875 42.84375 61.546875 
Q 39.203125 64.796875 32.078125 64.796875 
z
" id="DejaVuSans-82"/>
      </defs>
      <use xlink:href="#DejaVuSans-82"/>
      <use x="67.232422" xlink:href="#DejaVuSans-97"/>
      <use x="128.511719" xlink:href="#DejaVuSans-105"/>
      <use x="156.294922" xlink:href="#DejaVuSans-110"/>
      <use x="219.673828" xlink:href="#DejaVuSans-121"/>
      <use x="278.853516" xlink:href="#DejaVuSans-32"/>
      <use x="310.640625" xlink:href="#DejaVuSans-115"/>
      <use x="362.740234" xlink:href="#DejaVuSans-101"/>
      <use x="424.263672" xlink:href="#DejaVuSans-97"/>
      <use x="485.542969" xlink:href="#DejaVuSans-115"/>
      <use x="537.642578" xlink:href="#DejaVuSans-111"/>
      <use x="598.824219" xlink:href="#DejaVuSans-110"/>
      <use x="662.203125" xlink:href="#DejaVuSans-32"/>
      <use x="693.990234" xlink:href="#DejaVuSans-100"/>
      <use x="757.466797" xlink:href="#DejaVuSans-101"/>
      <use x="818.990234" xlink:href="#DejaVuSans-102"/>
      <use x="854.195312" xlink:href="#DejaVuSans-111"/>
      <use x="915.376953" xlink:href="#DejaVuSans-114"/>
      <use x="954.740234" xlink:href="#DejaVuSans-109"/>
      <use x="1052.152344" xlink:href="#DejaVuSans-97"/>
      <use x="1113.431641" xlink:href="#DejaVuSans-116"/>
      <use x="1152.640625" xlink:href="#DejaVuSans-105"/>
      <use x="1180.423828" xlink:href="#DejaVuSans-111"/>
      <use x="1241.605469" xlink:href="#DejaVuSans-110"/>
     </g>
    </g>
   </g>
  </g>
  <g id="text_15">
   <!-- Landslide seasonal deformation magnitudes histogram [weighted to amount of dates] -->
   <g transform="translate(112.642187 20.877187)scale(0.18 -0.18)">
    <defs>
     <path d="M 9.8125 72.90625 
L 19.671875 72.90625 
L 19.671875 8.296875 
L 55.171875 8.296875 
L 55.171875 0 
L 9.8125 0 
z
" id="DejaVuSans-76"/>
     <path d="M 9.421875 75.984375 
L 18.40625 75.984375 
L 18.40625 0 
L 9.421875 0 
z
" id="DejaVuSans-108"/>
     <path d="M 45.40625 27.984375 
Q 45.40625 37.75 41.375 43.109375 
Q 37.359375 48.484375 30.078125 48.484375 
Q 22.859375 48.484375 18.828125 43.109375 
Q 14.796875 37.75 14.796875 27.984375 
Q 14.796875 18.265625 18.828125 12.890625 
Q 22.859375 7.515625 30.078125 7.515625 
Q 37.359375 7.515625 41.375 12.890625 
Q 45.40625 18.265625 45.40625 27.984375 
z
M 54.390625 6.78125 
Q 54.390625 -7.171875 48.1875 -13.984375 
Q 42 -20.796875 29.203125 -20.796875 
Q 24.46875 -20.796875 20.265625 -20.09375 
Q 16.0625 -19.390625 12.109375 -17.921875 
L 12.109375 -9.1875 
Q 16.0625 -11.328125 19.921875 -12.34375 
Q 23.78125 -13.375 27.78125 -13.375 
Q 36.625 -13.375 41.015625 -8.765625 
Q 45.40625 -4.15625 45.40625 5.171875 
L 45.40625 9.625 
Q 42.625 4.78125 38.28125 2.390625 
Q 33.9375 0 27.875 0 
Q 17.828125 0 11.671875 7.65625 
Q 5.515625 15.328125 5.515625 27.984375 
Q 5.515625 40.671875 11.671875 48.328125 
Q 17.828125 56 27.875 56 
Q 33.9375 56 38.28125 53.609375 
Q 42.625 51.21875 45.40625 46.390625 
L 45.40625 54.6875 
L 54.390625 54.6875 
z
" id="DejaVuSans-103"/>
     <path d="M 54.890625 33.015625 
L 54.890625 0 
L 45.90625 0 
L 45.90625 32.71875 
Q 45.90625 40.484375 42.875 44.328125 
Q 39.84375 48.1875 33.796875 48.1875 
Q 26.515625 48.1875 22.3125 43.546875 
Q 18.109375 38.921875 18.109375 30.90625 
L 18.109375 0 
L 9.078125 0 
L 9.078125 75.984375 
L 18.109375 75.984375 
L 18.109375 46.1875 
Q 21.34375 51.125 25.703125 53.5625 
Q 30.078125 56 35.796875 56 
Q 45.21875 56 50.046875 50.171875 
Q 54.890625 44.34375 54.890625 33.015625 
z
" id="DejaVuSans-104"/>
     <path d="M 4.203125 54.6875 
L 13.1875 54.6875 
L 24.421875 12.015625 
L 35.59375 54.6875 
L 46.1875 54.6875 
L 57.421875 12.015625 
L 68.609375 54.6875 
L 77.59375 54.6875 
L 63.28125 0 
L 52.6875 0 
L 40.921875 44.828125 
L 29.109375 0 
L 18.5 0 
z
" id="DejaVuSans-119"/>
    </defs>
    <use xlink:href="#DejaVuSans-76"/>
    <use x="55.712891" xlink:href="#DejaVuSans-97"/>
    <use x="116.992188" xlink:href="#DejaVuSans-110"/>
    <use x="180.371094" xlink:href="#DejaVuSans-100"/>
    <use x="243.847656" xlink:href="#DejaVuSans-115"/>
    <use x="295.947266" xlink:href="#DejaVuSans-108"/>
    <use x="323.730469" xlink:href="#DejaVuSans-105"/>
    <use x="351.513672" xlink:href="#DejaVuSans-100"/>
    <use x="414.990234" xlink:href="#DejaVuSans-101"/>
    <use x="476.513672" xlink:href="#DejaVuSans-32"/>
    <use x="508.300781" xlink:href="#DejaVuSans-115"/>
    <use x="560.400391" xlink:href="#DejaVuSans-101"/>
    <use x="621.923828" xlink:href="#DejaVuSans-97"/>
    <use x="683.203125" xlink:href="#DejaVuSans-115"/>
    <use x="735.302734" xlink:href="#DejaVuSans-111"/>
    <use x="796.484375" xlink:href="#DejaVuSans-110"/>
    <use x="859.863281" xlink:href="#DejaVuSans-97"/>
    <use x="921.142578" xlink:href="#DejaVuSans-108"/>
    <use x="948.925781" xlink:href="#DejaVuSans-32"/>
    <use x="980.712891" xlink:href="#DejaVuSans-100"/>
    <use x="1044.189453" xlink:href="#DejaVuSans-101"/>
    <use x="1105.712891" xlink:href="#DejaVuSans-102"/>
    <use x="1140.917969" xlink:href="#DejaVuSans-111"/>
    <use x="1202.099609" xlink:href="#DejaVuSans-114"/>
    <use x="1241.462891" xlink:href="#DejaVuSans-109"/>
    <use x="1338.875" xlink:href="#DejaVuSans-97"/>
    <use x="1400.154297" xlink:href="#DejaVuSans-116"/>
    <use x="1439.363281" xlink:href="#DejaVuSans-105"/>
    <use x="1467.146484" xlink:href="#DejaVuSans-111"/>
    <use x="1528.328125" xlink:href="#DejaVuSans-110"/>
    <use x="1591.707031" xlink:href="#DejaVuSans-32"/>
    <use x="1623.494141" xlink:href="#DejaVuSans-109"/>
    <use x="1720.90625" xlink:href="#DejaVuSans-97"/>
    <use x="1782.185547" xlink:href="#DejaVuSans-103"/>
    <use x="1845.662109" xlink:href="#DejaVuSans-110"/>
    <use x="1909.041016" xlink:href="#DejaVuSans-105"/>
    <use x="1936.824219" xlink:href="#DejaVuSans-116"/>
    <use x="1976.033203" xlink:href="#DejaVuSans-117"/>
    <use x="2039.412109" xlink:href="#DejaVuSans-100"/>
    <use x="2102.888672" xlink:href="#DejaVuSans-101"/>
    <use x="2164.412109" xlink:href="#DejaVuSans-115"/>
    <use x="2216.511719" xlink:href="#DejaVuSans-32"/>
    <use x="2248.298828" xlink:href="#DejaVuSans-104"/>
    <use x="2311.677734" xlink:href="#DejaVuSans-105"/>
    <use x="2339.460938" xlink:href="#DejaVuSans-115"/>
    <use x="2391.560547" xlink:href="#DejaVuSans-116"/>
    <use x="2430.769531" xlink:href="#DejaVuSans-111"/>
    <use x="2491.951172" xlink:href="#DejaVuSans-103"/>
    <use x="2555.427734" xlink:href="#DejaVuSans-114"/>
    <use x="2596.541016" xlink:href="#DejaVuSans-97"/>
    <use x="2657.820312" xlink:href="#DejaVuSans-109"/>
    <use x="2755.232422" xlink:href="#DejaVuSans-32"/>
    <use x="2787.019531" xlink:href="#DejaVuSans-91"/>
    <use x="2826.033203" xlink:href="#DejaVuSans-119"/>
    <use x="2907.820312" xlink:href="#DejaVuSans-101"/>
    <use x="2969.34375" xlink:href="#DejaVuSans-105"/>
    <use x="2997.126953" xlink:href="#DejaVuSans-103"/>
    <use x="3060.603516" xlink:href="#DejaVuSans-104"/>
    <use x="3123.982422" xlink:href="#DejaVuSans-116"/>
    <use x="3163.191406" xlink:href="#DejaVuSans-101"/>
    <use x="3224.714844" xlink:href="#DejaVuSans-100"/>
    <use x="3288.191406" xlink:href="#DejaVuSans-32"/>
    <use x="3319.978516" xlink:href="#DejaVuSans-116"/>
    <use x="3359.1875" xlink:href="#DejaVuSans-111"/>
    <use x="3420.369141" xlink:href="#DejaVuSans-32"/>
    <use x="3452.15625" xlink:href="#DejaVuSans-97"/>
    <use x="3513.435547" xlink:href="#DejaVuSans-109"/>
    <use x="3610.847656" xlink:href="#DejaVuSans-111"/>
    <use x="3672.029297" xlink:href="#DejaVuSans-117"/>
    <use x="3735.408203" xlink:href="#DejaVuSans-110"/>
    <use x="3798.787109" xlink:href="#DejaVuSans-116"/>
    <use x="3837.996094" xlink:href="#DejaVuSans-32"/>
    <use x="3869.783203" xlink:href="#DejaVuSans-111"/>
    <use x="3930.964844" xlink:href="#DejaVuSans-102"/>
    <use x="3966.169922" xlink:href="#DejaVuSans-32"/>
    <use x="3997.957031" xlink:href="#DejaVuSans-100"/>
    <use x="4061.433594" xlink:href="#DejaVuSans-97"/>
    <use x="4122.712891" xlink:href="#DejaVuSans-116"/>
    <use x="4161.921875" xlink:href="#DejaVuSans-101"/>
    <use x="4223.445312" xlink:href="#DejaVuSans-115"/>
    <use x="4275.544922" xlink:href="#DejaVuSans-93"/>
   </g>
  </g>
 </g>
 <defs>
  <clipPath id="pb18816724b">
   <rect height="195.1" width="940.15" x="54" y="41.04"/>
  </clipPath>
 </defs>
</svg>
