<?xml version="1.0" encoding="utf-8" standalone="no"?>
<!DOCTYPE svg PUBLIC "-//W3C//DTD SVG 1.1//EN"
  "http://www.w3.org/Graphics/SVG/1.1/DTD/svg11.dtd">
<!-- Created with matplotlib (https://matplotlib.org/) -->
<svg height="484.29129pt" version="1.1" viewBox="0 0 851.3075 484.29129" width="851.3075pt" xmlns="http://www.w3.org/2000/svg" xmlns:xlink="http://www.w3.org/1999/xlink">
 <metadata>
  <rdf:RDF xmlns:cc="http://creativecommons.org/ns#" xmlns:dc="http://purl.org/dc/elements/1.1/" xmlns:rdf="http://www.w3.org/1999/02/22-rdf-syntax-ns#">
   <cc:Work>
    <dc:type rdf:resource="http://purl.org/dc/dcmitype/StillImage"/>
    <dc:date>2021-03-31T13:55:49.680367</dc:date>
    <dc:format>image/svg+xml</dc:format>
    <dc:creator>
     <cc:Agent>
      <dc:title>Matplotlib v3.3.4, https://matplotlib.org/</dc:title>
     </cc:Agent>
    </dc:creator>
   </cc:Work>
  </rdf:RDF>
 </metadata>
 <defs>
  <style type="text/css">*{stroke-linecap:butt;stroke-linejoin:round;}</style>
 </defs>
 <g id="figure_1">
  <g id="patch_1">
   <path d="M 0 484.29129 
L 851.3075 484.29129 
L 851.3075 0 
L 0 0 
z
" style="fill:none;"/>
  </g>
  <g id="axes_1">
   <g id="patch_2">
    <path d="M 62.9075 418.557187 
L 844.1075 418.557187 
L 844.1075 26.877187 
L 62.9075 26.877187 
z
" style="fill:#ffffff;"/>
   </g>
   <g id="matplotlib.axis_1">
    <g id="xtick_1">
     <g id="line2d_1">
      <path clip-path="url(#p8e23c7c765)" d="M 121.839474 418.557187 
L 121.839474 26.877187 
" style="fill:none;stroke:#b0b0b0;stroke-linecap:square;stroke-width:0.8;"/>
     </g>
     <g id="line2d_2">
      <defs>
       <path d="M 0 0 
L 0 6 
" id="mf7106571d6" style="stroke:#000000;"/>
      </defs>
      <g>
       <use style="stroke:#000000;" x="121.839474" xlink:href="#mf7106571d6" y="418.557187"/>
      </g>
     </g>
     <g id="text_1">
      <!-- 2015 -->
      <g transform="translate(89.527208 455.084803)rotate(-30)scale(0.14 -0.14)">
       <defs>
        <path d="M 19.1875 8.296875 
L 53.609375 8.296875 
L 53.609375 0 
L 7.328125 0 
L 7.328125 8.296875 
Q 12.9375 14.109375 22.625 23.890625 
Q 32.328125 33.6875 34.8125 36.53125 
Q 39.546875 41.84375 41.421875 45.53125 
Q 43.3125 49.21875 43.3125 52.78125 
Q 43.3125 58.59375 39.234375 62.25 
Q 35.15625 65.921875 28.609375 65.921875 
Q 23.96875 65.921875 18.8125 64.3125 
Q 13.671875 62.703125 7.8125 59.421875 
L 7.8125 69.390625 
Q 13.765625 71.78125 18.9375 73 
Q 24.125 74.21875 28.421875 74.21875 
Q 39.75 74.21875 46.484375 68.546875 
Q 53.21875 62.890625 53.21875 53.421875 
Q 53.21875 48.921875 51.53125 44.890625 
Q 49.859375 40.875 45.40625 35.40625 
Q 44.1875 33.984375 37.640625 27.21875 
Q 31.109375 20.453125 19.1875 8.296875 
z
" id="DejaVuSans-50"/>
        <path d="M 31.78125 66.40625 
Q 24.171875 66.40625 20.328125 58.90625 
Q 16.5 51.421875 16.5 36.375 
Q 16.5 21.390625 20.328125 13.890625 
Q 24.171875 6.390625 31.78125 6.390625 
Q 39.453125 6.390625 43.28125 13.890625 
Q 47.125 21.390625 47.125 36.375 
Q 47.125 51.421875 43.28125 58.90625 
Q 39.453125 66.40625 31.78125 66.40625 
z
M 31.78125 74.21875 
Q 44.046875 74.21875 50.515625 64.515625 
Q 56.984375 54.828125 56.984375 36.375 
Q 56.984375 17.96875 50.515625 8.265625 
Q 44.046875 -1.421875 31.78125 -1.421875 
Q 19.53125 -1.421875 13.0625 8.265625 
Q 6.59375 17.96875 6.59375 36.375 
Q 6.59375 54.828125 13.0625 64.515625 
Q 19.53125 74.21875 31.78125 74.21875 
z
" id="DejaVuSans-48"/>
        <path d="M 12.40625 8.296875 
L 28.515625 8.296875 
L 28.515625 63.921875 
L 10.984375 60.40625 
L 10.984375 69.390625 
L 28.421875 72.90625 
L 38.28125 72.90625 
L 38.28125 8.296875 
L 54.390625 8.296875 
L 54.390625 0 
L 12.40625 0 
z
" id="DejaVuSans-49"/>
        <path d="M 10.796875 72.90625 
L 49.515625 72.90625 
L 49.515625 64.59375 
L 19.828125 64.59375 
L 19.828125 46.734375 
Q 21.96875 47.46875 24.109375 47.828125 
Q 26.265625 48.1875 28.421875 48.1875 
Q 40.625 48.1875 47.75 41.5 
Q 54.890625 34.8125 54.890625 23.390625 
Q 54.890625 11.625 47.5625 5.09375 
Q 40.234375 -1.421875 26.90625 -1.421875 
Q 22.3125 -1.421875 17.546875 -0.640625 
Q 12.796875 0.140625 7.71875 1.703125 
L 7.71875 11.625 
Q 12.109375 9.234375 16.796875 8.0625 
Q 21.484375 6.890625 26.703125 6.890625 
Q 35.15625 6.890625 40.078125 11.328125 
Q 45.015625 15.765625 45.015625 23.390625 
Q 45.015625 31 40.078125 35.4375 
Q 35.15625 39.890625 26.703125 39.890625 
Q 22.75 39.890625 18.8125 39.015625 
Q 14.890625 38.140625 10.796875 36.28125 
z
" id="DejaVuSans-53"/>
       </defs>
       <use xlink:href="#DejaVuSans-50"/>
       <use x="63.623047" xlink:href="#DejaVuSans-48"/>
       <use x="127.246094" xlink:href="#DejaVuSans-49"/>
       <use x="190.869141" xlink:href="#DejaVuSans-53"/>
      </g>
     </g>
    </g>
    <g id="xtick_2">
     <g id="line2d_3">
      <path clip-path="url(#p8e23c7c765)" d="M 235.830839 418.557187 
L 235.830839 26.877187 
" style="fill:none;stroke:#b0b0b0;stroke-linecap:square;stroke-width:0.8;"/>
     </g>
     <g id="line2d_4">
      <g>
       <use style="stroke:#000000;" x="235.830839" xlink:href="#mf7106571d6" y="418.557187"/>
      </g>
     </g>
     <g id="text_2">
      <!-- 2016 -->
      <g transform="translate(203.518573 455.084803)rotate(-30)scale(0.14 -0.14)">
       <defs>
        <path d="M 33.015625 40.375 
Q 26.375 40.375 22.484375 35.828125 
Q 18.609375 31.296875 18.609375 23.390625 
Q 18.609375 15.53125 22.484375 10.953125 
Q 26.375 6.390625 33.015625 6.390625 
Q 39.65625 6.390625 43.53125 10.953125 
Q 47.40625 15.53125 47.40625 23.390625 
Q 47.40625 31.296875 43.53125 35.828125 
Q 39.65625 40.375 33.015625 40.375 
z
M 52.59375 71.296875 
L 52.59375 62.3125 
Q 48.875 64.0625 45.09375 64.984375 
Q 41.3125 65.921875 37.59375 65.921875 
Q 27.828125 65.921875 22.671875 59.328125 
Q 17.53125 52.734375 16.796875 39.40625 
Q 19.671875 43.65625 24.015625 45.921875 
Q 28.375 48.1875 33.59375 48.1875 
Q 44.578125 48.1875 50.953125 41.515625 
Q 57.328125 34.859375 57.328125 23.390625 
Q 57.328125 12.15625 50.6875 5.359375 
Q 44.046875 -1.421875 33.015625 -1.421875 
Q 20.359375 -1.421875 13.671875 8.265625 
Q 6.984375 17.96875 6.984375 36.375 
Q 6.984375 53.65625 15.1875 63.9375 
Q 23.390625 74.21875 37.203125 74.21875 
Q 40.921875 74.21875 44.703125 73.484375 
Q 48.484375 72.75 52.59375 71.296875 
z
" id="DejaVuSans-54"/>
       </defs>
       <use xlink:href="#DejaVuSans-50"/>
       <use x="63.623047" xlink:href="#DejaVuSans-48"/>
       <use x="127.246094" xlink:href="#DejaVuSans-49"/>
       <use x="190.869141" xlink:href="#DejaVuSans-54"/>
      </g>
     </g>
    </g>
    <g id="xtick_3">
     <g id="line2d_5">
      <path clip-path="url(#p8e23c7c765)" d="M 350.134509 418.557187 
L 350.134509 26.877187 
" style="fill:none;stroke:#b0b0b0;stroke-linecap:square;stroke-width:0.8;"/>
     </g>
     <g id="line2d_6">
      <g>
       <use style="stroke:#000000;" x="350.134509" xlink:href="#mf7106571d6" y="418.557187"/>
      </g>
     </g>
     <g id="text_3">
      <!-- 2017 -->
      <g transform="translate(317.822242 455.084803)rotate(-30)scale(0.14 -0.14)">
       <defs>
        <path d="M 8.203125 72.90625 
L 55.078125 72.90625 
L 55.078125 68.703125 
L 28.609375 0 
L 18.3125 0 
L 43.21875 64.59375 
L 8.203125 64.59375 
z
" id="DejaVuSans-55"/>
       </defs>
       <use xlink:href="#DejaVuSans-50"/>
       <use x="63.623047" xlink:href="#DejaVuSans-48"/>
       <use x="127.246094" xlink:href="#DejaVuSans-49"/>
       <use x="190.869141" xlink:href="#DejaVuSans-55"/>
      </g>
     </g>
    </g>
    <g id="xtick_4">
     <g id="line2d_7">
      <path clip-path="url(#p8e23c7c765)" d="M 464.125874 418.557187 
L 464.125874 26.877187 
" style="fill:none;stroke:#b0b0b0;stroke-linecap:square;stroke-width:0.8;"/>
     </g>
     <g id="line2d_8">
      <g>
       <use style="stroke:#000000;" x="464.125874" xlink:href="#mf7106571d6" y="418.557187"/>
      </g>
     </g>
     <g id="text_4">
      <!-- 2018 -->
      <g transform="translate(431.813607 455.084803)rotate(-30)scale(0.14 -0.14)">
       <defs>
        <path d="M 31.78125 34.625 
Q 24.75 34.625 20.71875 30.859375 
Q 16.703125 27.09375 16.703125 20.515625 
Q 16.703125 13.921875 20.71875 10.15625 
Q 24.75 6.390625 31.78125 6.390625 
Q 38.8125 6.390625 42.859375 10.171875 
Q 46.921875 13.96875 46.921875 20.515625 
Q 46.921875 27.09375 42.890625 30.859375 
Q 38.875 34.625 31.78125 34.625 
z
M 21.921875 38.8125 
Q 15.578125 40.375 12.03125 44.71875 
Q 8.5 49.078125 8.5 55.328125 
Q 8.5 64.0625 14.71875 69.140625 
Q 20.953125 74.21875 31.78125 74.21875 
Q 42.671875 74.21875 48.875 69.140625 
Q 55.078125 64.0625 55.078125 55.328125 
Q 55.078125 49.078125 51.53125 44.71875 
Q 48 40.375 41.703125 38.8125 
Q 48.828125 37.15625 52.796875 32.3125 
Q 56.78125 27.484375 56.78125 20.515625 
Q 56.78125 9.90625 50.3125 4.234375 
Q 43.84375 -1.421875 31.78125 -1.421875 
Q 19.734375 -1.421875 13.25 4.234375 
Q 6.78125 9.90625 6.78125 20.515625 
Q 6.78125 27.484375 10.78125 32.3125 
Q 14.796875 37.15625 21.921875 38.8125 
z
M 18.3125 54.390625 
Q 18.3125 48.734375 21.84375 45.5625 
Q 25.390625 42.390625 31.78125 42.390625 
Q 38.140625 42.390625 41.71875 45.5625 
Q 45.3125 48.734375 45.3125 54.390625 
Q 45.3125 60.0625 41.71875 63.234375 
Q 38.140625 66.40625 31.78125 66.40625 
Q 25.390625 66.40625 21.84375 63.234375 
Q 18.3125 60.0625 18.3125 54.390625 
z
" id="DejaVuSans-56"/>
       </defs>
       <use xlink:href="#DejaVuSans-50"/>
       <use x="63.623047" xlink:href="#DejaVuSans-48"/>
       <use x="127.246094" xlink:href="#DejaVuSans-49"/>
       <use x="190.869141" xlink:href="#DejaVuSans-56"/>
      </g>
     </g>
    </g>
    <g id="xtick_5">
     <g id="line2d_9">
      <path clip-path="url(#p8e23c7c765)" d="M 578.117239 418.557187 
L 578.117239 26.877187 
" style="fill:none;stroke:#b0b0b0;stroke-linecap:square;stroke-width:0.8;"/>
     </g>
     <g id="line2d_10">
      <g>
       <use style="stroke:#000000;" x="578.117239" xlink:href="#mf7106571d6" y="418.557187"/>
      </g>
     </g>
     <g id="text_5">
      <!-- 2019 -->
      <g transform="translate(545.804972 455.084803)rotate(-30)scale(0.14 -0.14)">
       <defs>
        <path d="M 10.984375 1.515625 
L 10.984375 10.5 
Q 14.703125 8.734375 18.5 7.8125 
Q 22.3125 6.890625 25.984375 6.890625 
Q 35.75 6.890625 40.890625 13.453125 
Q 46.046875 20.015625 46.78125 33.40625 
Q 43.953125 29.203125 39.59375 26.953125 
Q 35.25 24.703125 29.984375 24.703125 
Q 19.046875 24.703125 12.671875 31.3125 
Q 6.296875 37.9375 6.296875 49.421875 
Q 6.296875 60.640625 12.9375 67.421875 
Q 19.578125 74.21875 30.609375 74.21875 
Q 43.265625 74.21875 49.921875 64.515625 
Q 56.59375 54.828125 56.59375 36.375 
Q 56.59375 19.140625 48.40625 8.859375 
Q 40.234375 -1.421875 26.421875 -1.421875 
Q 22.703125 -1.421875 18.890625 -0.6875 
Q 15.09375 0.046875 10.984375 1.515625 
z
M 30.609375 32.421875 
Q 37.25 32.421875 41.125 36.953125 
Q 45.015625 41.5 45.015625 49.421875 
Q 45.015625 57.28125 41.125 61.84375 
Q 37.25 66.40625 30.609375 66.40625 
Q 23.96875 66.40625 20.09375 61.84375 
Q 16.21875 57.28125 16.21875 49.421875 
Q 16.21875 41.5 20.09375 36.953125 
Q 23.96875 32.421875 30.609375 32.421875 
z
" id="DejaVuSans-57"/>
       </defs>
       <use xlink:href="#DejaVuSans-50"/>
       <use x="63.623047" xlink:href="#DejaVuSans-48"/>
       <use x="127.246094" xlink:href="#DejaVuSans-49"/>
       <use x="190.869141" xlink:href="#DejaVuSans-57"/>
      </g>
     </g>
    </g>
    <g id="xtick_6">
     <g id="line2d_11">
      <path clip-path="url(#p8e23c7c765)" d="M 692.108603 418.557187 
L 692.108603 26.877187 
" style="fill:none;stroke:#b0b0b0;stroke-linecap:square;stroke-width:0.8;"/>
     </g>
     <g id="line2d_12">
      <g>
       <use style="stroke:#000000;" x="692.108603" xlink:href="#mf7106571d6" y="418.557187"/>
      </g>
     </g>
     <g id="text_6">
      <!-- 2020 -->
      <g transform="translate(659.796337 455.084803)rotate(-30)scale(0.14 -0.14)">
       <use xlink:href="#DejaVuSans-50"/>
       <use x="63.623047" xlink:href="#DejaVuSans-48"/>
       <use x="127.246094" xlink:href="#DejaVuSans-50"/>
       <use x="190.869141" xlink:href="#DejaVuSans-48"/>
      </g>
     </g>
    </g>
    <g id="xtick_7">
     <g id="line2d_13">
      <path clip-path="url(#p8e23c7c765)" d="M 806.412273 418.557187 
L 806.412273 26.877187 
" style="fill:none;stroke:#b0b0b0;stroke-linecap:square;stroke-width:0.8;"/>
     </g>
     <g id="line2d_14">
      <g>
       <use style="stroke:#000000;" x="806.412273" xlink:href="#mf7106571d6" y="418.557187"/>
      </g>
     </g>
     <g id="text_7">
      <!-- 2021 -->
      <g transform="translate(774.100007 455.084803)rotate(-30)scale(0.14 -0.14)">
       <use xlink:href="#DejaVuSans-50"/>
       <use x="63.623047" xlink:href="#DejaVuSans-48"/>
       <use x="127.246094" xlink:href="#DejaVuSans-50"/>
       <use x="190.869141" xlink:href="#DejaVuSans-49"/>
      </g>
     </g>
    </g>
    <g id="text_8">
     <!-- time [days] -->
     <g transform="translate(407.765 473.76379)scale(0.16 -0.16)">
      <defs>
       <path d="M 18.3125 70.21875 
L 18.3125 54.6875 
L 36.8125 54.6875 
L 36.8125 47.703125 
L 18.3125 47.703125 
L 18.3125 18.015625 
Q 18.3125 11.328125 20.140625 9.421875 
Q 21.96875 7.515625 27.59375 7.515625 
L 36.8125 7.515625 
L 36.8125 0 
L 27.59375 0 
Q 17.1875 0 13.234375 3.875 
Q 9.28125 7.765625 9.28125 18.015625 
L 9.28125 47.703125 
L 2.6875 47.703125 
L 2.6875 54.6875 
L 9.28125 54.6875 
L 9.28125 70.21875 
z
" id="DejaVuSans-116"/>
       <path d="M 9.421875 54.6875 
L 18.40625 54.6875 
L 18.40625 0 
L 9.421875 0 
z
M 9.421875 75.984375 
L 18.40625 75.984375 
L 18.40625 64.59375 
L 9.421875 64.59375 
z
" id="DejaVuSans-105"/>
       <path d="M 52 44.1875 
Q 55.375 50.25 60.0625 53.125 
Q 64.75 56 71.09375 56 
Q 79.640625 56 84.28125 50.015625 
Q 88.921875 44.046875 88.921875 33.015625 
L 88.921875 0 
L 79.890625 0 
L 79.890625 32.71875 
Q 79.890625 40.578125 77.09375 44.375 
Q 74.3125 48.1875 68.609375 48.1875 
Q 61.625 48.1875 57.5625 43.546875 
Q 53.515625 38.921875 53.515625 30.90625 
L 53.515625 0 
L 44.484375 0 
L 44.484375 32.71875 
Q 44.484375 40.625 41.703125 44.40625 
Q 38.921875 48.1875 33.109375 48.1875 
Q 26.21875 48.1875 22.15625 43.53125 
Q 18.109375 38.875 18.109375 30.90625 
L 18.109375 0 
L 9.078125 0 
L 9.078125 54.6875 
L 18.109375 54.6875 
L 18.109375 46.1875 
Q 21.1875 51.21875 25.484375 53.609375 
Q 29.78125 56 35.6875 56 
Q 41.65625 56 45.828125 52.96875 
Q 50 49.953125 52 44.1875 
z
" id="DejaVuSans-109"/>
       <path d="M 56.203125 29.59375 
L 56.203125 25.203125 
L 14.890625 25.203125 
Q 15.484375 15.921875 20.484375 11.0625 
Q 25.484375 6.203125 34.421875 6.203125 
Q 39.59375 6.203125 44.453125 7.46875 
Q 49.3125 8.734375 54.109375 11.28125 
L 54.109375 2.78125 
Q 49.265625 0.734375 44.1875 -0.34375 
Q 39.109375 -1.421875 33.890625 -1.421875 
Q 20.796875 -1.421875 13.15625 6.1875 
Q 5.515625 13.8125 5.515625 26.8125 
Q 5.515625 40.234375 12.765625 48.109375 
Q 20.015625 56 32.328125 56 
Q 43.359375 56 49.78125 48.890625 
Q 56.203125 41.796875 56.203125 29.59375 
z
M 47.21875 32.234375 
Q 47.125 39.59375 43.09375 43.984375 
Q 39.0625 48.390625 32.421875 48.390625 
Q 24.90625 48.390625 20.390625 44.140625 
Q 15.875 39.890625 15.1875 32.171875 
z
" id="DejaVuSans-101"/>
       <path id="DejaVuSans-32"/>
       <path d="M 8.59375 75.984375 
L 29.296875 75.984375 
L 29.296875 69 
L 17.578125 69 
L 17.578125 -6.203125 
L 29.296875 -6.203125 
L 29.296875 -13.1875 
L 8.59375 -13.1875 
z
" id="DejaVuSans-91"/>
       <path d="M 45.40625 46.390625 
L 45.40625 75.984375 
L 54.390625 75.984375 
L 54.390625 0 
L 45.40625 0 
L 45.40625 8.203125 
Q 42.578125 3.328125 38.25 0.953125 
Q 33.9375 -1.421875 27.875 -1.421875 
Q 17.96875 -1.421875 11.734375 6.484375 
Q 5.515625 14.40625 5.515625 27.296875 
Q 5.515625 40.1875 11.734375 48.09375 
Q 17.96875 56 27.875 56 
Q 33.9375 56 38.25 53.625 
Q 42.578125 51.265625 45.40625 46.390625 
z
M 14.796875 27.296875 
Q 14.796875 17.390625 18.875 11.75 
Q 22.953125 6.109375 30.078125 6.109375 
Q 37.203125 6.109375 41.296875 11.75 
Q 45.40625 17.390625 45.40625 27.296875 
Q 45.40625 37.203125 41.296875 42.84375 
Q 37.203125 48.484375 30.078125 48.484375 
Q 22.953125 48.484375 18.875 42.84375 
Q 14.796875 37.203125 14.796875 27.296875 
z
" id="DejaVuSans-100"/>
       <path d="M 34.28125 27.484375 
Q 23.390625 27.484375 19.1875 25 
Q 14.984375 22.515625 14.984375 16.5 
Q 14.984375 11.71875 18.140625 8.90625 
Q 21.296875 6.109375 26.703125 6.109375 
Q 34.1875 6.109375 38.703125 11.40625 
Q 43.21875 16.703125 43.21875 25.484375 
L 43.21875 27.484375 
z
M 52.203125 31.203125 
L 52.203125 0 
L 43.21875 0 
L 43.21875 8.296875 
Q 40.140625 3.328125 35.546875 0.953125 
Q 30.953125 -1.421875 24.3125 -1.421875 
Q 15.921875 -1.421875 10.953125 3.296875 
Q 6 8.015625 6 15.921875 
Q 6 25.140625 12.171875 29.828125 
Q 18.359375 34.515625 30.609375 34.515625 
L 43.21875 34.515625 
L 43.21875 35.40625 
Q 43.21875 41.609375 39.140625 45 
Q 35.0625 48.390625 27.6875 48.390625 
Q 23 48.390625 18.546875 47.265625 
Q 14.109375 46.140625 10.015625 43.890625 
L 10.015625 52.203125 
Q 14.9375 54.109375 19.578125 55.046875 
Q 24.21875 56 28.609375 56 
Q 40.484375 56 46.34375 49.84375 
Q 52.203125 43.703125 52.203125 31.203125 
z
" id="DejaVuSans-97"/>
       <path d="M 32.171875 -5.078125 
Q 28.375 -14.84375 24.75 -17.8125 
Q 21.140625 -20.796875 15.09375 -20.796875 
L 7.90625 -20.796875 
L 7.90625 -13.28125 
L 13.1875 -13.28125 
Q 16.890625 -13.28125 18.9375 -11.515625 
Q 21 -9.765625 23.484375 -3.21875 
L 25.09375 0.875 
L 2.984375 54.6875 
L 12.5 54.6875 
L 29.59375 11.921875 
L 46.6875 54.6875 
L 56.203125 54.6875 
z
" id="DejaVuSans-121"/>
       <path d="M 44.28125 53.078125 
L 44.28125 44.578125 
Q 40.484375 46.53125 36.375 47.5 
Q 32.28125 48.484375 27.875 48.484375 
Q 21.1875 48.484375 17.84375 46.4375 
Q 14.5 44.390625 14.5 40.28125 
Q 14.5 37.15625 16.890625 35.375 
Q 19.28125 33.59375 26.515625 31.984375 
L 29.59375 31.296875 
Q 39.15625 29.25 43.1875 25.515625 
Q 47.21875 21.78125 47.21875 15.09375 
Q 47.21875 7.46875 41.1875 3.015625 
Q 35.15625 -1.421875 24.609375 -1.421875 
Q 20.21875 -1.421875 15.453125 -0.5625 
Q 10.6875 0.296875 5.421875 2 
L 5.421875 11.28125 
Q 10.40625 8.6875 15.234375 7.390625 
Q 20.0625 6.109375 24.8125 6.109375 
Q 31.15625 6.109375 34.5625 8.28125 
Q 37.984375 10.453125 37.984375 14.40625 
Q 37.984375 18.0625 35.515625 20.015625 
Q 33.0625 21.96875 24.703125 23.78125 
L 21.578125 24.515625 
Q 13.234375 26.265625 9.515625 29.90625 
Q 5.8125 33.546875 5.8125 39.890625 
Q 5.8125 47.609375 11.28125 51.796875 
Q 16.75 56 26.8125 56 
Q 31.78125 56 36.171875 55.265625 
Q 40.578125 54.546875 44.28125 53.078125 
z
" id="DejaVuSans-115"/>
       <path d="M 30.421875 75.984375 
L 30.421875 -13.1875 
L 9.71875 -13.1875 
L 9.71875 -6.203125 
L 21.390625 -6.203125 
L 21.390625 69 
L 9.71875 69 
L 9.71875 75.984375 
z
" id="DejaVuSans-93"/>
      </defs>
      <use xlink:href="#DejaVuSans-116"/>
      <use x="39.208984" xlink:href="#DejaVuSans-105"/>
      <use x="66.992188" xlink:href="#DejaVuSans-109"/>
      <use x="164.404297" xlink:href="#DejaVuSans-101"/>
      <use x="225.927734" xlink:href="#DejaVuSans-32"/>
      <use x="257.714844" xlink:href="#DejaVuSans-91"/>
      <use x="296.728516" xlink:href="#DejaVuSans-100"/>
      <use x="360.205078" xlink:href="#DejaVuSans-97"/>
      <use x="421.484375" xlink:href="#DejaVuSans-121"/>
      <use x="480.664062" xlink:href="#DejaVuSans-115"/>
      <use x="532.763672" xlink:href="#DejaVuSans-93"/>
     </g>
    </g>
   </g>
   <g id="matplotlib.axis_2">
    <g id="ytick_1">
     <g id="line2d_15">
      <path clip-path="url(#p8e23c7c765)" d="M 62.9075 363.539565 
L 844.1075 363.539565 
" style="fill:none;stroke:#b0b0b0;stroke-linecap:square;stroke-width:0.8;"/>
     </g>
     <g id="line2d_16">
      <defs>
       <path d="M 0 0 
L -6 0 
" id="m9c8edf84b8" style="stroke:#000000;"/>
      </defs>
      <g>
       <use style="stroke:#000000;" x="62.9075" xlink:href="#m9c8edf84b8" y="363.539565"/>
      </g>
     </g>
     <g id="text_9">
      <!-- 0 -->
      <g transform="translate(44.5 368.858471)scale(0.14 -0.14)">
       <use xlink:href="#DejaVuSans-48"/>
      </g>
     </g>
    </g>
    <g id="ytick_2">
     <g id="line2d_17">
      <path clip-path="url(#p8e23c7c765)" d="M 62.9075 303.508626 
L 844.1075 303.508626 
" style="fill:none;stroke:#b0b0b0;stroke-linecap:square;stroke-width:0.8;"/>
     </g>
     <g id="line2d_18">
      <g>
       <use style="stroke:#000000;" x="62.9075" xlink:href="#m9c8edf84b8" y="303.508626"/>
      </g>
     </g>
     <g id="text_10">
      <!-- 50 -->
      <g transform="translate(35.5925 308.827533)scale(0.14 -0.14)">
       <use xlink:href="#DejaVuSans-53"/>
       <use x="63.623047" xlink:href="#DejaVuSans-48"/>
      </g>
     </g>
    </g>
    <g id="ytick_3">
     <g id="line2d_19">
      <path clip-path="url(#p8e23c7c765)" d="M 62.9075 243.477688 
L 844.1075 243.477688 
" style="fill:none;stroke:#b0b0b0;stroke-linecap:square;stroke-width:0.8;"/>
     </g>
     <g id="line2d_20">
      <g>
       <use style="stroke:#000000;" x="62.9075" xlink:href="#m9c8edf84b8" y="243.477688"/>
      </g>
     </g>
     <g id="text_11">
      <!-- 100 -->
      <g transform="translate(26.685 248.796594)scale(0.14 -0.14)">
       <use xlink:href="#DejaVuSans-49"/>
       <use x="63.623047" xlink:href="#DejaVuSans-48"/>
       <use x="127.246094" xlink:href="#DejaVuSans-48"/>
      </g>
     </g>
    </g>
    <g id="ytick_4">
     <g id="line2d_21">
      <path clip-path="url(#p8e23c7c765)" d="M 62.9075 183.446749 
L 844.1075 183.446749 
" style="fill:none;stroke:#b0b0b0;stroke-linecap:square;stroke-width:0.8;"/>
     </g>
     <g id="line2d_22">
      <g>
       <use style="stroke:#000000;" x="62.9075" xlink:href="#m9c8edf84b8" y="183.446749"/>
      </g>
     </g>
     <g id="text_12">
      <!-- 150 -->
      <g transform="translate(26.685 188.765656)scale(0.14 -0.14)">
       <use xlink:href="#DejaVuSans-49"/>
       <use x="63.623047" xlink:href="#DejaVuSans-53"/>
       <use x="127.246094" xlink:href="#DejaVuSans-48"/>
      </g>
     </g>
    </g>
    <g id="ytick_5">
     <g id="line2d_23">
      <path clip-path="url(#p8e23c7c765)" d="M 62.9075 123.415811 
L 844.1075 123.415811 
" style="fill:none;stroke:#b0b0b0;stroke-linecap:square;stroke-width:0.8;"/>
     </g>
     <g id="line2d_24">
      <g>
       <use style="stroke:#000000;" x="62.9075" xlink:href="#m9c8edf84b8" y="123.415811"/>
      </g>
     </g>
     <g id="text_13">
      <!-- 200 -->
      <g transform="translate(26.685 128.734717)scale(0.14 -0.14)">
       <use xlink:href="#DejaVuSans-50"/>
       <use x="63.623047" xlink:href="#DejaVuSans-48"/>
       <use x="127.246094" xlink:href="#DejaVuSans-48"/>
      </g>
     </g>
    </g>
    <g id="ytick_6">
     <g id="line2d_25">
      <path clip-path="url(#p8e23c7c765)" d="M 62.9075 63.384873 
L 844.1075 63.384873 
" style="fill:none;stroke:#b0b0b0;stroke-linecap:square;stroke-width:0.8;"/>
     </g>
     <g id="line2d_26">
      <g>
       <use style="stroke:#000000;" x="62.9075" xlink:href="#m9c8edf84b8" y="63.384873"/>
      </g>
     </g>
     <g id="text_14">
      <!-- 250 -->
      <g transform="translate(26.685 68.703779)scale(0.14 -0.14)">
       <use xlink:href="#DejaVuSans-50"/>
       <use x="63.623047" xlink:href="#DejaVuSans-53"/>
       <use x="127.246094" xlink:href="#DejaVuSans-48"/>
      </g>
     </g>
    </g>
    <g id="text_15">
     <!-- deformation [mm] -->
     <g transform="translate(19.3575 295.967187)rotate(-90)scale(0.16 -0.16)">
      <defs>
       <path d="M 37.109375 75.984375 
L 37.109375 68.5 
L 28.515625 68.5 
Q 23.6875 68.5 21.796875 66.546875 
Q 19.921875 64.59375 19.921875 59.515625 
L 19.921875 54.6875 
L 34.71875 54.6875 
L 34.71875 47.703125 
L 19.921875 47.703125 
L 19.921875 0 
L 10.890625 0 
L 10.890625 47.703125 
L 2.296875 47.703125 
L 2.296875 54.6875 
L 10.890625 54.6875 
L 10.890625 58.5 
Q 10.890625 67.625 15.140625 71.796875 
Q 19.390625 75.984375 28.609375 75.984375 
z
" id="DejaVuSans-102"/>
       <path d="M 30.609375 48.390625 
Q 23.390625 48.390625 19.1875 42.75 
Q 14.984375 37.109375 14.984375 27.296875 
Q 14.984375 17.484375 19.15625 11.84375 
Q 23.34375 6.203125 30.609375 6.203125 
Q 37.796875 6.203125 41.984375 11.859375 
Q 46.1875 17.53125 46.1875 27.296875 
Q 46.1875 37.015625 41.984375 42.703125 
Q 37.796875 48.390625 30.609375 48.390625 
z
M 30.609375 56 
Q 42.328125 56 49.015625 48.375 
Q 55.71875 40.765625 55.71875 27.296875 
Q 55.71875 13.875 49.015625 6.21875 
Q 42.328125 -1.421875 30.609375 -1.421875 
Q 18.84375 -1.421875 12.171875 6.21875 
Q 5.515625 13.875 5.515625 27.296875 
Q 5.515625 40.765625 12.171875 48.375 
Q 18.84375 56 30.609375 56 
z
" id="DejaVuSans-111"/>
       <path d="M 41.109375 46.296875 
Q 39.59375 47.171875 37.8125 47.578125 
Q 36.03125 48 33.890625 48 
Q 26.265625 48 22.1875 43.046875 
Q 18.109375 38.09375 18.109375 28.8125 
L 18.109375 0 
L 9.078125 0 
L 9.078125 54.6875 
L 18.109375 54.6875 
L 18.109375 46.1875 
Q 20.953125 51.171875 25.484375 53.578125 
Q 30.03125 56 36.53125 56 
Q 37.453125 56 38.578125 55.875 
Q 39.703125 55.765625 41.0625 55.515625 
z
" id="DejaVuSans-114"/>
       <path d="M 54.890625 33.015625 
L 54.890625 0 
L 45.90625 0 
L 45.90625 32.71875 
Q 45.90625 40.484375 42.875 44.328125 
Q 39.84375 48.1875 33.796875 48.1875 
Q 26.515625 48.1875 22.3125 43.546875 
Q 18.109375 38.921875 18.109375 30.90625 
L 18.109375 0 
L 9.078125 0 
L 9.078125 54.6875 
L 18.109375 54.6875 
L 18.109375 46.1875 
Q 21.34375 51.125 25.703125 53.5625 
Q 30.078125 56 35.796875 56 
Q 45.21875 56 50.046875 50.171875 
Q 54.890625 44.34375 54.890625 33.015625 
z
" id="DejaVuSans-110"/>
      </defs>
      <use xlink:href="#DejaVuSans-100"/>
      <use x="63.476562" xlink:href="#DejaVuSans-101"/>
      <use x="125" xlink:href="#DejaVuSans-102"/>
      <use x="160.205078" xlink:href="#DejaVuSans-111"/>
      <use x="221.386719" xlink:href="#DejaVuSans-114"/>
      <use x="260.75" xlink:href="#DejaVuSans-109"/>
      <use x="358.162109" xlink:href="#DejaVuSans-97"/>
      <use x="419.441406" xlink:href="#DejaVuSans-116"/>
      <use x="458.650391" xlink:href="#DejaVuSans-105"/>
      <use x="486.433594" xlink:href="#DejaVuSans-111"/>
      <use x="547.615234" xlink:href="#DejaVuSans-110"/>
      <use x="610.994141" xlink:href="#DejaVuSans-32"/>
      <use x="642.78125" xlink:href="#DejaVuSans-91"/>
      <use x="681.794922" xlink:href="#DejaVuSans-109"/>
      <use x="779.207031" xlink:href="#DejaVuSans-109"/>
      <use x="876.619141" xlink:href="#DejaVuSans-93"/>
     </g>
    </g>
   </g>
   <g id="line2d_27">
    <path clip-path="url(#p8e23c7c765)" d="M 98.416591 370.511704 
L 105.911914 367.238999 
L 113.407236 363.966293 
L 120.902559 360.693588 
L 128.397881 357.420883 
L 135.893204 354.148178 
L 139.640865 352.511826 
L 147.136188 349.23912 
L 177.117478 336.1483 
L 184.612801 332.875595 
L 192.108124 329.60289 
L 199.603446 326.330185 
L 229.584737 313.239364 
L 237.080059 309.966659 
L 259.566027 300.148543 
L 267.06135 296.875838 
L 274.556672 293.603133 
L 282.051995 290.330428 
L 297.04264 283.785018 
L 304.537963 280.512313 
L 312.033286 277.239608 
L 321.402439 273.148726 
L 328.897761 269.876021 
L 336.393084 266.603316 
L 343.888407 263.330611 
L 351.383729 260.057906 
L 358.879052 256.785201 
L 366.374375 253.512495 
L 370.122036 251.876143 
L 373.869697 250.23979 
L 377.617358 248.603438 
L 381.36502 246.967085 
L 385.112681 245.330733 
L 388.860342 243.69438 
L 392.608004 242.058027 
L 396.355665 240.421675 
L 400.103326 238.785322 
L 403.850988 237.14897 
L 407.598649 235.512617 
L 411.34631 233.876265 
L 415.093972 232.239912 
L 418.841633 230.60356 
L 508.785504 191.331098 
L 512.533166 189.694745 
L 516.280827 188.058393 
L 527.523811 183.149335 
L 535.019133 179.87663 
L 538.766795 178.240278 
L 542.514456 176.603925 
L 546.262117 174.967572 
L 561.252763 168.422162 
L 565.000424 166.78581 
L 572.495747 163.513104 
L 576.243408 161.876752 
L 579.991069 160.240399 
L 583.738731 158.604047 
L 587.486392 156.967694 
L 591.234053 155.331342 
L 594.981714 153.694989 
L 598.729376 152.058636 
L 602.477037 150.422284 
L 606.224698 148.785931 
L 609.97236 147.149579 
L 613.720021 145.513226 
L 617.467682 143.876874 
L 621.215344 142.240521 
L 624.963005 140.604169 
L 628.710666 138.967816 
L 632.458328 137.331463 
L 636.205989 135.695111 
L 639.95365 134.058758 
L 643.701311 132.422406 
L 647.448973 130.786053 
L 651.196634 129.149701 
L 654.944295 127.513348 
L 658.691957 125.876995 
L 662.439618 124.240643 
L 666.187279 122.60429 
L 669.934941 120.967938 
L 673.682602 119.331585 
L 677.430263 117.695233 
L 681.177925 116.05888 
L 684.925586 114.422528 
L 688.673247 112.786175 
L 692.420908 111.149822 
L 696.16857 109.51347 
L 699.916231 107.877117 
L 703.663892 106.240765 
L 707.411554 104.604412 
L 711.159215 102.96806 
L 714.906876 101.331707 
L 718.654538 99.695354 
L 722.402199 98.059002 
L 726.14986 96.422649 
L 729.897522 94.786297 
L 733.645183 93.149944 
L 737.392844 91.513592 
L 741.140506 89.877239 
L 744.888167 88.240887 
L 748.635828 86.604534 
L 752.383489 84.968181 
L 756.131151 83.331829 
L 759.878812 81.695476 
L 793.607764 66.968303 
L 797.355425 65.331951 
L 801.103086 63.695598 
L 804.850748 62.059245 
L 808.598409 60.422893 
" style="fill:none;stroke:#1f77b4;stroke-linecap:square;stroke-width:1.5;"/>
   </g>
   <g id="line2d_28">
    <path clip-path="url(#p8e23c7c765)" d="M 98.416591 355.752319 
L 105.911914 335.12611 
L 113.407236 355.963262 
L 120.902559 329.843495 
L 128.397881 354.443152 
L 135.893204 313.190594 
L 139.640865 333.646617 
L 147.136188 318.098019 
L 177.117478 319.612144 
L 184.612801 311.263688 
L 192.108124 318.329589 
L 199.603446 322.091282 
L 229.584737 310.918159 
L 237.080059 316.615694 
L 259.566027 297.913766 
L 267.06135 300.087817 
L 274.556672 308.186713 
L 282.051995 291.001199 
L 297.04264 295.920615 
L 304.537963 282.157284 
L 312.033286 291.604188 
L 321.402439 293.511518 
L 328.897761 266.637341 
L 336.393084 283.81964 
L 343.888407 280.263648 
L 351.383729 260.495308 
L 358.879052 275.750748 
L 366.374375 274.809082 
L 370.122036 280.345547 
L 373.869697 254.768233 
L 377.617358 276.15648 
L 381.36502 264.296935 
L 385.112681 245.120963 
L 388.860342 260.333341 
L 392.608004 238.811898 
L 396.355665 237.143708 
L 400.103326 237.863527 
L 403.850988 242.196626 
L 407.598649 239.889013 
L 411.34631 225.13784 
L 415.093972 228.167985 
L 418.841633 243.701512 
L 508.785504 192.25205 
L 512.533166 180.715496 
L 516.280827 183.387429 
L 527.523811 195.617744 
L 535.019133 202.520551 
L 538.766795 190.853704 
L 542.514456 192.905469 
L 546.262117 173.865872 
L 561.252763 199.654114 
L 565.000424 181.868849 
L 572.495747 175.422704 
L 576.243408 174.863212 
L 579.991069 183.18798 
L 583.738731 164.742554 
L 587.486392 166.003134 
L 591.234053 165.542899 
L 594.981714 190.908975 
L 598.729376 164.030383 
L 602.477037 176.08772 
L 606.224698 154.719743 
L 609.97236 154.704611 
L 613.720021 174.27743 
L 617.467682 157.302422 
L 621.215344 143.049709 
L 624.963005 133.354313 
L 628.710666 145.179628 
L 632.458328 133.149734 
L 636.205989 145.878022 
L 639.95365 140.55733 
L 643.701311 130.09614 
L 647.448973 131.299488 
L 651.196634 130.145659 
L 654.944295 120.757764 
L 658.691957 118.04276 
L 662.439618 124.860489 
L 666.187279 131.194991 
L 669.934941 114.333823 
L 673.682602 126.593798 
L 677.430263 119.32122 
L 681.177925 118.05465 
L 684.925586 103.403202 
L 688.673247 109.416207 
L 692.420908 107.656059 
L 696.16857 119.967 
L 699.916231 105.03729 
L 703.663892 97.22845 
L 707.411554 94.791965 
L 711.159215 89.277428 
L 714.906876 86.817109 
L 718.654538 92.853857 
L 722.402199 89.880284 
L 726.14986 83.749482 
L 729.897522 79.340593 
L 733.645183 78.46237 
L 737.392844 65.209947 
L 741.140506 66.450869 
L 744.888167 53.812239 
L 748.635828 44.680824 
L 752.383489 58.824936 
L 756.131151 60.319957 
L 759.878812 57.146495 
L 793.607764 62.586378 
L 797.355425 61.152637 
L 801.103086 66.663967 
L 804.850748 66.81159 
L 808.598409 61.655099 
" style="fill:none;stroke:#ff7f0e;stroke-linecap:square;"/>
    <defs>
     <path d="M 0 3 
C 0.795609 3 1.55874 2.683901 2.12132 2.12132 
C 2.683901 1.55874 3 0.795609 3 0 
C 3 -0.795609 2.683901 -1.55874 2.12132 -2.12132 
C 1.55874 -2.683901 0.795609 -3 0 -3 
C -0.795609 -3 -1.55874 -2.683901 -2.12132 -2.12132 
C -2.683901 -1.55874 -3 -0.795609 -3 0 
C -3 0.795609 -2.683901 1.55874 -2.12132 2.12132 
C -1.55874 2.683901 -0.795609 3 0 3 
z
" id="m48df1daef2" style="stroke:#ff7f0e;"/>
    </defs>
    <g clip-path="url(#p8e23c7c765)">
     <use style="fill:#ffffff;stroke:#ff7f0e;" x="98.416591" xlink:href="#m48df1daef2" y="355.752319"/>
     <use style="fill:#ffffff;stroke:#ff7f0e;" x="105.911914" xlink:href="#m48df1daef2" y="335.12611"/>
     <use style="fill:#ffffff;stroke:#ff7f0e;" x="113.407236" xlink:href="#m48df1daef2" y="355.963262"/>
     <use style="fill:#ffffff;stroke:#ff7f0e;" x="120.902559" xlink:href="#m48df1daef2" y="329.843495"/>
     <use style="fill:#ffffff;stroke:#ff7f0e;" x="128.397881" xlink:href="#m48df1daef2" y="354.443152"/>
     <use style="fill:#ffffff;stroke:#ff7f0e;" x="135.893204" xlink:href="#m48df1daef2" y="313.190594"/>
     <use style="fill:#ffffff;stroke:#ff7f0e;" x="139.640865" xlink:href="#m48df1daef2" y="333.646617"/>
     <use style="fill:#ffffff;stroke:#ff7f0e;" x="147.136188" xlink:href="#m48df1daef2" y="318.098019"/>
     <use style="fill:#ffffff;stroke:#ff7f0e;" x="177.117478" xlink:href="#m48df1daef2" y="319.612144"/>
     <use style="fill:#ffffff;stroke:#ff7f0e;" x="184.612801" xlink:href="#m48df1daef2" y="311.263688"/>
     <use style="fill:#ffffff;stroke:#ff7f0e;" x="192.108124" xlink:href="#m48df1daef2" y="318.329589"/>
     <use style="fill:#ffffff;stroke:#ff7f0e;" x="199.603446" xlink:href="#m48df1daef2" y="322.091282"/>
     <use style="fill:#ffffff;stroke:#ff7f0e;" x="229.584737" xlink:href="#m48df1daef2" y="310.918159"/>
     <use style="fill:#ffffff;stroke:#ff7f0e;" x="237.080059" xlink:href="#m48df1daef2" y="316.615694"/>
     <use style="fill:#ffffff;stroke:#ff7f0e;" x="259.566027" xlink:href="#m48df1daef2" y="297.913766"/>
     <use style="fill:#ffffff;stroke:#ff7f0e;" x="267.06135" xlink:href="#m48df1daef2" y="300.087817"/>
     <use style="fill:#ffffff;stroke:#ff7f0e;" x="274.556672" xlink:href="#m48df1daef2" y="308.186713"/>
     <use style="fill:#ffffff;stroke:#ff7f0e;" x="282.051995" xlink:href="#m48df1daef2" y="291.001199"/>
     <use style="fill:#ffffff;stroke:#ff7f0e;" x="297.04264" xlink:href="#m48df1daef2" y="295.920615"/>
     <use style="fill:#ffffff;stroke:#ff7f0e;" x="304.537963" xlink:href="#m48df1daef2" y="282.157284"/>
     <use style="fill:#ffffff;stroke:#ff7f0e;" x="312.033286" xlink:href="#m48df1daef2" y="291.604188"/>
     <use style="fill:#ffffff;stroke:#ff7f0e;" x="321.402439" xlink:href="#m48df1daef2" y="293.511518"/>
     <use style="fill:#ffffff;stroke:#ff7f0e;" x="328.897761" xlink:href="#m48df1daef2" y="266.637341"/>
     <use style="fill:#ffffff;stroke:#ff7f0e;" x="336.393084" xlink:href="#m48df1daef2" y="283.81964"/>
     <use style="fill:#ffffff;stroke:#ff7f0e;" x="343.888407" xlink:href="#m48df1daef2" y="280.263648"/>
     <use style="fill:#ffffff;stroke:#ff7f0e;" x="351.383729" xlink:href="#m48df1daef2" y="260.495308"/>
     <use style="fill:#ffffff;stroke:#ff7f0e;" x="358.879052" xlink:href="#m48df1daef2" y="275.750748"/>
     <use style="fill:#ffffff;stroke:#ff7f0e;" x="366.374375" xlink:href="#m48df1daef2" y="274.809082"/>
     <use style="fill:#ffffff;stroke:#ff7f0e;" x="370.122036" xlink:href="#m48df1daef2" y="280.345547"/>
     <use style="fill:#ffffff;stroke:#ff7f0e;" x="373.869697" xlink:href="#m48df1daef2" y="254.768233"/>
     <use style="fill:#ffffff;stroke:#ff7f0e;" x="377.617358" xlink:href="#m48df1daef2" y="276.15648"/>
     <use style="fill:#ffffff;stroke:#ff7f0e;" x="381.36502" xlink:href="#m48df1daef2" y="264.296935"/>
     <use style="fill:#ffffff;stroke:#ff7f0e;" x="385.112681" xlink:href="#m48df1daef2" y="245.120963"/>
     <use style="fill:#ffffff;stroke:#ff7f0e;" x="388.860342" xlink:href="#m48df1daef2" y="260.333341"/>
     <use style="fill:#ffffff;stroke:#ff7f0e;" x="392.608004" xlink:href="#m48df1daef2" y="238.811898"/>
     <use style="fill:#ffffff;stroke:#ff7f0e;" x="396.355665" xlink:href="#m48df1daef2" y="237.143708"/>
     <use style="fill:#ffffff;stroke:#ff7f0e;" x="400.103326" xlink:href="#m48df1daef2" y="237.863527"/>
     <use style="fill:#ffffff;stroke:#ff7f0e;" x="403.850988" xlink:href="#m48df1daef2" y="242.196626"/>
     <use style="fill:#ffffff;stroke:#ff7f0e;" x="407.598649" xlink:href="#m48df1daef2" y="239.889013"/>
     <use style="fill:#ffffff;stroke:#ff7f0e;" x="411.34631" xlink:href="#m48df1daef2" y="225.13784"/>
     <use style="fill:#ffffff;stroke:#ff7f0e;" x="415.093972" xlink:href="#m48df1daef2" y="228.167985"/>
     <use style="fill:#ffffff;stroke:#ff7f0e;" x="418.841633" xlink:href="#m48df1daef2" y="243.701512"/>
     <use style="fill:#ffffff;stroke:#ff7f0e;" x="508.785504" xlink:href="#m48df1daef2" y="192.25205"/>
     <use style="fill:#ffffff;stroke:#ff7f0e;" x="512.533166" xlink:href="#m48df1daef2" y="180.715496"/>
     <use style="fill:#ffffff;stroke:#ff7f0e;" x="516.280827" xlink:href="#m48df1daef2" y="183.387429"/>
     <use style="fill:#ffffff;stroke:#ff7f0e;" x="527.523811" xlink:href="#m48df1daef2" y="195.617744"/>
     <use style="fill:#ffffff;stroke:#ff7f0e;" x="535.019133" xlink:href="#m48df1daef2" y="202.520551"/>
     <use style="fill:#ffffff;stroke:#ff7f0e;" x="538.766795" xlink:href="#m48df1daef2" y="190.853704"/>
     <use style="fill:#ffffff;stroke:#ff7f0e;" x="542.514456" xlink:href="#m48df1daef2" y="192.905469"/>
     <use style="fill:#ffffff;stroke:#ff7f0e;" x="546.262117" xlink:href="#m48df1daef2" y="173.865872"/>
     <use style="fill:#ffffff;stroke:#ff7f0e;" x="561.252763" xlink:href="#m48df1daef2" y="199.654114"/>
     <use style="fill:#ffffff;stroke:#ff7f0e;" x="565.000424" xlink:href="#m48df1daef2" y="181.868849"/>
     <use style="fill:#ffffff;stroke:#ff7f0e;" x="572.495747" xlink:href="#m48df1daef2" y="175.422704"/>
     <use style="fill:#ffffff;stroke:#ff7f0e;" x="576.243408" xlink:href="#m48df1daef2" y="174.863212"/>
     <use style="fill:#ffffff;stroke:#ff7f0e;" x="579.991069" xlink:href="#m48df1daef2" y="183.18798"/>
     <use style="fill:#ffffff;stroke:#ff7f0e;" x="583.738731" xlink:href="#m48df1daef2" y="164.742554"/>
     <use style="fill:#ffffff;stroke:#ff7f0e;" x="587.486392" xlink:href="#m48df1daef2" y="166.003134"/>
     <use style="fill:#ffffff;stroke:#ff7f0e;" x="591.234053" xlink:href="#m48df1daef2" y="165.542899"/>
     <use style="fill:#ffffff;stroke:#ff7f0e;" x="594.981714" xlink:href="#m48df1daef2" y="190.908975"/>
     <use style="fill:#ffffff;stroke:#ff7f0e;" x="598.729376" xlink:href="#m48df1daef2" y="164.030383"/>
     <use style="fill:#ffffff;stroke:#ff7f0e;" x="602.477037" xlink:href="#m48df1daef2" y="176.08772"/>
     <use style="fill:#ffffff;stroke:#ff7f0e;" x="606.224698" xlink:href="#m48df1daef2" y="154.719743"/>
     <use style="fill:#ffffff;stroke:#ff7f0e;" x="609.97236" xlink:href="#m48df1daef2" y="154.704611"/>
     <use style="fill:#ffffff;stroke:#ff7f0e;" x="613.720021" xlink:href="#m48df1daef2" y="174.27743"/>
     <use style="fill:#ffffff;stroke:#ff7f0e;" x="617.467682" xlink:href="#m48df1daef2" y="157.302422"/>
     <use style="fill:#ffffff;stroke:#ff7f0e;" x="621.215344" xlink:href="#m48df1daef2" y="143.049709"/>
     <use style="fill:#ffffff;stroke:#ff7f0e;" x="624.963005" xlink:href="#m48df1daef2" y="133.354313"/>
     <use style="fill:#ffffff;stroke:#ff7f0e;" x="628.710666" xlink:href="#m48df1daef2" y="145.179628"/>
     <use style="fill:#ffffff;stroke:#ff7f0e;" x="632.458328" xlink:href="#m48df1daef2" y="133.149734"/>
     <use style="fill:#ffffff;stroke:#ff7f0e;" x="636.205989" xlink:href="#m48df1daef2" y="145.878022"/>
     <use style="fill:#ffffff;stroke:#ff7f0e;" x="639.95365" xlink:href="#m48df1daef2" y="140.55733"/>
     <use style="fill:#ffffff;stroke:#ff7f0e;" x="643.701311" xlink:href="#m48df1daef2" y="130.09614"/>
     <use style="fill:#ffffff;stroke:#ff7f0e;" x="647.448973" xlink:href="#m48df1daef2" y="131.299488"/>
     <use style="fill:#ffffff;stroke:#ff7f0e;" x="651.196634" xlink:href="#m48df1daef2" y="130.145659"/>
     <use style="fill:#ffffff;stroke:#ff7f0e;" x="654.944295" xlink:href="#m48df1daef2" y="120.757764"/>
     <use style="fill:#ffffff;stroke:#ff7f0e;" x="658.691957" xlink:href="#m48df1daef2" y="118.04276"/>
     <use style="fill:#ffffff;stroke:#ff7f0e;" x="662.439618" xlink:href="#m48df1daef2" y="124.860489"/>
     <use style="fill:#ffffff;stroke:#ff7f0e;" x="666.187279" xlink:href="#m48df1daef2" y="131.194991"/>
     <use style="fill:#ffffff;stroke:#ff7f0e;" x="669.934941" xlink:href="#m48df1daef2" y="114.333823"/>
     <use style="fill:#ffffff;stroke:#ff7f0e;" x="673.682602" xlink:href="#m48df1daef2" y="126.593798"/>
     <use style="fill:#ffffff;stroke:#ff7f0e;" x="677.430263" xlink:href="#m48df1daef2" y="119.32122"/>
     <use style="fill:#ffffff;stroke:#ff7f0e;" x="681.177925" xlink:href="#m48df1daef2" y="118.05465"/>
     <use style="fill:#ffffff;stroke:#ff7f0e;" x="684.925586" xlink:href="#m48df1daef2" y="103.403202"/>
     <use style="fill:#ffffff;stroke:#ff7f0e;" x="688.673247" xlink:href="#m48df1daef2" y="109.416207"/>
     <use style="fill:#ffffff;stroke:#ff7f0e;" x="692.420908" xlink:href="#m48df1daef2" y="107.656059"/>
     <use style="fill:#ffffff;stroke:#ff7f0e;" x="696.16857" xlink:href="#m48df1daef2" y="119.967"/>
     <use style="fill:#ffffff;stroke:#ff7f0e;" x="699.916231" xlink:href="#m48df1daef2" y="105.03729"/>
     <use style="fill:#ffffff;stroke:#ff7f0e;" x="703.663892" xlink:href="#m48df1daef2" y="97.22845"/>
     <use style="fill:#ffffff;stroke:#ff7f0e;" x="707.411554" xlink:href="#m48df1daef2" y="94.791965"/>
     <use style="fill:#ffffff;stroke:#ff7f0e;" x="711.159215" xlink:href="#m48df1daef2" y="89.277428"/>
     <use style="fill:#ffffff;stroke:#ff7f0e;" x="714.906876" xlink:href="#m48df1daef2" y="86.817109"/>
     <use style="fill:#ffffff;stroke:#ff7f0e;" x="718.654538" xlink:href="#m48df1daef2" y="92.853857"/>
     <use style="fill:#ffffff;stroke:#ff7f0e;" x="722.402199" xlink:href="#m48df1daef2" y="89.880284"/>
     <use style="fill:#ffffff;stroke:#ff7f0e;" x="726.14986" xlink:href="#m48df1daef2" y="83.749482"/>
     <use style="fill:#ffffff;stroke:#ff7f0e;" x="729.897522" xlink:href="#m48df1daef2" y="79.340593"/>
     <use style="fill:#ffffff;stroke:#ff7f0e;" x="733.645183" xlink:href="#m48df1daef2" y="78.46237"/>
     <use style="fill:#ffffff;stroke:#ff7f0e;" x="737.392844" xlink:href="#m48df1daef2" y="65.209947"/>
     <use style="fill:#ffffff;stroke:#ff7f0e;" x="741.140506" xlink:href="#m48df1daef2" y="66.450869"/>
     <use style="fill:#ffffff;stroke:#ff7f0e;" x="744.888167" xlink:href="#m48df1daef2" y="53.812239"/>
     <use style="fill:#ffffff;stroke:#ff7f0e;" x="748.635828" xlink:href="#m48df1daef2" y="44.680824"/>
     <use style="fill:#ffffff;stroke:#ff7f0e;" x="752.383489" xlink:href="#m48df1daef2" y="58.824936"/>
     <use style="fill:#ffffff;stroke:#ff7f0e;" x="756.131151" xlink:href="#m48df1daef2" y="60.319957"/>
     <use style="fill:#ffffff;stroke:#ff7f0e;" x="759.878812" xlink:href="#m48df1daef2" y="57.146495"/>
     <use style="fill:#ffffff;stroke:#ff7f0e;" x="793.607764" xlink:href="#m48df1daef2" y="62.586378"/>
     <use style="fill:#ffffff;stroke:#ff7f0e;" x="797.355425" xlink:href="#m48df1daef2" y="61.152637"/>
     <use style="fill:#ffffff;stroke:#ff7f0e;" x="801.103086" xlink:href="#m48df1daef2" y="66.663967"/>
     <use style="fill:#ffffff;stroke:#ff7f0e;" x="804.850748" xlink:href="#m48df1daef2" y="66.81159"/>
     <use style="fill:#ffffff;stroke:#ff7f0e;" x="808.598409" xlink:href="#m48df1daef2" y="61.655099"/>
    </g>
   </g>
   <g id="line2d_29">
    <path clip-path="url(#p8e23c7c765)" d="M 98.416591 342.913355 
L 105.911914 384.376717 
L 113.407236 337.419798 
L 120.902559 388.139222 
L 128.397881 322.287008 
L 135.893204 383.995588 
L 139.640865 347.990967 
L 147.136188 365.053689 
L 177.117478 355.191109 
L 184.612801 370.605465 
L 192.108124 367.301258 
L 199.603446 352.366442 
L 229.584737 369.237099 
L 237.080059 344.837637 
L 259.566027 365.713616 
L 267.06135 371.638461 
L 274.556672 346.354051 
L 282.051995 368.458981 
L 297.04264 349.776234 
L 304.537963 372.986468 
L 312.033286 365.446895 
L 321.402439 336.665387 
L 328.897761 380.721864 
L 336.393084 359.983573 
L 343.888407 343.771225 
L 351.383729 378.795004 
L 358.879052 362.597899 
L 366.374375 369.07603 
L 370.122036 337.96225 
L 373.869697 384.927812 
L 377.617358 351.680019 
L 381.36502 344.363593 
L 385.112681 378.751943 
L 388.860342 342.018122 
L 392.608004 361.871374 
L 396.355665 364.259385 
L 400.103326 367.872663 
L 403.850988 361.231952 
L 407.598649 348.788392 
L 411.34631 366.569709 
L 415.093972 379.073092 
L 418.841633 312.090103 
L 508.785504 352.00301 
L 512.533166 366.211498 
L 516.280827 375.769879 
L 527.523811 370.442372 
L 535.019133 351.872718 
L 538.766795 365.59133 
L 542.514456 344.499967 
L 546.262117 389.327807 
L 561.252763 345.7543 
L 565.000424 357.09342 
L 572.495747 362.980072 
L 576.243408 371.864332 
L 579.991069 345.094139 
L 583.738731 364.800145 
L 587.486392 363.07933 
L 591.234053 388.905641 
L 594.981714 336.660972 
L 598.729376 375.596902 
L 602.477037 342.171588 
L 606.224698 363.524432 
L 609.97236 383.112384 
L 613.720021 346.564556 
L 617.467682 349.286852 
L 621.215344 353.844169 
L 624.963005 375.364879 
L 628.710666 351.509671 
L 632.458328 376.267853 
L 636.205989 358.218872 
L 639.95365 353.078375 
L 643.701311 364.742913 
L 647.448973 362.385735 
L 651.196634 354.15167 
L 654.944295 360.824561 
L 658.691957 370.357294 
L 662.439618 369.874067 
L 666.187279 346.678397 
L 669.934941 375.799539 
L 673.682602 356.266987 
L 677.430263 362.272994 
L 681.177925 348.888117 
L 684.925586 369.55257 
L 688.673247 361.779417 
L 692.420908 375.850505 
L 696.16857 348.609855 
L 699.916231 355.730725 
L 703.663892 361.10308 
L 707.411554 358.025028 
L 711.159215 361.079245 
L 714.906876 369.576312 
L 718.654538 360.565992 
L 722.402199 357.408762 
L 726.14986 359.130676 
L 729.897522 362.661341 
L 733.645183 350.287142 
L 737.392844 364.780487 
L 741.140506 350.900934 
L 744.888167 354.40815 
L 748.635828 377.683677 
L 752.383489 365.034586 
L 756.131151 360.366103 
L 759.878812 368.979447 
L 793.607764 362.105824 
L 797.355425 369.050895 
L 801.103086 363.687187 
L 804.850748 358.383074 
" style="fill:none;stroke:#2ca02c;stroke-linecap:square;"/>
    <defs>
     <path d="M 0 3 
C 0.795609 3 1.55874 2.683901 2.12132 2.12132 
C 2.683901 1.55874 3 0.795609 3 0 
C 3 -0.795609 2.683901 -1.55874 2.12132 -2.12132 
C 1.55874 -2.683901 0.795609 -3 0 -3 
C -0.795609 -3 -1.55874 -2.683901 -2.12132 -2.12132 
C -2.683901 -1.55874 -3 -0.795609 -3 0 
C -3 0.795609 -2.683901 1.55874 -2.12132 2.12132 
C -1.55874 2.683901 -0.795609 3 0 3 
z
" id="mb4a8ee0011" style="stroke:#2ca02c;"/>
    </defs>
    <g clip-path="url(#p8e23c7c765)">
     <use style="fill:#ffffff;stroke:#2ca02c;" x="98.416591" xlink:href="#mb4a8ee0011" y="342.913355"/>
     <use style="fill:#ffffff;stroke:#2ca02c;" x="105.911914" xlink:href="#mb4a8ee0011" y="384.376717"/>
     <use style="fill:#ffffff;stroke:#2ca02c;" x="113.407236" xlink:href="#mb4a8ee0011" y="337.419798"/>
     <use style="fill:#ffffff;stroke:#2ca02c;" x="120.902559" xlink:href="#mb4a8ee0011" y="388.139222"/>
     <use style="fill:#ffffff;stroke:#2ca02c;" x="128.397881" xlink:href="#mb4a8ee0011" y="322.287008"/>
     <use style="fill:#ffffff;stroke:#2ca02c;" x="135.893204" xlink:href="#mb4a8ee0011" y="383.995588"/>
     <use style="fill:#ffffff;stroke:#2ca02c;" x="139.640865" xlink:href="#mb4a8ee0011" y="347.990967"/>
     <use style="fill:#ffffff;stroke:#2ca02c;" x="147.136188" xlink:href="#mb4a8ee0011" y="365.053689"/>
     <use style="fill:#ffffff;stroke:#2ca02c;" x="177.117478" xlink:href="#mb4a8ee0011" y="355.191109"/>
     <use style="fill:#ffffff;stroke:#2ca02c;" x="184.612801" xlink:href="#mb4a8ee0011" y="370.605465"/>
     <use style="fill:#ffffff;stroke:#2ca02c;" x="192.108124" xlink:href="#mb4a8ee0011" y="367.301258"/>
     <use style="fill:#ffffff;stroke:#2ca02c;" x="199.603446" xlink:href="#mb4a8ee0011" y="352.366442"/>
     <use style="fill:#ffffff;stroke:#2ca02c;" x="229.584737" xlink:href="#mb4a8ee0011" y="369.237099"/>
     <use style="fill:#ffffff;stroke:#2ca02c;" x="237.080059" xlink:href="#mb4a8ee0011" y="344.837637"/>
     <use style="fill:#ffffff;stroke:#2ca02c;" x="259.566027" xlink:href="#mb4a8ee0011" y="365.713616"/>
     <use style="fill:#ffffff;stroke:#2ca02c;" x="267.06135" xlink:href="#mb4a8ee0011" y="371.638461"/>
     <use style="fill:#ffffff;stroke:#2ca02c;" x="274.556672" xlink:href="#mb4a8ee0011" y="346.354051"/>
     <use style="fill:#ffffff;stroke:#2ca02c;" x="282.051995" xlink:href="#mb4a8ee0011" y="368.458981"/>
     <use style="fill:#ffffff;stroke:#2ca02c;" x="297.04264" xlink:href="#mb4a8ee0011" y="349.776234"/>
     <use style="fill:#ffffff;stroke:#2ca02c;" x="304.537963" xlink:href="#mb4a8ee0011" y="372.986468"/>
     <use style="fill:#ffffff;stroke:#2ca02c;" x="312.033286" xlink:href="#mb4a8ee0011" y="365.446895"/>
     <use style="fill:#ffffff;stroke:#2ca02c;" x="321.402439" xlink:href="#mb4a8ee0011" y="336.665387"/>
     <use style="fill:#ffffff;stroke:#2ca02c;" x="328.897761" xlink:href="#mb4a8ee0011" y="380.721864"/>
     <use style="fill:#ffffff;stroke:#2ca02c;" x="336.393084" xlink:href="#mb4a8ee0011" y="359.983573"/>
     <use style="fill:#ffffff;stroke:#2ca02c;" x="343.888407" xlink:href="#mb4a8ee0011" y="343.771225"/>
     <use style="fill:#ffffff;stroke:#2ca02c;" x="351.383729" xlink:href="#mb4a8ee0011" y="378.795004"/>
     <use style="fill:#ffffff;stroke:#2ca02c;" x="358.879052" xlink:href="#mb4a8ee0011" y="362.597899"/>
     <use style="fill:#ffffff;stroke:#2ca02c;" x="366.374375" xlink:href="#mb4a8ee0011" y="369.07603"/>
     <use style="fill:#ffffff;stroke:#2ca02c;" x="370.122036" xlink:href="#mb4a8ee0011" y="337.96225"/>
     <use style="fill:#ffffff;stroke:#2ca02c;" x="373.869697" xlink:href="#mb4a8ee0011" y="384.927812"/>
     <use style="fill:#ffffff;stroke:#2ca02c;" x="377.617358" xlink:href="#mb4a8ee0011" y="351.680019"/>
     <use style="fill:#ffffff;stroke:#2ca02c;" x="381.36502" xlink:href="#mb4a8ee0011" y="344.363593"/>
     <use style="fill:#ffffff;stroke:#2ca02c;" x="385.112681" xlink:href="#mb4a8ee0011" y="378.751943"/>
     <use style="fill:#ffffff;stroke:#2ca02c;" x="388.860342" xlink:href="#mb4a8ee0011" y="342.018122"/>
     <use style="fill:#ffffff;stroke:#2ca02c;" x="392.608004" xlink:href="#mb4a8ee0011" y="361.871374"/>
     <use style="fill:#ffffff;stroke:#2ca02c;" x="396.355665" xlink:href="#mb4a8ee0011" y="364.259385"/>
     <use style="fill:#ffffff;stroke:#2ca02c;" x="400.103326" xlink:href="#mb4a8ee0011" y="367.872663"/>
     <use style="fill:#ffffff;stroke:#2ca02c;" x="403.850988" xlink:href="#mb4a8ee0011" y="361.231952"/>
     <use style="fill:#ffffff;stroke:#2ca02c;" x="407.598649" xlink:href="#mb4a8ee0011" y="348.788392"/>
     <use style="fill:#ffffff;stroke:#2ca02c;" x="411.34631" xlink:href="#mb4a8ee0011" y="366.569709"/>
     <use style="fill:#ffffff;stroke:#2ca02c;" x="415.093972" xlink:href="#mb4a8ee0011" y="379.073092"/>
     <use style="fill:#ffffff;stroke:#2ca02c;" x="418.841633" xlink:href="#mb4a8ee0011" y="312.090103"/>
     <use style="fill:#ffffff;stroke:#2ca02c;" x="508.785504" xlink:href="#mb4a8ee0011" y="352.00301"/>
     <use style="fill:#ffffff;stroke:#2ca02c;" x="512.533166" xlink:href="#mb4a8ee0011" y="366.211498"/>
     <use style="fill:#ffffff;stroke:#2ca02c;" x="516.280827" xlink:href="#mb4a8ee0011" y="375.769879"/>
     <use style="fill:#ffffff;stroke:#2ca02c;" x="527.523811" xlink:href="#mb4a8ee0011" y="370.442372"/>
     <use style="fill:#ffffff;stroke:#2ca02c;" x="535.019133" xlink:href="#mb4a8ee0011" y="351.872718"/>
     <use style="fill:#ffffff;stroke:#2ca02c;" x="538.766795" xlink:href="#mb4a8ee0011" y="365.59133"/>
     <use style="fill:#ffffff;stroke:#2ca02c;" x="542.514456" xlink:href="#mb4a8ee0011" y="344.499967"/>
     <use style="fill:#ffffff;stroke:#2ca02c;" x="546.262117" xlink:href="#mb4a8ee0011" y="389.327807"/>
     <use style="fill:#ffffff;stroke:#2ca02c;" x="561.252763" xlink:href="#mb4a8ee0011" y="345.7543"/>
     <use style="fill:#ffffff;stroke:#2ca02c;" x="565.000424" xlink:href="#mb4a8ee0011" y="357.09342"/>
     <use style="fill:#ffffff;stroke:#2ca02c;" x="572.495747" xlink:href="#mb4a8ee0011" y="362.980072"/>
     <use style="fill:#ffffff;stroke:#2ca02c;" x="576.243408" xlink:href="#mb4a8ee0011" y="371.864332"/>
     <use style="fill:#ffffff;stroke:#2ca02c;" x="579.991069" xlink:href="#mb4a8ee0011" y="345.094139"/>
     <use style="fill:#ffffff;stroke:#2ca02c;" x="583.738731" xlink:href="#mb4a8ee0011" y="364.800145"/>
     <use style="fill:#ffffff;stroke:#2ca02c;" x="587.486392" xlink:href="#mb4a8ee0011" y="363.07933"/>
     <use style="fill:#ffffff;stroke:#2ca02c;" x="591.234053" xlink:href="#mb4a8ee0011" y="388.905641"/>
     <use style="fill:#ffffff;stroke:#2ca02c;" x="594.981714" xlink:href="#mb4a8ee0011" y="336.660972"/>
     <use style="fill:#ffffff;stroke:#2ca02c;" x="598.729376" xlink:href="#mb4a8ee0011" y="375.596902"/>
     <use style="fill:#ffffff;stroke:#2ca02c;" x="602.477037" xlink:href="#mb4a8ee0011" y="342.171588"/>
     <use style="fill:#ffffff;stroke:#2ca02c;" x="606.224698" xlink:href="#mb4a8ee0011" y="363.524432"/>
     <use style="fill:#ffffff;stroke:#2ca02c;" x="609.97236" xlink:href="#mb4a8ee0011" y="383.112384"/>
     <use style="fill:#ffffff;stroke:#2ca02c;" x="613.720021" xlink:href="#mb4a8ee0011" y="346.564556"/>
     <use style="fill:#ffffff;stroke:#2ca02c;" x="617.467682" xlink:href="#mb4a8ee0011" y="349.286852"/>
     <use style="fill:#ffffff;stroke:#2ca02c;" x="621.215344" xlink:href="#mb4a8ee0011" y="353.844169"/>
     <use style="fill:#ffffff;stroke:#2ca02c;" x="624.963005" xlink:href="#mb4a8ee0011" y="375.364879"/>
     <use style="fill:#ffffff;stroke:#2ca02c;" x="628.710666" xlink:href="#mb4a8ee0011" y="351.509671"/>
     <use style="fill:#ffffff;stroke:#2ca02c;" x="632.458328" xlink:href="#mb4a8ee0011" y="376.267853"/>
     <use style="fill:#ffffff;stroke:#2ca02c;" x="636.205989" xlink:href="#mb4a8ee0011" y="358.218872"/>
     <use style="fill:#ffffff;stroke:#2ca02c;" x="639.95365" xlink:href="#mb4a8ee0011" y="353.078375"/>
     <use style="fill:#ffffff;stroke:#2ca02c;" x="643.701311" xlink:href="#mb4a8ee0011" y="364.742913"/>
     <use style="fill:#ffffff;stroke:#2ca02c;" x="647.448973" xlink:href="#mb4a8ee0011" y="362.385735"/>
     <use style="fill:#ffffff;stroke:#2ca02c;" x="651.196634" xlink:href="#mb4a8ee0011" y="354.15167"/>
     <use style="fill:#ffffff;stroke:#2ca02c;" x="654.944295" xlink:href="#mb4a8ee0011" y="360.824561"/>
     <use style="fill:#ffffff;stroke:#2ca02c;" x="658.691957" xlink:href="#mb4a8ee0011" y="370.357294"/>
     <use style="fill:#ffffff;stroke:#2ca02c;" x="662.439618" xlink:href="#mb4a8ee0011" y="369.874067"/>
     <use style="fill:#ffffff;stroke:#2ca02c;" x="666.187279" xlink:href="#mb4a8ee0011" y="346.678397"/>
     <use style="fill:#ffffff;stroke:#2ca02c;" x="669.934941" xlink:href="#mb4a8ee0011" y="375.799539"/>
     <use style="fill:#ffffff;stroke:#2ca02c;" x="673.682602" xlink:href="#mb4a8ee0011" y="356.266987"/>
     <use style="fill:#ffffff;stroke:#2ca02c;" x="677.430263" xlink:href="#mb4a8ee0011" y="362.272994"/>
     <use style="fill:#ffffff;stroke:#2ca02c;" x="681.177925" xlink:href="#mb4a8ee0011" y="348.888117"/>
     <use style="fill:#ffffff;stroke:#2ca02c;" x="684.925586" xlink:href="#mb4a8ee0011" y="369.55257"/>
     <use style="fill:#ffffff;stroke:#2ca02c;" x="688.673247" xlink:href="#mb4a8ee0011" y="361.779417"/>
     <use style="fill:#ffffff;stroke:#2ca02c;" x="692.420908" xlink:href="#mb4a8ee0011" y="375.850505"/>
     <use style="fill:#ffffff;stroke:#2ca02c;" x="696.16857" xlink:href="#mb4a8ee0011" y="348.609855"/>
     <use style="fill:#ffffff;stroke:#2ca02c;" x="699.916231" xlink:href="#mb4a8ee0011" y="355.730725"/>
     <use style="fill:#ffffff;stroke:#2ca02c;" x="703.663892" xlink:href="#mb4a8ee0011" y="361.10308"/>
     <use style="fill:#ffffff;stroke:#2ca02c;" x="707.411554" xlink:href="#mb4a8ee0011" y="358.025028"/>
     <use style="fill:#ffffff;stroke:#2ca02c;" x="711.159215" xlink:href="#mb4a8ee0011" y="361.079245"/>
     <use style="fill:#ffffff;stroke:#2ca02c;" x="714.906876" xlink:href="#mb4a8ee0011" y="369.576312"/>
     <use style="fill:#ffffff;stroke:#2ca02c;" x="718.654538" xlink:href="#mb4a8ee0011" y="360.565992"/>
     <use style="fill:#ffffff;stroke:#2ca02c;" x="722.402199" xlink:href="#mb4a8ee0011" y="357.408762"/>
     <use style="fill:#ffffff;stroke:#2ca02c;" x="726.14986" xlink:href="#mb4a8ee0011" y="359.130676"/>
     <use style="fill:#ffffff;stroke:#2ca02c;" x="729.897522" xlink:href="#mb4a8ee0011" y="362.661341"/>
     <use style="fill:#ffffff;stroke:#2ca02c;" x="733.645183" xlink:href="#mb4a8ee0011" y="350.287142"/>
     <use style="fill:#ffffff;stroke:#2ca02c;" x="737.392844" xlink:href="#mb4a8ee0011" y="364.780487"/>
     <use style="fill:#ffffff;stroke:#2ca02c;" x="741.140506" xlink:href="#mb4a8ee0011" y="350.900934"/>
     <use style="fill:#ffffff;stroke:#2ca02c;" x="744.888167" xlink:href="#mb4a8ee0011" y="354.40815"/>
     <use style="fill:#ffffff;stroke:#2ca02c;" x="748.635828" xlink:href="#mb4a8ee0011" y="377.683677"/>
     <use style="fill:#ffffff;stroke:#2ca02c;" x="752.383489" xlink:href="#mb4a8ee0011" y="365.034586"/>
     <use style="fill:#ffffff;stroke:#2ca02c;" x="756.131151" xlink:href="#mb4a8ee0011" y="360.366103"/>
     <use style="fill:#ffffff;stroke:#2ca02c;" x="759.878812" xlink:href="#mb4a8ee0011" y="368.979447"/>
     <use style="fill:#ffffff;stroke:#2ca02c;" x="793.607764" xlink:href="#mb4a8ee0011" y="362.105824"/>
     <use style="fill:#ffffff;stroke:#2ca02c;" x="797.355425" xlink:href="#mb4a8ee0011" y="369.050895"/>
     <use style="fill:#ffffff;stroke:#2ca02c;" x="801.103086" xlink:href="#mb4a8ee0011" y="363.687187"/>
     <use style="fill:#ffffff;stroke:#2ca02c;" x="804.850748" xlink:href="#mb4a8ee0011" y="358.383074"/>
    </g>
   </g>
   <g id="line2d_30">
    <path clip-path="url(#p8e23c7c765)" d="M 98.416591 348.78018 
L 105.911914 331.426676 
L 113.407236 355.536534 
L 120.902559 332.689472 
L 128.397881 360.561834 
L 135.893204 322.58198 
L 139.640865 344.674357 
L 147.136188 332.398464 
L 177.117478 347.003408 
L 184.612801 341.927658 
L 192.108124 352.266264 
L 199.603446 359.300662 
L 229.584737 361.21836 
L 237.080059 370.1886 
L 259.566027 361.304787 
L 267.06135 366.751544 
L 274.556672 378.123145 
L 282.051995 364.210336 
L 297.04264 375.675162 
L 304.537963 365.184536 
L 312.033286 377.904145 
L 321.402439 383.902357 
L 328.897761 360.300885 
L 336.393084 380.755889 
L 343.888407 380.472602 
L 351.383729 363.976968 
L 358.879052 382.505112 
L 366.374375 384.836151 
L 370.122036 392.008969 
L 373.869697 368.068007 
L 377.617358 391.092607 
L 381.36502 380.869415 
L 385.112681 363.329796 
L 388.860342 380.178526 
L 392.608004 360.293436 
L 396.355665 360.261597 
L 400.103326 362.61777 
L 403.850988 368.587221 
L 407.598649 367.91596 
L 411.34631 354.801141 
L 415.093972 359.467638 
L 418.841633 376.637518 
L 508.785504 364.460517 
L 512.533166 354.560315 
L 516.280827 358.868601 
L 527.523811 376.007973 
L 535.019133 386.183485 
L 538.766795 376.152991 
L 542.514456 379.841109 
L 546.262117 362.437864 
L 561.252763 394.771516 
L 565.000424 378.622604 
L 572.495747 375.449165 
L 576.243408 376.526025 
L 579.991069 386.487145 
L 583.738731 369.678072 
L 587.486392 372.575005 
L 591.234053 373.751123 
L 594.981714 400.753551 
L 598.729376 375.511311 
L 602.477037 389.205001 
L 606.224698 369.473377 
L 609.97236 371.094597 
L 613.720021 392.303769 
L 617.467682 376.965113 
L 621.215344 364.348753 
L 624.963005 356.289709 
L 628.710666 369.751376 
L 632.458328 359.357835 
L 636.205989 373.722476 
L 639.95365 370.038136 
L 643.701311 361.213299 
L 647.448973 364.053 
L 651.196634 364.535523 
L 654.944295 356.783981 
L 658.691957 355.705329 
L 662.439618 364.159411 
L 666.187279 372.130266 
L 669.934941 356.90545 
L 673.682602 370.801777 
L 677.430263 365.165552 
L 681.177925 365.535334 
L 684.925586 352.520239 
L 688.673247 360.169597 
L 692.420908 360.045802 
L 696.16857 373.993095 
L 699.916231 360.699738 
L 703.663892 354.52725 
L 707.411554 353.727117 
L 711.159215 349.848934 
L 714.906876 349.024967 
L 718.654538 356.698067 
L 722.402199 355.360847 
L 726.14986 350.866397 
L 729.897522 348.093861 
L 733.645183 348.85199 
L 737.392844 337.23592 
L 741.140506 340.113195 
L 744.888167 329.110917 
L 748.635828 321.615855 
L 752.383489 337.396319 
L 756.131151 340.527693 
L 759.878812 338.990584 
L 793.607764 359.157639 
L 797.355425 359.360251 
L 801.103086 366.507934 
L 804.850748 368.291909 
L 808.598409 364.771771 
" style="fill:none;stroke:#d62728;stroke-linecap:square;stroke-width:0.6;"/>
    <defs>
     <path d="M 0 3 
C 0.795609 3 1.55874 2.683901 2.12132 2.12132 
C 2.683901 1.55874 3 0.795609 3 0 
C 3 -0.795609 2.683901 -1.55874 2.12132 -2.12132 
C 1.55874 -2.683901 0.795609 -3 0 -3 
C -0.795609 -3 -1.55874 -2.683901 -2.12132 -2.12132 
C -2.683901 -1.55874 -3 -0.795609 -3 0 
C -3 0.795609 -2.683901 1.55874 -2.12132 2.12132 
C -1.55874 2.683901 -0.795609 3 0 3 
z
" id="mc413d5d766" style="stroke:#d62728;"/>
    </defs>
    <g clip-path="url(#p8e23c7c765)">
     <use style="fill:#ffffff;stroke:#d62728;" x="98.416591" xlink:href="#mc413d5d766" y="348.78018"/>
     <use style="fill:#ffffff;stroke:#d62728;" x="105.911914" xlink:href="#mc413d5d766" y="331.426676"/>
     <use style="fill:#ffffff;stroke:#d62728;" x="113.407236" xlink:href="#mc413d5d766" y="355.536534"/>
     <use style="fill:#ffffff;stroke:#d62728;" x="120.902559" xlink:href="#mc413d5d766" y="332.689472"/>
     <use style="fill:#ffffff;stroke:#d62728;" x="128.397881" xlink:href="#mc413d5d766" y="360.561834"/>
     <use style="fill:#ffffff;stroke:#d62728;" x="135.893204" xlink:href="#mc413d5d766" y="322.58198"/>
     <use style="fill:#ffffff;stroke:#d62728;" x="139.640865" xlink:href="#mc413d5d766" y="344.674357"/>
     <use style="fill:#ffffff;stroke:#d62728;" x="147.136188" xlink:href="#mc413d5d766" y="332.398464"/>
     <use style="fill:#ffffff;stroke:#d62728;" x="177.117478" xlink:href="#mc413d5d766" y="347.003408"/>
     <use style="fill:#ffffff;stroke:#d62728;" x="184.612801" xlink:href="#mc413d5d766" y="341.927658"/>
     <use style="fill:#ffffff;stroke:#d62728;" x="192.108124" xlink:href="#mc413d5d766" y="352.266264"/>
     <use style="fill:#ffffff;stroke:#d62728;" x="199.603446" xlink:href="#mc413d5d766" y="359.300662"/>
     <use style="fill:#ffffff;stroke:#d62728;" x="229.584737" xlink:href="#mc413d5d766" y="361.21836"/>
     <use style="fill:#ffffff;stroke:#d62728;" x="237.080059" xlink:href="#mc413d5d766" y="370.1886"/>
     <use style="fill:#ffffff;stroke:#d62728;" x="259.566027" xlink:href="#mc413d5d766" y="361.304787"/>
     <use style="fill:#ffffff;stroke:#d62728;" x="267.06135" xlink:href="#mc413d5d766" y="366.751544"/>
     <use style="fill:#ffffff;stroke:#d62728;" x="274.556672" xlink:href="#mc413d5d766" y="378.123145"/>
     <use style="fill:#ffffff;stroke:#d62728;" x="282.051995" xlink:href="#mc413d5d766" y="364.210336"/>
     <use style="fill:#ffffff;stroke:#d62728;" x="297.04264" xlink:href="#mc413d5d766" y="375.675162"/>
     <use style="fill:#ffffff;stroke:#d62728;" x="304.537963" xlink:href="#mc413d5d766" y="365.184536"/>
     <use style="fill:#ffffff;stroke:#d62728;" x="312.033286" xlink:href="#mc413d5d766" y="377.904145"/>
     <use style="fill:#ffffff;stroke:#d62728;" x="321.402439" xlink:href="#mc413d5d766" y="383.902357"/>
     <use style="fill:#ffffff;stroke:#d62728;" x="328.897761" xlink:href="#mc413d5d766" y="360.300885"/>
     <use style="fill:#ffffff;stroke:#d62728;" x="336.393084" xlink:href="#mc413d5d766" y="380.755889"/>
     <use style="fill:#ffffff;stroke:#d62728;" x="343.888407" xlink:href="#mc413d5d766" y="380.472602"/>
     <use style="fill:#ffffff;stroke:#d62728;" x="351.383729" xlink:href="#mc413d5d766" y="363.976968"/>
     <use style="fill:#ffffff;stroke:#d62728;" x="358.879052" xlink:href="#mc413d5d766" y="382.505112"/>
     <use style="fill:#ffffff;stroke:#d62728;" x="366.374375" xlink:href="#mc413d5d766" y="384.836151"/>
     <use style="fill:#ffffff;stroke:#d62728;" x="370.122036" xlink:href="#mc413d5d766" y="392.008969"/>
     <use style="fill:#ffffff;stroke:#d62728;" x="373.869697" xlink:href="#mc413d5d766" y="368.068007"/>
     <use style="fill:#ffffff;stroke:#d62728;" x="377.617358" xlink:href="#mc413d5d766" y="391.092607"/>
     <use style="fill:#ffffff;stroke:#d62728;" x="381.36502" xlink:href="#mc413d5d766" y="380.869415"/>
     <use style="fill:#ffffff;stroke:#d62728;" x="385.112681" xlink:href="#mc413d5d766" y="363.329796"/>
     <use style="fill:#ffffff;stroke:#d62728;" x="388.860342" xlink:href="#mc413d5d766" y="380.178526"/>
     <use style="fill:#ffffff;stroke:#d62728;" x="392.608004" xlink:href="#mc413d5d766" y="360.293436"/>
     <use style="fill:#ffffff;stroke:#d62728;" x="396.355665" xlink:href="#mc413d5d766" y="360.261597"/>
     <use style="fill:#ffffff;stroke:#d62728;" x="400.103326" xlink:href="#mc413d5d766" y="362.61777"/>
     <use style="fill:#ffffff;stroke:#d62728;" x="403.850988" xlink:href="#mc413d5d766" y="368.587221"/>
     <use style="fill:#ffffff;stroke:#d62728;" x="407.598649" xlink:href="#mc413d5d766" y="367.91596"/>
     <use style="fill:#ffffff;stroke:#d62728;" x="411.34631" xlink:href="#mc413d5d766" y="354.801141"/>
     <use style="fill:#ffffff;stroke:#d62728;" x="415.093972" xlink:href="#mc413d5d766" y="359.467638"/>
     <use style="fill:#ffffff;stroke:#d62728;" x="418.841633" xlink:href="#mc413d5d766" y="376.637518"/>
     <use style="fill:#ffffff;stroke:#d62728;" x="508.785504" xlink:href="#mc413d5d766" y="364.460517"/>
     <use style="fill:#ffffff;stroke:#d62728;" x="512.533166" xlink:href="#mc413d5d766" y="354.560315"/>
     <use style="fill:#ffffff;stroke:#d62728;" x="516.280827" xlink:href="#mc413d5d766" y="358.868601"/>
     <use style="fill:#ffffff;stroke:#d62728;" x="527.523811" xlink:href="#mc413d5d766" y="376.007973"/>
     <use style="fill:#ffffff;stroke:#d62728;" x="535.019133" xlink:href="#mc413d5d766" y="386.183485"/>
     <use style="fill:#ffffff;stroke:#d62728;" x="538.766795" xlink:href="#mc413d5d766" y="376.152991"/>
     <use style="fill:#ffffff;stroke:#d62728;" x="542.514456" xlink:href="#mc413d5d766" y="379.841109"/>
     <use style="fill:#ffffff;stroke:#d62728;" x="546.262117" xlink:href="#mc413d5d766" y="362.437864"/>
     <use style="fill:#ffffff;stroke:#d62728;" x="561.252763" xlink:href="#mc413d5d766" y="394.771516"/>
     <use style="fill:#ffffff;stroke:#d62728;" x="565.000424" xlink:href="#mc413d5d766" y="378.622604"/>
     <use style="fill:#ffffff;stroke:#d62728;" x="572.495747" xlink:href="#mc413d5d766" y="375.449165"/>
     <use style="fill:#ffffff;stroke:#d62728;" x="576.243408" xlink:href="#mc413d5d766" y="376.526025"/>
     <use style="fill:#ffffff;stroke:#d62728;" x="579.991069" xlink:href="#mc413d5d766" y="386.487145"/>
     <use style="fill:#ffffff;stroke:#d62728;" x="583.738731" xlink:href="#mc413d5d766" y="369.678072"/>
     <use style="fill:#ffffff;stroke:#d62728;" x="587.486392" xlink:href="#mc413d5d766" y="372.575005"/>
     <use style="fill:#ffffff;stroke:#d62728;" x="591.234053" xlink:href="#mc413d5d766" y="373.751123"/>
     <use style="fill:#ffffff;stroke:#d62728;" x="594.981714" xlink:href="#mc413d5d766" y="400.753551"/>
     <use style="fill:#ffffff;stroke:#d62728;" x="598.729376" xlink:href="#mc413d5d766" y="375.511311"/>
     <use style="fill:#ffffff;stroke:#d62728;" x="602.477037" xlink:href="#mc413d5d766" y="389.205001"/>
     <use style="fill:#ffffff;stroke:#d62728;" x="606.224698" xlink:href="#mc413d5d766" y="369.473377"/>
     <use style="fill:#ffffff;stroke:#d62728;" x="609.97236" xlink:href="#mc413d5d766" y="371.094597"/>
     <use style="fill:#ffffff;stroke:#d62728;" x="613.720021" xlink:href="#mc413d5d766" y="392.303769"/>
     <use style="fill:#ffffff;stroke:#d62728;" x="617.467682" xlink:href="#mc413d5d766" y="376.965113"/>
     <use style="fill:#ffffff;stroke:#d62728;" x="621.215344" xlink:href="#mc413d5d766" y="364.348753"/>
     <use style="fill:#ffffff;stroke:#d62728;" x="624.963005" xlink:href="#mc413d5d766" y="356.289709"/>
     <use style="fill:#ffffff;stroke:#d62728;" x="628.710666" xlink:href="#mc413d5d766" y="369.751376"/>
     <use style="fill:#ffffff;stroke:#d62728;" x="632.458328" xlink:href="#mc413d5d766" y="359.357835"/>
     <use style="fill:#ffffff;stroke:#d62728;" x="636.205989" xlink:href="#mc413d5d766" y="373.722476"/>
     <use style="fill:#ffffff;stroke:#d62728;" x="639.95365" xlink:href="#mc413d5d766" y="370.038136"/>
     <use style="fill:#ffffff;stroke:#d62728;" x="643.701311" xlink:href="#mc413d5d766" y="361.213299"/>
     <use style="fill:#ffffff;stroke:#d62728;" x="647.448973" xlink:href="#mc413d5d766" y="364.053"/>
     <use style="fill:#ffffff;stroke:#d62728;" x="651.196634" xlink:href="#mc413d5d766" y="364.535523"/>
     <use style="fill:#ffffff;stroke:#d62728;" x="654.944295" xlink:href="#mc413d5d766" y="356.783981"/>
     <use style="fill:#ffffff;stroke:#d62728;" x="658.691957" xlink:href="#mc413d5d766" y="355.705329"/>
     <use style="fill:#ffffff;stroke:#d62728;" x="662.439618" xlink:href="#mc413d5d766" y="364.159411"/>
     <use style="fill:#ffffff;stroke:#d62728;" x="666.187279" xlink:href="#mc413d5d766" y="372.130266"/>
     <use style="fill:#ffffff;stroke:#d62728;" x="669.934941" xlink:href="#mc413d5d766" y="356.90545"/>
     <use style="fill:#ffffff;stroke:#d62728;" x="673.682602" xlink:href="#mc413d5d766" y="370.801777"/>
     <use style="fill:#ffffff;stroke:#d62728;" x="677.430263" xlink:href="#mc413d5d766" y="365.165552"/>
     <use style="fill:#ffffff;stroke:#d62728;" x="681.177925" xlink:href="#mc413d5d766" y="365.535334"/>
     <use style="fill:#ffffff;stroke:#d62728;" x="684.925586" xlink:href="#mc413d5d766" y="352.520239"/>
     <use style="fill:#ffffff;stroke:#d62728;" x="688.673247" xlink:href="#mc413d5d766" y="360.169597"/>
     <use style="fill:#ffffff;stroke:#d62728;" x="692.420908" xlink:href="#mc413d5d766" y="360.045802"/>
     <use style="fill:#ffffff;stroke:#d62728;" x="696.16857" xlink:href="#mc413d5d766" y="373.993095"/>
     <use style="fill:#ffffff;stroke:#d62728;" x="699.916231" xlink:href="#mc413d5d766" y="360.699738"/>
     <use style="fill:#ffffff;stroke:#d62728;" x="703.663892" xlink:href="#mc413d5d766" y="354.52725"/>
     <use style="fill:#ffffff;stroke:#d62728;" x="707.411554" xlink:href="#mc413d5d766" y="353.727117"/>
     <use style="fill:#ffffff;stroke:#d62728;" x="711.159215" xlink:href="#mc413d5d766" y="349.848934"/>
     <use style="fill:#ffffff;stroke:#d62728;" x="714.906876" xlink:href="#mc413d5d766" y="349.024967"/>
     <use style="fill:#ffffff;stroke:#d62728;" x="718.654538" xlink:href="#mc413d5d766" y="356.698067"/>
     <use style="fill:#ffffff;stroke:#d62728;" x="722.402199" xlink:href="#mc413d5d766" y="355.360847"/>
     <use style="fill:#ffffff;stroke:#d62728;" x="726.14986" xlink:href="#mc413d5d766" y="350.866397"/>
     <use style="fill:#ffffff;stroke:#d62728;" x="729.897522" xlink:href="#mc413d5d766" y="348.093861"/>
     <use style="fill:#ffffff;stroke:#d62728;" x="733.645183" xlink:href="#mc413d5d766" y="348.85199"/>
     <use style="fill:#ffffff;stroke:#d62728;" x="737.392844" xlink:href="#mc413d5d766" y="337.23592"/>
     <use style="fill:#ffffff;stroke:#d62728;" x="741.140506" xlink:href="#mc413d5d766" y="340.113195"/>
     <use style="fill:#ffffff;stroke:#d62728;" x="744.888167" xlink:href="#mc413d5d766" y="329.110917"/>
     <use style="fill:#ffffff;stroke:#d62728;" x="748.635828" xlink:href="#mc413d5d766" y="321.615855"/>
     <use style="fill:#ffffff;stroke:#d62728;" x="752.383489" xlink:href="#mc413d5d766" y="337.396319"/>
     <use style="fill:#ffffff;stroke:#d62728;" x="756.131151" xlink:href="#mc413d5d766" y="340.527693"/>
     <use style="fill:#ffffff;stroke:#d62728;" x="759.878812" xlink:href="#mc413d5d766" y="338.990584"/>
     <use style="fill:#ffffff;stroke:#d62728;" x="793.607764" xlink:href="#mc413d5d766" y="359.157639"/>
     <use style="fill:#ffffff;stroke:#d62728;" x="797.355425" xlink:href="#mc413d5d766" y="359.360251"/>
     <use style="fill:#ffffff;stroke:#d62728;" x="801.103086" xlink:href="#mc413d5d766" y="366.507934"/>
     <use style="fill:#ffffff;stroke:#d62728;" x="804.850748" xlink:href="#mc413d5d766" y="368.291909"/>
     <use style="fill:#ffffff;stroke:#d62728;" x="808.598409" xlink:href="#mc413d5d766" y="364.771771"/>
    </g>
   </g>
   <g id="patch_3">
    <path d="M 62.9075 418.557187 
L 62.9075 26.877187 
" style="fill:none;stroke:#000000;stroke-linecap:square;stroke-linejoin:miter;stroke-width:0.8;"/>
   </g>
   <g id="patch_4">
    <path d="M 844.1075 418.557187 
L 844.1075 26.877187 
" style="fill:none;stroke:#000000;stroke-linecap:square;stroke-linejoin:miter;stroke-width:0.8;"/>
   </g>
   <g id="patch_5">
    <path d="M 62.9075 418.557187 
L 844.1075 418.557187 
" style="fill:none;stroke:#000000;stroke-linecap:square;stroke-linejoin:miter;stroke-width:0.8;"/>
   </g>
   <g id="patch_6">
    <path d="M 62.9075 26.877187 
L 844.1075 26.877187 
" style="fill:none;stroke:#000000;stroke-linecap:square;stroke-linejoin:miter;stroke-width:0.8;"/>
   </g>
   <g id="text_16">
    <!-- Time series at pixel y=365, x=368 -->
    <g transform="translate(297.236563 20.877187)scale(0.18 -0.18)">
     <defs>
      <path d="M -0.296875 72.90625 
L 61.375 72.90625 
L 61.375 64.59375 
L 35.5 64.59375 
L 35.5 0 
L 25.59375 0 
L 25.59375 64.59375 
L -0.296875 64.59375 
z
" id="DejaVuSans-84"/>
      <path d="M 18.109375 8.203125 
L 18.109375 -20.796875 
L 9.078125 -20.796875 
L 9.078125 54.6875 
L 18.109375 54.6875 
L 18.109375 46.390625 
Q 20.953125 51.265625 25.265625 53.625 
Q 29.59375 56 35.59375 56 
Q 45.5625 56 51.78125 48.09375 
Q 58.015625 40.1875 58.015625 27.296875 
Q 58.015625 14.40625 51.78125 6.484375 
Q 45.5625 -1.421875 35.59375 -1.421875 
Q 29.59375 -1.421875 25.265625 0.953125 
Q 20.953125 3.328125 18.109375 8.203125 
z
M 48.6875 27.296875 
Q 48.6875 37.203125 44.609375 42.84375 
Q 40.53125 48.484375 33.40625 48.484375 
Q 26.265625 48.484375 22.1875 42.84375 
Q 18.109375 37.203125 18.109375 27.296875 
Q 18.109375 17.390625 22.1875 11.75 
Q 26.265625 6.109375 33.40625 6.109375 
Q 40.53125 6.109375 44.609375 11.75 
Q 48.6875 17.390625 48.6875 27.296875 
z
" id="DejaVuSans-112"/>
      <path d="M 54.890625 54.6875 
L 35.109375 28.078125 
L 55.90625 0 
L 45.3125 0 
L 29.390625 21.484375 
L 13.484375 0 
L 2.875 0 
L 24.125 28.609375 
L 4.6875 54.6875 
L 15.28125 54.6875 
L 29.78125 35.203125 
L 44.28125 54.6875 
z
" id="DejaVuSans-120"/>
      <path d="M 9.421875 75.984375 
L 18.40625 75.984375 
L 18.40625 0 
L 9.421875 0 
z
" id="DejaVuSans-108"/>
      <path d="M 10.59375 45.40625 
L 73.1875 45.40625 
L 73.1875 37.203125 
L 10.59375 37.203125 
z
M 10.59375 25.484375 
L 73.1875 25.484375 
L 73.1875 17.1875 
L 10.59375 17.1875 
z
" id="DejaVuSans-61"/>
      <path d="M 40.578125 39.3125 
Q 47.65625 37.796875 51.625 33 
Q 55.609375 28.21875 55.609375 21.1875 
Q 55.609375 10.40625 48.1875 4.484375 
Q 40.765625 -1.421875 27.09375 -1.421875 
Q 22.515625 -1.421875 17.65625 -0.515625 
Q 12.796875 0.390625 7.625 2.203125 
L 7.625 11.71875 
Q 11.71875 9.328125 16.59375 8.109375 
Q 21.484375 6.890625 26.8125 6.890625 
Q 36.078125 6.890625 40.9375 10.546875 
Q 45.796875 14.203125 45.796875 21.1875 
Q 45.796875 27.640625 41.28125 31.265625 
Q 36.765625 34.90625 28.71875 34.90625 
L 20.21875 34.90625 
L 20.21875 43.015625 
L 29.109375 43.015625 
Q 36.375 43.015625 40.234375 45.921875 
Q 44.09375 48.828125 44.09375 54.296875 
Q 44.09375 59.90625 40.109375 62.90625 
Q 36.140625 65.921875 28.71875 65.921875 
Q 24.65625 65.921875 20.015625 65.03125 
Q 15.375 64.15625 9.8125 62.3125 
L 9.8125 71.09375 
Q 15.4375 72.65625 20.34375 73.4375 
Q 25.25 74.21875 29.59375 74.21875 
Q 40.828125 74.21875 47.359375 69.109375 
Q 53.90625 64.015625 53.90625 55.328125 
Q 53.90625 49.265625 50.4375 45.09375 
Q 46.96875 40.921875 40.578125 39.3125 
z
" id="DejaVuSans-51"/>
      <path d="M 11.71875 12.40625 
L 22.015625 12.40625 
L 22.015625 4 
L 14.015625 -11.625 
L 7.71875 -11.625 
L 11.71875 4 
z
" id="DejaVuSans-44"/>
     </defs>
     <use xlink:href="#DejaVuSans-84"/>
     <use x="57.958984" xlink:href="#DejaVuSans-105"/>
     <use x="85.742188" xlink:href="#DejaVuSans-109"/>
     <use x="183.154297" xlink:href="#DejaVuSans-101"/>
     <use x="244.677734" xlink:href="#DejaVuSans-32"/>
     <use x="276.464844" xlink:href="#DejaVuSans-115"/>
     <use x="328.564453" xlink:href="#DejaVuSans-101"/>
     <use x="390.087891" xlink:href="#DejaVuSans-114"/>
     <use x="431.201172" xlink:href="#DejaVuSans-105"/>
     <use x="458.984375" xlink:href="#DejaVuSans-101"/>
     <use x="520.507812" xlink:href="#DejaVuSans-115"/>
     <use x="572.607422" xlink:href="#DejaVuSans-32"/>
     <use x="604.394531" xlink:href="#DejaVuSans-97"/>
     <use x="665.673828" xlink:href="#DejaVuSans-116"/>
     <use x="704.882812" xlink:href="#DejaVuSans-32"/>
     <use x="736.669922" xlink:href="#DejaVuSans-112"/>
     <use x="800.146484" xlink:href="#DejaVuSans-105"/>
     <use x="827.929688" xlink:href="#DejaVuSans-120"/>
     <use x="883.984375" xlink:href="#DejaVuSans-101"/>
     <use x="945.507812" xlink:href="#DejaVuSans-108"/>
     <use x="973.291016" xlink:href="#DejaVuSans-32"/>
     <use x="1005.078125" xlink:href="#DejaVuSans-121"/>
     <use x="1064.257812" xlink:href="#DejaVuSans-61"/>
     <use x="1148.046875" xlink:href="#DejaVuSans-51"/>
     <use x="1211.669922" xlink:href="#DejaVuSans-54"/>
     <use x="1275.292969" xlink:href="#DejaVuSans-53"/>
     <use x="1338.916016" xlink:href="#DejaVuSans-44"/>
     <use x="1370.703125" xlink:href="#DejaVuSans-32"/>
     <use x="1402.490234" xlink:href="#DejaVuSans-120"/>
     <use x="1461.669922" xlink:href="#DejaVuSans-61"/>
     <use x="1545.458984" xlink:href="#DejaVuSans-51"/>
     <use x="1609.082031" xlink:href="#DejaVuSans-54"/>
     <use x="1672.705078" xlink:href="#DejaVuSans-56"/>
    </g>
   </g>
   <g id="legend_1">
    <g id="patch_7">
     <path d="M 74.1075 133.617187 
L 378 133.617187 
Q 381.2 133.617187 381.2 130.417187 
L 381.2 38.077187 
Q 381.2 34.877187 378 34.877187 
L 74.1075 34.877187 
Q 70.9075 34.877187 70.9075 38.077187 
L 70.9075 130.417187 
Q 70.9075 133.617187 74.1075 133.617187 
z
" style="fill:#ffffff;opacity:0.8;stroke:#cccccc;stroke-linejoin:miter;"/>
    </g>
    <g id="line2d_31">
     <path d="M 77.3075 47.834687 
L 109.3075 47.834687 
" style="fill:none;stroke:#1f77b4;stroke-linecap:square;stroke-width:1.5;"/>
    </g>
    <g id="line2d_32"/>
    <g id="text_17">
     <!-- linear regresion [0.11*t +-5.81] -->
     <g transform="translate(122.1075 53.434687)scale(0.16 -0.16)">
      <defs>
       <path d="M 45.40625 27.984375 
Q 45.40625 37.75 41.375 43.109375 
Q 37.359375 48.484375 30.078125 48.484375 
Q 22.859375 48.484375 18.828125 43.109375 
Q 14.796875 37.75 14.796875 27.984375 
Q 14.796875 18.265625 18.828125 12.890625 
Q 22.859375 7.515625 30.078125 7.515625 
Q 37.359375 7.515625 41.375 12.890625 
Q 45.40625 18.265625 45.40625 27.984375 
z
M 54.390625 6.78125 
Q 54.390625 -7.171875 48.1875 -13.984375 
Q 42 -20.796875 29.203125 -20.796875 
Q 24.46875 -20.796875 20.265625 -20.09375 
Q 16.0625 -19.390625 12.109375 -17.921875 
L 12.109375 -9.1875 
Q 16.0625 -11.328125 19.921875 -12.34375 
Q 23.78125 -13.375 27.78125 -13.375 
Q 36.625 -13.375 41.015625 -8.765625 
Q 45.40625 -4.15625 45.40625 5.171875 
L 45.40625 9.625 
Q 42.625 4.78125 38.28125 2.390625 
Q 33.9375 0 27.875 0 
Q 17.828125 0 11.671875 7.65625 
Q 5.515625 15.328125 5.515625 27.984375 
Q 5.515625 40.671875 11.671875 48.328125 
Q 17.828125 56 27.875 56 
Q 33.9375 56 38.28125 53.609375 
Q 42.625 51.21875 45.40625 46.390625 
L 45.40625 54.6875 
L 54.390625 54.6875 
z
" id="DejaVuSans-103"/>
       <path d="M 10.6875 12.40625 
L 21 12.40625 
L 21 0 
L 10.6875 0 
z
" id="DejaVuSans-46"/>
       <path d="M 47.015625 60.890625 
L 29.5 51.421875 
L 47.015625 41.890625 
L 44.1875 37.109375 
L 27.78125 47.015625 
L 27.78125 28.609375 
L 22.21875 28.609375 
L 22.21875 47.015625 
L 5.8125 37.109375 
L 2.984375 41.890625 
L 20.515625 51.421875 
L 2.984375 60.890625 
L 5.8125 65.71875 
L 22.21875 55.8125 
L 22.21875 74.21875 
L 27.78125 74.21875 
L 27.78125 55.8125 
L 44.1875 65.71875 
z
" id="DejaVuSans-42"/>
       <path d="M 46 62.703125 
L 46 35.5 
L 73.1875 35.5 
L 73.1875 27.203125 
L 46 27.203125 
L 46 0 
L 37.796875 0 
L 37.796875 27.203125 
L 10.59375 27.203125 
L 10.59375 35.5 
L 37.796875 35.5 
L 37.796875 62.703125 
z
" id="DejaVuSans-43"/>
       <path d="M 4.890625 31.390625 
L 31.203125 31.390625 
L 31.203125 23.390625 
L 4.890625 23.390625 
z
" id="DejaVuSans-45"/>
      </defs>
      <use xlink:href="#DejaVuSans-108"/>
      <use x="27.783203" xlink:href="#DejaVuSans-105"/>
      <use x="55.566406" xlink:href="#DejaVuSans-110"/>
      <use x="118.945312" xlink:href="#DejaVuSans-101"/>
      <use x="180.46875" xlink:href="#DejaVuSans-97"/>
      <use x="241.748047" xlink:href="#DejaVuSans-114"/>
      <use x="282.861328" xlink:href="#DejaVuSans-32"/>
      <use x="314.648438" xlink:href="#DejaVuSans-114"/>
      <use x="353.511719" xlink:href="#DejaVuSans-101"/>
      <use x="415.035156" xlink:href="#DejaVuSans-103"/>
      <use x="478.511719" xlink:href="#DejaVuSans-114"/>
      <use x="517.375" xlink:href="#DejaVuSans-101"/>
      <use x="578.898438" xlink:href="#DejaVuSans-115"/>
      <use x="630.998047" xlink:href="#DejaVuSans-105"/>
      <use x="658.78125" xlink:href="#DejaVuSans-111"/>
      <use x="719.962891" xlink:href="#DejaVuSans-110"/>
      <use x="783.341797" xlink:href="#DejaVuSans-32"/>
      <use x="815.128906" xlink:href="#DejaVuSans-91"/>
      <use x="854.142578" xlink:href="#DejaVuSans-48"/>
      <use x="917.765625" xlink:href="#DejaVuSans-46"/>
      <use x="949.552734" xlink:href="#DejaVuSans-49"/>
      <use x="1013.175781" xlink:href="#DejaVuSans-49"/>
      <use x="1076.798828" xlink:href="#DejaVuSans-42"/>
      <use x="1126.798828" xlink:href="#DejaVuSans-116"/>
      <use x="1166.007812" xlink:href="#DejaVuSans-32"/>
      <use x="1197.794922" xlink:href="#DejaVuSans-43"/>
      <use x="1281.583984" xlink:href="#DejaVuSans-45"/>
      <use x="1317.667969" xlink:href="#DejaVuSans-53"/>
      <use x="1381.291016" xlink:href="#DejaVuSans-46"/>
      <use x="1413.078125" xlink:href="#DejaVuSans-56"/>
      <use x="1476.701172" xlink:href="#DejaVuSans-49"/>
      <use x="1540.324219" xlink:href="#DejaVuSans-93"/>
     </g>
    </g>
    <g id="line2d_33">
     <path d="M 77.3075 71.319687 
L 109.3075 71.319687 
" style="fill:none;stroke:#ff7f0e;stroke-linecap:square;"/>
    </g>
    <g id="line2d_34">
     <g>
      <use style="fill:#ffffff;stroke:#ff7f0e;" x="93.3075" xlink:href="#m48df1daef2" y="71.319687"/>
     </g>
    </g>
    <g id="text_18">
     <!-- original data -->
     <g transform="translate(122.1075 76.919687)scale(0.16 -0.16)">
      <use xlink:href="#DejaVuSans-111"/>
      <use x="61.181641" xlink:href="#DejaVuSans-114"/>
      <use x="102.294922" xlink:href="#DejaVuSans-105"/>
      <use x="130.078125" xlink:href="#DejaVuSans-103"/>
      <use x="193.554688" xlink:href="#DejaVuSans-105"/>
      <use x="221.337891" xlink:href="#DejaVuSans-110"/>
      <use x="284.716797" xlink:href="#DejaVuSans-97"/>
      <use x="345.996094" xlink:href="#DejaVuSans-108"/>
      <use x="373.779297" xlink:href="#DejaVuSans-32"/>
      <use x="405.566406" xlink:href="#DejaVuSans-100"/>
      <use x="469.042969" xlink:href="#DejaVuSans-97"/>
      <use x="530.322266" xlink:href="#DejaVuSans-116"/>
      <use x="569.53125" xlink:href="#DejaVuSans-97"/>
     </g>
    </g>
    <g id="line2d_35">
     <path d="M 77.3075 94.804687 
L 109.3075 94.804687 
" style="fill:none;stroke:#2ca02c;stroke-linecap:square;"/>
    </g>
    <g id="line2d_36">
     <g>
      <use style="fill:#ffffff;stroke:#2ca02c;" x="93.3075" xlink:href="#mb4a8ee0011" y="94.804687"/>
     </g>
    </g>
    <g id="text_19">
     <!-- differential detrend -->
     <g transform="translate(122.1075 100.404687)scale(0.16 -0.16)">
      <use xlink:href="#DejaVuSans-100"/>
      <use x="63.476562" xlink:href="#DejaVuSans-105"/>
      <use x="91.259766" xlink:href="#DejaVuSans-102"/>
      <use x="126.464844" xlink:href="#DejaVuSans-102"/>
      <use x="161.669922" xlink:href="#DejaVuSans-101"/>
      <use x="223.193359" xlink:href="#DejaVuSans-114"/>
      <use x="262.056641" xlink:href="#DejaVuSans-101"/>
      <use x="323.580078" xlink:href="#DejaVuSans-110"/>
      <use x="386.958984" xlink:href="#DejaVuSans-116"/>
      <use x="426.167969" xlink:href="#DejaVuSans-105"/>
      <use x="453.951172" xlink:href="#DejaVuSans-97"/>
      <use x="515.230469" xlink:href="#DejaVuSans-108"/>
      <use x="543.013672" xlink:href="#DejaVuSans-32"/>
      <use x="574.800781" xlink:href="#DejaVuSans-100"/>
      <use x="638.277344" xlink:href="#DejaVuSans-101"/>
      <use x="699.800781" xlink:href="#DejaVuSans-116"/>
      <use x="739.009766" xlink:href="#DejaVuSans-114"/>
      <use x="777.873047" xlink:href="#DejaVuSans-101"/>
      <use x="839.396484" xlink:href="#DejaVuSans-110"/>
      <use x="902.775391" xlink:href="#DejaVuSans-100"/>
     </g>
    </g>
    <g id="line2d_37">
     <path d="M 77.3075 118.289687 
L 109.3075 118.289687 
" style="fill:none;stroke:#d62728;stroke-linecap:square;stroke-width:0.6;"/>
    </g>
    <g id="line2d_38">
     <g>
      <use style="fill:#ffffff;stroke:#d62728;" x="93.3075" xlink:href="#mc413d5d766" y="118.289687"/>
     </g>
    </g>
    <g id="text_20">
     <!-- regresion removal -->
     <g transform="translate(122.1075 123.889687)scale(0.16 -0.16)">
      <defs>
       <path d="M 2.984375 54.6875 
L 12.5 54.6875 
L 29.59375 8.796875 
L 46.6875 54.6875 
L 56.203125 54.6875 
L 35.6875 0 
L 23.484375 0 
z
" id="DejaVuSans-118"/>
      </defs>
      <use xlink:href="#DejaVuSans-114"/>
      <use x="38.863281" xlink:href="#DejaVuSans-101"/>
      <use x="100.386719" xlink:href="#DejaVuSans-103"/>
      <use x="163.863281" xlink:href="#DejaVuSans-114"/>
      <use x="202.726562" xlink:href="#DejaVuSans-101"/>
      <use x="264.25" xlink:href="#DejaVuSans-115"/>
      <use x="316.349609" xlink:href="#DejaVuSans-105"/>
      <use x="344.132812" xlink:href="#DejaVuSans-111"/>
      <use x="405.314453" xlink:href="#DejaVuSans-110"/>
      <use x="468.693359" xlink:href="#DejaVuSans-32"/>
      <use x="500.480469" xlink:href="#DejaVuSans-114"/>
      <use x="539.34375" xlink:href="#DejaVuSans-101"/>
      <use x="600.867188" xlink:href="#DejaVuSans-109"/>
      <use x="698.279297" xlink:href="#DejaVuSans-111"/>
      <use x="759.460938" xlink:href="#DejaVuSans-118"/>
      <use x="818.640625" xlink:href="#DejaVuSans-97"/>
      <use x="879.919922" xlink:href="#DejaVuSans-108"/>
     </g>
    </g>
   </g>
  </g>
 </g>
 <defs>
  <clipPath id="p8e23c7c765">
   <rect height="391.68" width="781.2" x="62.9075" y="26.877187"/>
  </clipPath>
 </defs>
</svg>
