<?xml version="1.0" encoding="utf-8" standalone="no"?>
<!DOCTYPE svg PUBLIC "-//W3C//DTD SVG 1.1//EN"
  "http://www.w3.org/Graphics/SVG/1.1/DTD/svg11.dtd">
<!-- Created with matplotlib (https://matplotlib.org/) -->
<svg height="385.03pt" version="1.1" viewBox="0 0 876.22325 385.03" width="876.22325pt" xmlns="http://www.w3.org/2000/svg" xmlns:xlink="http://www.w3.org/1999/xlink">
 <metadata>
  <rdf:RDF xmlns:cc="http://creativecommons.org/ns#" xmlns:dc="http://purl.org/dc/elements/1.1/" xmlns:rdf="http://www.w3.org/1999/02/22-rdf-syntax-ns#">
   <cc:Work>
    <dc:type rdf:resource="http://purl.org/dc/dcmitype/StillImage"/>
    <dc:date>2021-03-31T13:55:49.978641</dc:date>
    <dc:format>image/svg+xml</dc:format>
    <dc:creator>
     <cc:Agent>
      <dc:title>Matplotlib v3.3.4, https://matplotlib.org/</dc:title>
     </cc:Agent>
    </dc:creator>
   </cc:Work>
  </rdf:RDF>
 </metadata>
 <defs>
  <style type="text/css">*{stroke-linecap:butt;stroke-linejoin:round;}</style>
 </defs>
 <g id="figure_1">
  <g id="patch_1">
   <path d="M 0 385.03 
L 876.22325 385.03 
L 876.22325 0 
L 0 0 
z
" style="fill:none;"/>
  </g>
  <g id="axes_1">
   <g id="patch_2">
    <path d="M 87.82325 333.36 
L 869.02325 333.36 
L 869.02325 7.2 
L 87.82325 7.2 
z
" style="fill:#ffffff;"/>
   </g>
   <g id="matplotlib.axis_1">
    <g id="xtick_1">
     <g id="line2d_1">
      <path clip-path="url(#pf6301ed59d)" d="M 87.82325 333.36 
L 87.82325 7.2 
" style="fill:none;stroke:#b0b0b0;stroke-linecap:square;stroke-width:0.8;"/>
     </g>
     <g id="line2d_2">
      <defs>
       <path d="M 0 0 
L 0 6 
" id="m0bde62c469" style="stroke:#000000;"/>
      </defs>
      <g>
       <use style="stroke:#000000;" x="87.82325" xlink:href="#m0bde62c469" y="333.36"/>
      </g>
     </g>
     <g id="text_1">
      <!-- 0 -->
      <g transform="translate(83.3695 353.497812)scale(0.14 -0.14)">
       <defs>
        <path d="M 31.78125 66.40625 
Q 24.171875 66.40625 20.328125 58.90625 
Q 16.5 51.421875 16.5 36.375 
Q 16.5 21.390625 20.328125 13.890625 
Q 24.171875 6.390625 31.78125 6.390625 
Q 39.453125 6.390625 43.28125 13.890625 
Q 47.125 21.390625 47.125 36.375 
Q 47.125 51.421875 43.28125 58.90625 
Q 39.453125 66.40625 31.78125 66.40625 
z
M 31.78125 74.21875 
Q 44.046875 74.21875 50.515625 64.515625 
Q 56.984375 54.828125 56.984375 36.375 
Q 56.984375 17.96875 50.515625 8.265625 
Q 44.046875 -1.421875 31.78125 -1.421875 
Q 19.53125 -1.421875 13.0625 8.265625 
Q 6.59375 17.96875 6.59375 36.375 
Q 6.59375 54.828125 13.0625 64.515625 
Q 19.53125 74.21875 31.78125 74.21875 
z
" id="DejaVuSans-48"/>
       </defs>
       <use xlink:href="#DejaVuSans-48"/>
      </g>
     </g>
    </g>
    <g id="xtick_2">
     <g id="line2d_3">
      <path clip-path="url(#pf6301ed59d)" d="M 194.836949 333.36 
L 194.836949 7.2 
" style="fill:none;stroke:#b0b0b0;stroke-linecap:square;stroke-width:0.8;"/>
     </g>
     <g id="line2d_4">
      <g>
       <use style="stroke:#000000;" x="194.836949" xlink:href="#m0bde62c469" y="333.36"/>
      </g>
     </g>
     <g id="text_2">
      <!-- 50 -->
      <g transform="translate(185.929449 353.497812)scale(0.14 -0.14)">
       <defs>
        <path d="M 10.796875 72.90625 
L 49.515625 72.90625 
L 49.515625 64.59375 
L 19.828125 64.59375 
L 19.828125 46.734375 
Q 21.96875 47.46875 24.109375 47.828125 
Q 26.265625 48.1875 28.421875 48.1875 
Q 40.625 48.1875 47.75 41.5 
Q 54.890625 34.8125 54.890625 23.390625 
Q 54.890625 11.625 47.5625 5.09375 
Q 40.234375 -1.421875 26.90625 -1.421875 
Q 22.3125 -1.421875 17.546875 -0.640625 
Q 12.796875 0.140625 7.71875 1.703125 
L 7.71875 11.625 
Q 12.109375 9.234375 16.796875 8.0625 
Q 21.484375 6.890625 26.703125 6.890625 
Q 35.15625 6.890625 40.078125 11.328125 
Q 45.015625 15.765625 45.015625 23.390625 
Q 45.015625 31 40.078125 35.4375 
Q 35.15625 39.890625 26.703125 39.890625 
Q 22.75 39.890625 18.8125 39.015625 
Q 14.890625 38.140625 10.796875 36.28125 
z
" id="DejaVuSans-53"/>
       </defs>
       <use xlink:href="#DejaVuSans-53"/>
       <use x="63.623047" xlink:href="#DejaVuSans-48"/>
      </g>
     </g>
    </g>
    <g id="xtick_3">
     <g id="line2d_5">
      <path clip-path="url(#pf6301ed59d)" d="M 301.850647 333.36 
L 301.850647 7.2 
" style="fill:none;stroke:#b0b0b0;stroke-linecap:square;stroke-width:0.8;"/>
     </g>
     <g id="line2d_6">
      <g>
       <use style="stroke:#000000;" x="301.850647" xlink:href="#m0bde62c469" y="333.36"/>
      </g>
     </g>
     <g id="text_3">
      <!-- 100 -->
      <g transform="translate(288.489397 353.497812)scale(0.14 -0.14)">
       <defs>
        <path d="M 12.40625 8.296875 
L 28.515625 8.296875 
L 28.515625 63.921875 
L 10.984375 60.40625 
L 10.984375 69.390625 
L 28.421875 72.90625 
L 38.28125 72.90625 
L 38.28125 8.296875 
L 54.390625 8.296875 
L 54.390625 0 
L 12.40625 0 
z
" id="DejaVuSans-49"/>
       </defs>
       <use xlink:href="#DejaVuSans-49"/>
       <use x="63.623047" xlink:href="#DejaVuSans-48"/>
       <use x="127.246094" xlink:href="#DejaVuSans-48"/>
      </g>
     </g>
    </g>
    <g id="xtick_4">
     <g id="line2d_7">
      <path clip-path="url(#pf6301ed59d)" d="M 408.864346 333.36 
L 408.864346 7.2 
" style="fill:none;stroke:#b0b0b0;stroke-linecap:square;stroke-width:0.8;"/>
     </g>
     <g id="line2d_8">
      <g>
       <use style="stroke:#000000;" x="408.864346" xlink:href="#m0bde62c469" y="333.36"/>
      </g>
     </g>
     <g id="text_4">
      <!-- 150 -->
      <g transform="translate(395.503096 353.497812)scale(0.14 -0.14)">
       <use xlink:href="#DejaVuSans-49"/>
       <use x="63.623047" xlink:href="#DejaVuSans-53"/>
       <use x="127.246094" xlink:href="#DejaVuSans-48"/>
      </g>
     </g>
    </g>
    <g id="xtick_5">
     <g id="line2d_9">
      <path clip-path="url(#pf6301ed59d)" d="M 515.878045 333.36 
L 515.878045 7.2 
" style="fill:none;stroke:#b0b0b0;stroke-linecap:square;stroke-width:0.8;"/>
     </g>
     <g id="line2d_10">
      <g>
       <use style="stroke:#000000;" x="515.878045" xlink:href="#m0bde62c469" y="333.36"/>
      </g>
     </g>
     <g id="text_5">
      <!-- 200 -->
      <g transform="translate(502.516795 353.497812)scale(0.14 -0.14)">
       <defs>
        <path d="M 19.1875 8.296875 
L 53.609375 8.296875 
L 53.609375 0 
L 7.328125 0 
L 7.328125 8.296875 
Q 12.9375 14.109375 22.625 23.890625 
Q 32.328125 33.6875 34.8125 36.53125 
Q 39.546875 41.84375 41.421875 45.53125 
Q 43.3125 49.21875 43.3125 52.78125 
Q 43.3125 58.59375 39.234375 62.25 
Q 35.15625 65.921875 28.609375 65.921875 
Q 23.96875 65.921875 18.8125 64.3125 
Q 13.671875 62.703125 7.8125 59.421875 
L 7.8125 69.390625 
Q 13.765625 71.78125 18.9375 73 
Q 24.125 74.21875 28.421875 74.21875 
Q 39.75 74.21875 46.484375 68.546875 
Q 53.21875 62.890625 53.21875 53.421875 
Q 53.21875 48.921875 51.53125 44.890625 
Q 49.859375 40.875 45.40625 35.40625 
Q 44.1875 33.984375 37.640625 27.21875 
Q 31.109375 20.453125 19.1875 8.296875 
z
" id="DejaVuSans-50"/>
       </defs>
       <use xlink:href="#DejaVuSans-50"/>
       <use x="63.623047" xlink:href="#DejaVuSans-48"/>
       <use x="127.246094" xlink:href="#DejaVuSans-48"/>
      </g>
     </g>
    </g>
    <g id="xtick_6">
     <g id="line2d_11">
      <path clip-path="url(#pf6301ed59d)" d="M 622.891743 333.36 
L 622.891743 7.2 
" style="fill:none;stroke:#b0b0b0;stroke-linecap:square;stroke-width:0.8;"/>
     </g>
     <g id="line2d_12">
      <g>
       <use style="stroke:#000000;" x="622.891743" xlink:href="#m0bde62c469" y="333.36"/>
      </g>
     </g>
     <g id="text_6">
      <!-- 250 -->
      <g transform="translate(609.530493 353.497812)scale(0.14 -0.14)">
       <use xlink:href="#DejaVuSans-50"/>
       <use x="63.623047" xlink:href="#DejaVuSans-53"/>
       <use x="127.246094" xlink:href="#DejaVuSans-48"/>
      </g>
     </g>
    </g>
    <g id="xtick_7">
     <g id="line2d_13">
      <path clip-path="url(#pf6301ed59d)" d="M 729.905442 333.36 
L 729.905442 7.2 
" style="fill:none;stroke:#b0b0b0;stroke-linecap:square;stroke-width:0.8;"/>
     </g>
     <g id="line2d_14">
      <g>
       <use style="stroke:#000000;" x="729.905442" xlink:href="#m0bde62c469" y="333.36"/>
      </g>
     </g>
     <g id="text_7">
      <!-- 300 -->
      <g transform="translate(716.544192 353.497812)scale(0.14 -0.14)">
       <defs>
        <path d="M 40.578125 39.3125 
Q 47.65625 37.796875 51.625 33 
Q 55.609375 28.21875 55.609375 21.1875 
Q 55.609375 10.40625 48.1875 4.484375 
Q 40.765625 -1.421875 27.09375 -1.421875 
Q 22.515625 -1.421875 17.65625 -0.515625 
Q 12.796875 0.390625 7.625 2.203125 
L 7.625 11.71875 
Q 11.71875 9.328125 16.59375 8.109375 
Q 21.484375 6.890625 26.8125 6.890625 
Q 36.078125 6.890625 40.9375 10.546875 
Q 45.796875 14.203125 45.796875 21.1875 
Q 45.796875 27.640625 41.28125 31.265625 
Q 36.765625 34.90625 28.71875 34.90625 
L 20.21875 34.90625 
L 20.21875 43.015625 
L 29.109375 43.015625 
Q 36.375 43.015625 40.234375 45.921875 
Q 44.09375 48.828125 44.09375 54.296875 
Q 44.09375 59.90625 40.109375 62.90625 
Q 36.140625 65.921875 28.71875 65.921875 
Q 24.65625 65.921875 20.015625 65.03125 
Q 15.375 64.15625 9.8125 62.3125 
L 9.8125 71.09375 
Q 15.4375 72.65625 20.34375 73.4375 
Q 25.25 74.21875 29.59375 74.21875 
Q 40.828125 74.21875 47.359375 69.109375 
Q 53.90625 64.015625 53.90625 55.328125 
Q 53.90625 49.265625 50.4375 45.09375 
Q 46.96875 40.921875 40.578125 39.3125 
z
" id="DejaVuSans-51"/>
       </defs>
       <use xlink:href="#DejaVuSans-51"/>
       <use x="63.623047" xlink:href="#DejaVuSans-48"/>
       <use x="127.246094" xlink:href="#DejaVuSans-48"/>
      </g>
     </g>
    </g>
    <g id="xtick_8">
     <g id="line2d_15">
      <path clip-path="url(#pf6301ed59d)" d="M 836.91914 333.36 
L 836.91914 7.2 
" style="fill:none;stroke:#b0b0b0;stroke-linecap:square;stroke-width:0.8;"/>
     </g>
     <g id="line2d_16">
      <g>
       <use style="stroke:#000000;" x="836.91914" xlink:href="#m0bde62c469" y="333.36"/>
      </g>
     </g>
     <g id="text_8">
      <!-- 350 -->
      <g transform="translate(823.55789 353.497812)scale(0.14 -0.14)">
       <use xlink:href="#DejaVuSans-51"/>
       <use x="63.623047" xlink:href="#DejaVuSans-53"/>
       <use x="127.246094" xlink:href="#DejaVuSans-48"/>
      </g>
     </g>
    </g>
    <g id="text_9">
     <!-- time [day of the year] -->
     <g transform="translate(379.545594 374.086562)scale(0.18 -0.18)">
      <defs>
       <path d="M 18.3125 70.21875 
L 18.3125 54.6875 
L 36.8125 54.6875 
L 36.8125 47.703125 
L 18.3125 47.703125 
L 18.3125 18.015625 
Q 18.3125 11.328125 20.140625 9.421875 
Q 21.96875 7.515625 27.59375 7.515625 
L 36.8125 7.515625 
L 36.8125 0 
L 27.59375 0 
Q 17.1875 0 13.234375 3.875 
Q 9.28125 7.765625 9.28125 18.015625 
L 9.28125 47.703125 
L 2.6875 47.703125 
L 2.6875 54.6875 
L 9.28125 54.6875 
L 9.28125 70.21875 
z
" id="DejaVuSans-116"/>
       <path d="M 9.421875 54.6875 
L 18.40625 54.6875 
L 18.40625 0 
L 9.421875 0 
z
M 9.421875 75.984375 
L 18.40625 75.984375 
L 18.40625 64.59375 
L 9.421875 64.59375 
z
" id="DejaVuSans-105"/>
       <path d="M 52 44.1875 
Q 55.375 50.25 60.0625 53.125 
Q 64.75 56 71.09375 56 
Q 79.640625 56 84.28125 50.015625 
Q 88.921875 44.046875 88.921875 33.015625 
L 88.921875 0 
L 79.890625 0 
L 79.890625 32.71875 
Q 79.890625 40.578125 77.09375 44.375 
Q 74.3125 48.1875 68.609375 48.1875 
Q 61.625 48.1875 57.5625 43.546875 
Q 53.515625 38.921875 53.515625 30.90625 
L 53.515625 0 
L 44.484375 0 
L 44.484375 32.71875 
Q 44.484375 40.625 41.703125 44.40625 
Q 38.921875 48.1875 33.109375 48.1875 
Q 26.21875 48.1875 22.15625 43.53125 
Q 18.109375 38.875 18.109375 30.90625 
L 18.109375 0 
L 9.078125 0 
L 9.078125 54.6875 
L 18.109375 54.6875 
L 18.109375 46.1875 
Q 21.1875 51.21875 25.484375 53.609375 
Q 29.78125 56 35.6875 56 
Q 41.65625 56 45.828125 52.96875 
Q 50 49.953125 52 44.1875 
z
" id="DejaVuSans-109"/>
       <path d="M 56.203125 29.59375 
L 56.203125 25.203125 
L 14.890625 25.203125 
Q 15.484375 15.921875 20.484375 11.0625 
Q 25.484375 6.203125 34.421875 6.203125 
Q 39.59375 6.203125 44.453125 7.46875 
Q 49.3125 8.734375 54.109375 11.28125 
L 54.109375 2.78125 
Q 49.265625 0.734375 44.1875 -0.34375 
Q 39.109375 -1.421875 33.890625 -1.421875 
Q 20.796875 -1.421875 13.15625 6.1875 
Q 5.515625 13.8125 5.515625 26.8125 
Q 5.515625 40.234375 12.765625 48.109375 
Q 20.015625 56 32.328125 56 
Q 43.359375 56 49.78125 48.890625 
Q 56.203125 41.796875 56.203125 29.59375 
z
M 47.21875 32.234375 
Q 47.125 39.59375 43.09375 43.984375 
Q 39.0625 48.390625 32.421875 48.390625 
Q 24.90625 48.390625 20.390625 44.140625 
Q 15.875 39.890625 15.1875 32.171875 
z
" id="DejaVuSans-101"/>
       <path id="DejaVuSans-32"/>
       <path d="M 8.59375 75.984375 
L 29.296875 75.984375 
L 29.296875 69 
L 17.578125 69 
L 17.578125 -6.203125 
L 29.296875 -6.203125 
L 29.296875 -13.1875 
L 8.59375 -13.1875 
z
" id="DejaVuSans-91"/>
       <path d="M 45.40625 46.390625 
L 45.40625 75.984375 
L 54.390625 75.984375 
L 54.390625 0 
L 45.40625 0 
L 45.40625 8.203125 
Q 42.578125 3.328125 38.25 0.953125 
Q 33.9375 -1.421875 27.875 -1.421875 
Q 17.96875 -1.421875 11.734375 6.484375 
Q 5.515625 14.40625 5.515625 27.296875 
Q 5.515625 40.1875 11.734375 48.09375 
Q 17.96875 56 27.875 56 
Q 33.9375 56 38.25 53.625 
Q 42.578125 51.265625 45.40625 46.390625 
z
M 14.796875 27.296875 
Q 14.796875 17.390625 18.875 11.75 
Q 22.953125 6.109375 30.078125 6.109375 
Q 37.203125 6.109375 41.296875 11.75 
Q 45.40625 17.390625 45.40625 27.296875 
Q 45.40625 37.203125 41.296875 42.84375 
Q 37.203125 48.484375 30.078125 48.484375 
Q 22.953125 48.484375 18.875 42.84375 
Q 14.796875 37.203125 14.796875 27.296875 
z
" id="DejaVuSans-100"/>
       <path d="M 34.28125 27.484375 
Q 23.390625 27.484375 19.1875 25 
Q 14.984375 22.515625 14.984375 16.5 
Q 14.984375 11.71875 18.140625 8.90625 
Q 21.296875 6.109375 26.703125 6.109375 
Q 34.1875 6.109375 38.703125 11.40625 
Q 43.21875 16.703125 43.21875 25.484375 
L 43.21875 27.484375 
z
M 52.203125 31.203125 
L 52.203125 0 
L 43.21875 0 
L 43.21875 8.296875 
Q 40.140625 3.328125 35.546875 0.953125 
Q 30.953125 -1.421875 24.3125 -1.421875 
Q 15.921875 -1.421875 10.953125 3.296875 
Q 6 8.015625 6 15.921875 
Q 6 25.140625 12.171875 29.828125 
Q 18.359375 34.515625 30.609375 34.515625 
L 43.21875 34.515625 
L 43.21875 35.40625 
Q 43.21875 41.609375 39.140625 45 
Q 35.0625 48.390625 27.6875 48.390625 
Q 23 48.390625 18.546875 47.265625 
Q 14.109375 46.140625 10.015625 43.890625 
L 10.015625 52.203125 
Q 14.9375 54.109375 19.578125 55.046875 
Q 24.21875 56 28.609375 56 
Q 40.484375 56 46.34375 49.84375 
Q 52.203125 43.703125 52.203125 31.203125 
z
" id="DejaVuSans-97"/>
       <path d="M 32.171875 -5.078125 
Q 28.375 -14.84375 24.75 -17.8125 
Q 21.140625 -20.796875 15.09375 -20.796875 
L 7.90625 -20.796875 
L 7.90625 -13.28125 
L 13.1875 -13.28125 
Q 16.890625 -13.28125 18.9375 -11.515625 
Q 21 -9.765625 23.484375 -3.21875 
L 25.09375 0.875 
L 2.984375 54.6875 
L 12.5 54.6875 
L 29.59375 11.921875 
L 46.6875 54.6875 
L 56.203125 54.6875 
z
" id="DejaVuSans-121"/>
       <path d="M 30.609375 48.390625 
Q 23.390625 48.390625 19.1875 42.75 
Q 14.984375 37.109375 14.984375 27.296875 
Q 14.984375 17.484375 19.15625 11.84375 
Q 23.34375 6.203125 30.609375 6.203125 
Q 37.796875 6.203125 41.984375 11.859375 
Q 46.1875 17.53125 46.1875 27.296875 
Q 46.1875 37.015625 41.984375 42.703125 
Q 37.796875 48.390625 30.609375 48.390625 
z
M 30.609375 56 
Q 42.328125 56 49.015625 48.375 
Q 55.71875 40.765625 55.71875 27.296875 
Q 55.71875 13.875 49.015625 6.21875 
Q 42.328125 -1.421875 30.609375 -1.421875 
Q 18.84375 -1.421875 12.171875 6.21875 
Q 5.515625 13.875 5.515625 27.296875 
Q 5.515625 40.765625 12.171875 48.375 
Q 18.84375 56 30.609375 56 
z
" id="DejaVuSans-111"/>
       <path d="M 37.109375 75.984375 
L 37.109375 68.5 
L 28.515625 68.5 
Q 23.6875 68.5 21.796875 66.546875 
Q 19.921875 64.59375 19.921875 59.515625 
L 19.921875 54.6875 
L 34.71875 54.6875 
L 34.71875 47.703125 
L 19.921875 47.703125 
L 19.921875 0 
L 10.890625 0 
L 10.890625 47.703125 
L 2.296875 47.703125 
L 2.296875 54.6875 
L 10.890625 54.6875 
L 10.890625 58.5 
Q 10.890625 67.625 15.140625 71.796875 
Q 19.390625 75.984375 28.609375 75.984375 
z
" id="DejaVuSans-102"/>
       <path d="M 54.890625 33.015625 
L 54.890625 0 
L 45.90625 0 
L 45.90625 32.71875 
Q 45.90625 40.484375 42.875 44.328125 
Q 39.84375 48.1875 33.796875 48.1875 
Q 26.515625 48.1875 22.3125 43.546875 
Q 18.109375 38.921875 18.109375 30.90625 
L 18.109375 0 
L 9.078125 0 
L 9.078125 75.984375 
L 18.109375 75.984375 
L 18.109375 46.1875 
Q 21.34375 51.125 25.703125 53.5625 
Q 30.078125 56 35.796875 56 
Q 45.21875 56 50.046875 50.171875 
Q 54.890625 44.34375 54.890625 33.015625 
z
" id="DejaVuSans-104"/>
       <path d="M 41.109375 46.296875 
Q 39.59375 47.171875 37.8125 47.578125 
Q 36.03125 48 33.890625 48 
Q 26.265625 48 22.1875 43.046875 
Q 18.109375 38.09375 18.109375 28.8125 
L 18.109375 0 
L 9.078125 0 
L 9.078125 54.6875 
L 18.109375 54.6875 
L 18.109375 46.1875 
Q 20.953125 51.171875 25.484375 53.578125 
Q 30.03125 56 36.53125 56 
Q 37.453125 56 38.578125 55.875 
Q 39.703125 55.765625 41.0625 55.515625 
z
" id="DejaVuSans-114"/>
       <path d="M 30.421875 75.984375 
L 30.421875 -13.1875 
L 9.71875 -13.1875 
L 9.71875 -6.203125 
L 21.390625 -6.203125 
L 21.390625 69 
L 9.71875 69 
L 9.71875 75.984375 
z
" id="DejaVuSans-93"/>
      </defs>
      <use xlink:href="#DejaVuSans-116"/>
      <use x="39.208984" xlink:href="#DejaVuSans-105"/>
      <use x="66.992188" xlink:href="#DejaVuSans-109"/>
      <use x="164.404297" xlink:href="#DejaVuSans-101"/>
      <use x="225.927734" xlink:href="#DejaVuSans-32"/>
      <use x="257.714844" xlink:href="#DejaVuSans-91"/>
      <use x="296.728516" xlink:href="#DejaVuSans-100"/>
      <use x="360.205078" xlink:href="#DejaVuSans-97"/>
      <use x="421.484375" xlink:href="#DejaVuSans-121"/>
      <use x="480.664062" xlink:href="#DejaVuSans-32"/>
      <use x="512.451172" xlink:href="#DejaVuSans-111"/>
      <use x="573.632812" xlink:href="#DejaVuSans-102"/>
      <use x="608.837891" xlink:href="#DejaVuSans-32"/>
      <use x="640.625" xlink:href="#DejaVuSans-116"/>
      <use x="679.833984" xlink:href="#DejaVuSans-104"/>
      <use x="743.212891" xlink:href="#DejaVuSans-101"/>
      <use x="804.736328" xlink:href="#DejaVuSans-32"/>
      <use x="836.523438" xlink:href="#DejaVuSans-121"/>
      <use x="895.703125" xlink:href="#DejaVuSans-101"/>
      <use x="957.226562" xlink:href="#DejaVuSans-97"/>
      <use x="1018.505859" xlink:href="#DejaVuSans-114"/>
      <use x="1059.619141" xlink:href="#DejaVuSans-93"/>
     </g>
    </g>
   </g>
   <g id="matplotlib.axis_2">
    <g id="ytick_1">
     <g id="line2d_17">
      <path clip-path="url(#pf6301ed59d)" d="M 87.82325 311.717143 
L 869.02325 311.717143 
" style="fill:none;stroke:#b0b0b0;stroke-linecap:square;stroke-width:0.8;"/>
     </g>
     <g id="line2d_18">
      <defs>
       <path d="M 0 0 
L -6 0 
" id="m78be79c37e" style="stroke:#000000;"/>
      </defs>
      <g>
       <use style="stroke:#000000;" x="87.82325" xlink:href="#m78be79c37e" y="311.717143"/>
      </g>
     </g>
     <g id="text_10">
      <!-- −20 -->
      <g transform="translate(48.776687 317.036049)scale(0.14 -0.14)">
       <defs>
        <path d="M 10.59375 35.5 
L 73.1875 35.5 
L 73.1875 27.203125 
L 10.59375 27.203125 
z
" id="DejaVuSans-8722"/>
       </defs>
       <use xlink:href="#DejaVuSans-8722"/>
       <use x="83.789062" xlink:href="#DejaVuSans-50"/>
       <use x="147.412109" xlink:href="#DejaVuSans-48"/>
      </g>
     </g>
    </g>
    <g id="ytick_2">
     <g id="line2d_19">
      <path clip-path="url(#pf6301ed59d)" d="M 87.82325 265.626391 
L 869.02325 265.626391 
" style="fill:none;stroke:#b0b0b0;stroke-linecap:square;stroke-width:0.8;"/>
     </g>
     <g id="line2d_20">
      <g>
       <use style="stroke:#000000;" x="87.82325" xlink:href="#m78be79c37e" y="265.626391"/>
      </g>
     </g>
     <g id="text_11">
      <!-- −10 -->
      <g transform="translate(48.776687 270.945298)scale(0.14 -0.14)">
       <use xlink:href="#DejaVuSans-8722"/>
       <use x="83.789062" xlink:href="#DejaVuSans-49"/>
       <use x="147.412109" xlink:href="#DejaVuSans-48"/>
      </g>
     </g>
    </g>
    <g id="ytick_3">
     <g id="line2d_21">
      <path clip-path="url(#pf6301ed59d)" d="M 87.82325 219.53564 
L 869.02325 219.53564 
" style="fill:none;stroke:#b0b0b0;stroke-linecap:square;stroke-width:0.8;"/>
     </g>
     <g id="line2d_22">
      <g>
       <use style="stroke:#000000;" x="87.82325" xlink:href="#m78be79c37e" y="219.53564"/>
      </g>
     </g>
     <g id="text_12">
      <!-- 0 -->
      <g transform="translate(69.41575 224.854546)scale(0.14 -0.14)">
       <use xlink:href="#DejaVuSans-48"/>
      </g>
     </g>
    </g>
    <g id="ytick_4">
     <g id="line2d_23">
      <path clip-path="url(#pf6301ed59d)" d="M 87.82325 173.444889 
L 869.02325 173.444889 
" style="fill:none;stroke:#b0b0b0;stroke-linecap:square;stroke-width:0.8;"/>
     </g>
     <g id="line2d_24">
      <g>
       <use style="stroke:#000000;" x="87.82325" xlink:href="#m78be79c37e" y="173.444889"/>
      </g>
     </g>
     <g id="text_13">
      <!-- 10 -->
      <g transform="translate(60.50825 178.763795)scale(0.14 -0.14)">
       <use xlink:href="#DejaVuSans-49"/>
       <use x="63.623047" xlink:href="#DejaVuSans-48"/>
      </g>
     </g>
    </g>
    <g id="ytick_5">
     <g id="line2d_25">
      <path clip-path="url(#pf6301ed59d)" d="M 87.82325 127.354137 
L 869.02325 127.354137 
" style="fill:none;stroke:#b0b0b0;stroke-linecap:square;stroke-width:0.8;"/>
     </g>
     <g id="line2d_26">
      <g>
       <use style="stroke:#000000;" x="87.82325" xlink:href="#m78be79c37e" y="127.354137"/>
      </g>
     </g>
     <g id="text_14">
      <!-- 20 -->
      <g transform="translate(60.50825 132.673044)scale(0.14 -0.14)">
       <use xlink:href="#DejaVuSans-50"/>
       <use x="63.623047" xlink:href="#DejaVuSans-48"/>
      </g>
     </g>
    </g>
    <g id="ytick_6">
     <g id="line2d_27">
      <path clip-path="url(#pf6301ed59d)" d="M 87.82325 81.263386 
L 869.02325 81.263386 
" style="fill:none;stroke:#b0b0b0;stroke-linecap:square;stroke-width:0.8;"/>
     </g>
     <g id="line2d_28">
      <g>
       <use style="stroke:#000000;" x="87.82325" xlink:href="#m78be79c37e" y="81.263386"/>
      </g>
     </g>
     <g id="text_15">
      <!-- 30 -->
      <g transform="translate(60.50825 86.582292)scale(0.14 -0.14)">
       <use xlink:href="#DejaVuSans-51"/>
       <use x="63.623047" xlink:href="#DejaVuSans-48"/>
      </g>
     </g>
    </g>
    <g id="ytick_7">
     <g id="line2d_29">
      <path clip-path="url(#pf6301ed59d)" d="M 87.82325 35.172635 
L 869.02325 35.172635 
" style="fill:none;stroke:#b0b0b0;stroke-linecap:square;stroke-width:0.8;"/>
     </g>
     <g id="line2d_30">
      <g>
       <use style="stroke:#000000;" x="87.82325" xlink:href="#m78be79c37e" y="35.172635"/>
      </g>
     </g>
     <g id="text_16">
      <!-- 40 -->
      <g transform="translate(60.50825 40.491541)scale(0.14 -0.14)">
       <defs>
        <path d="M 37.796875 64.3125 
L 12.890625 25.390625 
L 37.796875 25.390625 
z
M 35.203125 72.90625 
L 47.609375 72.90625 
L 47.609375 25.390625 
L 58.015625 25.390625 
L 58.015625 17.1875 
L 47.609375 17.1875 
L 47.609375 0 
L 37.796875 0 
L 37.796875 17.1875 
L 4.890625 17.1875 
L 4.890625 26.703125 
z
" id="DejaVuSans-52"/>
       </defs>
       <use xlink:href="#DejaVuSans-52"/>
       <use x="63.623047" xlink:href="#DejaVuSans-48"/>
      </g>
     </g>
    </g>
    <g id="text_17">
     <!-- detrended -->
     <g transform="translate(20.877187 216.763594)rotate(-90)scale(0.18 -0.18)">
      <defs>
       <path d="M 54.890625 33.015625 
L 54.890625 0 
L 45.90625 0 
L 45.90625 32.71875 
Q 45.90625 40.484375 42.875 44.328125 
Q 39.84375 48.1875 33.796875 48.1875 
Q 26.515625 48.1875 22.3125 43.546875 
Q 18.109375 38.921875 18.109375 30.90625 
L 18.109375 0 
L 9.078125 0 
L 9.078125 54.6875 
L 18.109375 54.6875 
L 18.109375 46.1875 
Q 21.34375 51.125 25.703125 53.5625 
Q 30.078125 56 35.796875 56 
Q 45.21875 56 50.046875 50.171875 
Q 54.890625 44.34375 54.890625 33.015625 
z
" id="DejaVuSans-110"/>
      </defs>
      <use xlink:href="#DejaVuSans-100"/>
      <use x="63.476562" xlink:href="#DejaVuSans-101"/>
      <use x="125" xlink:href="#DejaVuSans-116"/>
      <use x="164.208984" xlink:href="#DejaVuSans-114"/>
      <use x="203.072266" xlink:href="#DejaVuSans-101"/>
      <use x="264.595703" xlink:href="#DejaVuSans-110"/>
      <use x="327.974609" xlink:href="#DejaVuSans-100"/>
      <use x="391.451172" xlink:href="#DejaVuSans-101"/>
      <use x="452.974609" xlink:href="#DejaVuSans-100"/>
     </g>
     <!--  deformation [mm] -->
     <g transform="translate(41.03325 255.546562)rotate(-90)scale(0.18 -0.18)">
      <use xlink:href="#DejaVuSans-32"/>
      <use x="31.787109" xlink:href="#DejaVuSans-100"/>
      <use x="95.263672" xlink:href="#DejaVuSans-101"/>
      <use x="156.787109" xlink:href="#DejaVuSans-102"/>
      <use x="191.992188" xlink:href="#DejaVuSans-111"/>
      <use x="253.173828" xlink:href="#DejaVuSans-114"/>
      <use x="292.537109" xlink:href="#DejaVuSans-109"/>
      <use x="389.949219" xlink:href="#DejaVuSans-97"/>
      <use x="451.228516" xlink:href="#DejaVuSans-116"/>
      <use x="490.4375" xlink:href="#DejaVuSans-105"/>
      <use x="518.220703" xlink:href="#DejaVuSans-111"/>
      <use x="579.402344" xlink:href="#DejaVuSans-110"/>
      <use x="642.78125" xlink:href="#DejaVuSans-32"/>
      <use x="674.568359" xlink:href="#DejaVuSans-91"/>
      <use x="713.582031" xlink:href="#DejaVuSans-109"/>
      <use x="810.994141" xlink:href="#DejaVuSans-109"/>
      <use x="908.40625" xlink:href="#DejaVuSans-93"/>
     </g>
    </g>
   </g>
   <g id="line2d_31">
    <path clip-path="url(#pf6301ed59d)" d="M 710.642976 140.353345 
L 762.009551 299.527728 
L 813.376127 119.264036 
L 864.742702 313.971668 
" style="fill:none;stroke:#1f77b4;stroke-dasharray:5.12,1.28,0.8,1.28;stroke-dashoffset:0;stroke-width:0.8;"/>
    <defs>
     <path d="M 0 3 
C 0.795609 3 1.55874 2.683901 2.12132 2.12132 
C 2.683901 1.55874 3 0.795609 3 0 
C 3 -0.795609 2.683901 -1.55874 2.12132 -2.12132 
C 1.55874 -2.683901 0.795609 -3 0 -3 
C -0.795609 -3 -1.55874 -2.683901 -2.12132 -2.12132 
C -2.683901 -1.55874 -3 -0.795609 -3 0 
C -3 0.795609 -2.683901 1.55874 -2.12132 2.12132 
C -1.55874 2.683901 -0.795609 3 0 3 
z
" id="mf9da6747e4" style="stroke:#1f77b4;"/>
    </defs>
    <g clip-path="url(#pf6301ed59d)">
     <use style="fill:#ffffff;stroke:#1f77b4;" x="710.642976" xlink:href="#mf9da6747e4" y="140.353345"/>
     <use style="fill:#ffffff;stroke:#1f77b4;" x="762.009551" xlink:href="#mf9da6747e4" y="299.527728"/>
     <use style="fill:#ffffff;stroke:#1f77b4;" x="813.376127" xlink:href="#mf9da6747e4" y="119.264036"/>
     <use style="fill:#ffffff;stroke:#1f77b4;" x="864.742702" xlink:href="#mf9da6747e4" y="313.971668"/>
    </g>
   </g>
   <g id="line2d_32">
    <path clip-path="url(#pf6301ed59d)" d="M 134.909277 61.170523 
L 186.275853 298.064605 
L 211.95914 159.845872 
L 263.325716 225.348236 
L 468.792017 187.486617 
L 520.158592 246.661042 
L 571.525168 233.976468 
L 622.891743 176.642955 
L 828.358045 241.408 
" style="fill:none;stroke:#ff7f0e;stroke-dasharray:5.12,1.28,0.8,1.28;stroke-dashoffset:0;stroke-width:0.8;"/>
    <defs>
     <path d="M 0 3 
C 0.795609 3 1.55874 2.683901 2.12132 2.12132 
C 2.683901 1.55874 3 0.795609 3 0 
C 3 -0.795609 2.683901 -1.55874 2.12132 -2.12132 
C 1.55874 -2.683901 0.795609 -3 0 -3 
C -0.795609 -3 -1.55874 -2.683901 -2.12132 -2.12132 
C -2.683901 -1.55874 -3 -0.795609 -3 0 
C -3 0.795609 -2.683901 1.55874 -2.12132 2.12132 
C -1.55874 2.683901 -0.795609 3 0 3 
z
" id="m9f98a2a4e0" style="stroke:#ff7f0e;"/>
    </defs>
    <g clip-path="url(#pf6301ed59d)">
     <use style="fill:#ffffff;stroke:#ff7f0e;" x="134.909277" xlink:href="#m9f98a2a4e0" y="61.170523"/>
     <use style="fill:#ffffff;stroke:#ff7f0e;" x="186.275853" xlink:href="#m9f98a2a4e0" y="298.064605"/>
     <use style="fill:#ffffff;stroke:#ff7f0e;" x="211.95914" xlink:href="#m9f98a2a4e0" y="159.845872"/>
     <use style="fill:#ffffff;stroke:#ff7f0e;" x="263.325716" xlink:href="#m9f98a2a4e0" y="225.348236"/>
     <use style="fill:#ffffff;stroke:#ff7f0e;" x="468.792017" xlink:href="#m9f98a2a4e0" y="187.486617"/>
     <use style="fill:#ffffff;stroke:#ff7f0e;" x="520.158592" xlink:href="#m9f98a2a4e0" y="246.661042"/>
     <use style="fill:#ffffff;stroke:#ff7f0e;" x="571.525168" xlink:href="#m9f98a2a4e0" y="233.976468"/>
     <use style="fill:#ffffff;stroke:#ff7f0e;" x="622.891743" xlink:href="#m9f98a2a4e0" y="176.642955"/>
     <use style="fill:#ffffff;stroke:#ff7f0e;" x="828.358045" xlink:href="#m9f98a2a4e0" y="241.408"/>
    </g>
   </g>
   <g id="line2d_33">
    <path clip-path="url(#pf6301ed59d)" d="M 98.52462 147.7405 
L 252.624346 227.881642 
L 303.990921 250.626625 
L 355.357497 153.561887 
L 406.724072 238.420868 
L 509.457223 166.699362 
L 560.823798 255.801514 
L 612.190373 226.857723 
L 676.398592 116.367918 
L 727.765168 285.49705 
L 779.131743 205.884483 
L 830.498318 143.646637 
" style="fill:none;stroke:#2ca02c;stroke-dasharray:5.12,1.28,0.8,1.28;stroke-dashoffset:0;stroke-width:0.8;"/>
    <defs>
     <path d="M 0 3 
C 0.795609 3 1.55874 2.683901 2.12132 2.12132 
C 2.683901 1.55874 3 0.795609 3 0 
C 3 -0.795609 2.683901 -1.55874 2.12132 -2.12132 
C 1.55874 -2.683901 0.795609 -3 0 -3 
C -0.795609 -3 -1.55874 -2.683901 -2.12132 -2.12132 
C -2.683901 -1.55874 -3 -0.795609 -3 0 
C -3 0.795609 -2.683901 1.55874 -2.12132 2.12132 
C -1.55874 2.683901 -0.795609 3 0 3 
z
" id="m7295bfb912" style="stroke:#2ca02c;"/>
    </defs>
    <g clip-path="url(#pf6301ed59d)">
     <use style="fill:#ffffff;stroke:#2ca02c;" x="98.52462" xlink:href="#m7295bfb912" y="147.7405"/>
     <use style="fill:#ffffff;stroke:#2ca02c;" x="252.624346" xlink:href="#m7295bfb912" y="227.881642"/>
     <use style="fill:#ffffff;stroke:#2ca02c;" x="303.990921" xlink:href="#m7295bfb912" y="250.626625"/>
     <use style="fill:#ffffff;stroke:#2ca02c;" x="355.357497" xlink:href="#m7295bfb912" y="153.561887"/>
     <use style="fill:#ffffff;stroke:#2ca02c;" x="406.724072" xlink:href="#m7295bfb912" y="238.420868"/>
     <use style="fill:#ffffff;stroke:#2ca02c;" x="509.457223" xlink:href="#m7295bfb912" y="166.699362"/>
     <use style="fill:#ffffff;stroke:#2ca02c;" x="560.823798" xlink:href="#m7295bfb912" y="255.801514"/>
     <use style="fill:#ffffff;stroke:#2ca02c;" x="612.190373" xlink:href="#m7295bfb912" y="226.857723"/>
     <use style="fill:#ffffff;stroke:#2ca02c;" x="676.398592" xlink:href="#m7295bfb912" y="116.367918"/>
     <use style="fill:#ffffff;stroke:#2ca02c;" x="727.765168" xlink:href="#m7295bfb912" y="285.49705"/>
     <use style="fill:#ffffff;stroke:#2ca02c;" x="779.131743" xlink:href="#m7295bfb912" y="205.884483"/>
     <use style="fill:#ffffff;stroke:#2ca02c;" x="830.498318" xlink:href="#m7295bfb912" y="143.646637"/>
    </g>
   </g>
   <g id="line2d_34">
    <path clip-path="url(#pf6301ed59d)" d="M 98.52462 278.099996 
L 149.891195 215.920664 
L 201.257771 240.789668 
L 226.941058 121.346466 
L 252.624346 301.643336 
L 278.307634 174.007836 
L 303.990921 145.920687 
L 329.674209 277.934688 
L 355.357497 136.916618 
L 381.040784 213.131595 
L 406.724072 222.298968 
L 432.40736 236.170044 
L 458.090647 210.676906 
L 483.773935 162.907122 
L 509.457223 231.168111 
L 535.14051 279.167554 
L 560.823798 22.025455 
" style="fill:none;stroke:#d62728;stroke-dasharray:5.12,1.28,0.8,1.28;stroke-dashoffset:0;stroke-width:0.8;"/>
    <defs>
     <path d="M 0 3 
C 0.795609 3 1.55874 2.683901 2.12132 2.12132 
C 2.683901 1.55874 3 0.795609 3 0 
C 3 -0.795609 2.683901 -1.55874 2.12132 -2.12132 
C 1.55874 -2.683901 0.795609 -3 0 -3 
C -0.795609 -3 -1.55874 -2.683901 -2.12132 -2.12132 
C -2.683901 -1.55874 -3 -0.795609 -3 0 
C -3 0.795609 -2.683901 1.55874 -2.12132 2.12132 
C -1.55874 2.683901 -0.795609 3 0 3 
z
" id="m7e833f9b14" style="stroke:#d62728;"/>
    </defs>
    <g clip-path="url(#pf6301ed59d)">
     <use style="fill:#ffffff;stroke:#d62728;" x="98.52462" xlink:href="#m7e833f9b14" y="278.099996"/>
     <use style="fill:#ffffff;stroke:#d62728;" x="149.891195" xlink:href="#m7e833f9b14" y="215.920664"/>
     <use style="fill:#ffffff;stroke:#d62728;" x="201.257771" xlink:href="#m7e833f9b14" y="240.789668"/>
     <use style="fill:#ffffff;stroke:#d62728;" x="226.941058" xlink:href="#m7e833f9b14" y="121.346466"/>
     <use style="fill:#ffffff;stroke:#d62728;" x="252.624346" xlink:href="#m7e833f9b14" y="301.643336"/>
     <use style="fill:#ffffff;stroke:#d62728;" x="278.307634" xlink:href="#m7e833f9b14" y="174.007836"/>
     <use style="fill:#ffffff;stroke:#d62728;" x="303.990921" xlink:href="#m7e833f9b14" y="145.920687"/>
     <use style="fill:#ffffff;stroke:#d62728;" x="329.674209" xlink:href="#m7e833f9b14" y="277.934688"/>
     <use style="fill:#ffffff;stroke:#d62728;" x="355.357497" xlink:href="#m7e833f9b14" y="136.916618"/>
     <use style="fill:#ffffff;stroke:#d62728;" x="381.040784" xlink:href="#m7e833f9b14" y="213.131595"/>
     <use style="fill:#ffffff;stroke:#d62728;" x="406.724072" xlink:href="#m7e833f9b14" y="222.298968"/>
     <use style="fill:#ffffff;stroke:#d62728;" x="432.40736" xlink:href="#m7e833f9b14" y="236.170044"/>
     <use style="fill:#ffffff;stroke:#d62728;" x="458.090647" xlink:href="#m7e833f9b14" y="210.676906"/>
     <use style="fill:#ffffff;stroke:#d62728;" x="483.773935" xlink:href="#m7e833f9b14" y="162.907122"/>
     <use style="fill:#ffffff;stroke:#d62728;" x="509.457223" xlink:href="#m7e833f9b14" y="231.168111"/>
     <use style="fill:#ffffff;stroke:#d62728;" x="535.14051" xlink:href="#m7e833f9b14" y="279.167554"/>
     <use style="fill:#ffffff;stroke:#d62728;" x="560.823798" xlink:href="#m7e833f9b14" y="22.025455"/>
    </g>
   </g>
   <g id="line2d_35">
    <path clip-path="url(#pf6301ed59d)" d="M 396.022702 175.24777 
L 421.70599 229.79297 
L 447.389277 266.486795 
L 524.43914 246.034939 
L 575.805716 174.747591 
L 601.489003 227.412196 
L 627.172291 146.444215 
L 652.855579 318.534545 
L 755.588729 151.259495 
L 781.272017 194.78943 
L 832.638592 217.387795 
L 858.32188 251.493728 
" style="fill:none;stroke:#9467bd;stroke-dasharray:5.12,1.28,0.8,1.28;stroke-dashoffset:0;stroke-width:0.8;"/>
    <defs>
     <path d="M 0 3 
C 0.795609 3 1.55874 2.683901 2.12132 2.12132 
C 2.683901 1.55874 3 0.795609 3 0 
C 3 -0.795609 2.683901 -1.55874 2.12132 -2.12132 
C 1.55874 -2.683901 0.795609 -3 0 -3 
C -0.795609 -3 -1.55874 -2.683901 -2.12132 -2.12132 
C -2.683901 -1.55874 -3 -0.795609 -3 0 
C -3 0.795609 -2.683901 1.55874 -2.12132 2.12132 
C -1.55874 2.683901 -0.795609 3 0 3 
z
" id="m3a7558f3b8" style="stroke:#9467bd;"/>
    </defs>
    <g clip-path="url(#pf6301ed59d)">
     <use style="fill:#ffffff;stroke:#9467bd;" x="396.022702" xlink:href="#m3a7558f3b8" y="175.24777"/>
     <use style="fill:#ffffff;stroke:#9467bd;" x="421.70599" xlink:href="#m3a7558f3b8" y="229.79297"/>
     <use style="fill:#ffffff;stroke:#9467bd;" x="447.389277" xlink:href="#m3a7558f3b8" y="266.486795"/>
     <use style="fill:#ffffff;stroke:#9467bd;" x="524.43914" xlink:href="#m3a7558f3b8" y="246.034939"/>
     <use style="fill:#ffffff;stroke:#9467bd;" x="575.805716" xlink:href="#m3a7558f3b8" y="174.747591"/>
     <use style="fill:#ffffff;stroke:#9467bd;" x="601.489003" xlink:href="#m3a7558f3b8" y="227.412196"/>
     <use style="fill:#ffffff;stroke:#9467bd;" x="627.172291" xlink:href="#m3a7558f3b8" y="146.444215"/>
     <use style="fill:#ffffff;stroke:#9467bd;" x="652.855579" xlink:href="#m3a7558f3b8" y="318.534545"/>
     <use style="fill:#ffffff;stroke:#9467bd;" x="755.588729" xlink:href="#m3a7558f3b8" y="151.259495"/>
     <use style="fill:#ffffff;stroke:#9467bd;" x="781.272017" xlink:href="#m3a7558f3b8" y="194.78943"/>
     <use style="fill:#ffffff;stroke:#9467bd;" x="832.638592" xlink:href="#m3a7558f3b8" y="217.387795"/>
     <use style="fill:#ffffff;stroke:#9467bd;" x="858.32188" xlink:href="#m3a7558f3b8" y="251.493728"/>
    </g>
   </g>
   <g id="line2d_36">
    <path clip-path="url(#pf6301ed59d)" d="M 102.805168 148.725193 
L 128.488455 224.374902 
L 154.171743 217.768837 
L 179.855031 316.913886 
L 205.538318 116.350969 
L 231.221606 265.82275 
L 256.904894 137.505763 
L 282.588182 219.477548 
L 308.271469 294.674058 
L 333.954757 154.370002 
L 359.638045 164.820666 
L 385.321332 182.315825 
L 411.00462 264.932034 
L 436.687908 173.353883 
L 462.371195 268.398475 
L 488.054483 199.109946 
L 513.737771 179.376007 
L 539.421058 224.155194 
L 565.104346 215.106185 
L 590.787634 183.496296 
L 616.470921 209.112967 
L 642.154209 245.708331 
L 667.837497 243.853266 
L 693.520784 154.807025 
L 719.204072 266.600658 
L 744.88736 191.616823 
L 770.570647 214.673381 
L 796.253935 163.289957 
L 821.937223 242.619064 
L 847.62051 212.778579 
" style="fill:none;stroke:#8c564b;stroke-dasharray:5.12,1.28,0.8,1.28;stroke-dashoffset:0;stroke-width:0.8;"/>
    <defs>
     <path d="M 0 3 
C 0.795609 3 1.55874 2.683901 2.12132 2.12132 
C 2.683901 1.55874 3 0.795609 3 0 
C 3 -0.795609 2.683901 -1.55874 2.12132 -2.12132 
C 1.55874 -2.683901 0.795609 -3 0 -3 
C -0.795609 -3 -1.55874 -2.683901 -2.12132 -2.12132 
C -2.683901 -1.55874 -3 -0.795609 -3 0 
C -3 0.795609 -2.683901 1.55874 -2.12132 2.12132 
C -1.55874 2.683901 -0.795609 3 0 3 
z
" id="m7579fb1c09" style="stroke:#8c564b;"/>
    </defs>
    <g clip-path="url(#pf6301ed59d)">
     <use style="fill:#ffffff;stroke:#8c564b;" x="102.805168" xlink:href="#m7579fb1c09" y="148.725193"/>
     <use style="fill:#ffffff;stroke:#8c564b;" x="128.488455" xlink:href="#m7579fb1c09" y="224.374902"/>
     <use style="fill:#ffffff;stroke:#8c564b;" x="154.171743" xlink:href="#m7579fb1c09" y="217.768837"/>
     <use style="fill:#ffffff;stroke:#8c564b;" x="179.855031" xlink:href="#m7579fb1c09" y="316.913886"/>
     <use style="fill:#ffffff;stroke:#8c564b;" x="205.538318" xlink:href="#m7579fb1c09" y="116.350969"/>
     <use style="fill:#ffffff;stroke:#8c564b;" x="231.221606" xlink:href="#m7579fb1c09" y="265.82275"/>
     <use style="fill:#ffffff;stroke:#8c564b;" x="256.904894" xlink:href="#m7579fb1c09" y="137.505763"/>
     <use style="fill:#ffffff;stroke:#8c564b;" x="282.588182" xlink:href="#m7579fb1c09" y="219.477548"/>
     <use style="fill:#ffffff;stroke:#8c564b;" x="308.271469" xlink:href="#m7579fb1c09" y="294.674058"/>
     <use style="fill:#ffffff;stroke:#8c564b;" x="333.954757" xlink:href="#m7579fb1c09" y="154.370002"/>
     <use style="fill:#ffffff;stroke:#8c564b;" x="359.638045" xlink:href="#m7579fb1c09" y="164.820666"/>
     <use style="fill:#ffffff;stroke:#8c564b;" x="385.321332" xlink:href="#m7579fb1c09" y="182.315825"/>
     <use style="fill:#ffffff;stroke:#8c564b;" x="411.00462" xlink:href="#m7579fb1c09" y="264.932034"/>
     <use style="fill:#ffffff;stroke:#8c564b;" x="436.687908" xlink:href="#m7579fb1c09" y="173.353883"/>
     <use style="fill:#ffffff;stroke:#8c564b;" x="462.371195" xlink:href="#m7579fb1c09" y="268.398475"/>
     <use style="fill:#ffffff;stroke:#8c564b;" x="488.054483" xlink:href="#m7579fb1c09" y="199.109946"/>
     <use style="fill:#ffffff;stroke:#8c564b;" x="513.737771" xlink:href="#m7579fb1c09" y="179.376007"/>
     <use style="fill:#ffffff;stroke:#8c564b;" x="539.421058" xlink:href="#m7579fb1c09" y="224.155194"/>
     <use style="fill:#ffffff;stroke:#8c564b;" x="565.104346" xlink:href="#m7579fb1c09" y="215.106185"/>
     <use style="fill:#ffffff;stroke:#8c564b;" x="590.787634" xlink:href="#m7579fb1c09" y="183.496296"/>
     <use style="fill:#ffffff;stroke:#8c564b;" x="616.470921" xlink:href="#m7579fb1c09" y="209.112967"/>
     <use style="fill:#ffffff;stroke:#8c564b;" x="642.154209" xlink:href="#m7579fb1c09" y="245.708331"/>
     <use style="fill:#ffffff;stroke:#8c564b;" x="667.837497" xlink:href="#m7579fb1c09" y="243.853266"/>
     <use style="fill:#ffffff;stroke:#8c564b;" x="693.520784" xlink:href="#m7579fb1c09" y="154.807025"/>
     <use style="fill:#ffffff;stroke:#8c564b;" x="719.204072" xlink:href="#m7579fb1c09" y="266.600658"/>
     <use style="fill:#ffffff;stroke:#8c564b;" x="744.88736" xlink:href="#m7579fb1c09" y="191.616823"/>
     <use style="fill:#ffffff;stroke:#8c564b;" x="770.570647" xlink:href="#m7579fb1c09" y="214.673381"/>
     <use style="fill:#ffffff;stroke:#8c564b;" x="796.253935" xlink:href="#m7579fb1c09" y="163.289957"/>
     <use style="fill:#ffffff;stroke:#8c564b;" x="821.937223" xlink:href="#m7579fb1c09" y="242.619064"/>
     <use style="fill:#ffffff;stroke:#8c564b;" x="847.62051" xlink:href="#m7579fb1c09" y="212.778579"/>
    </g>
   </g>
   <g id="line2d_37">
    <path clip-path="url(#pf6301ed59d)" d="M 92.103798 266.796313 
L 117.787086 162.221732 
L 143.470373 189.558155 
L 169.153661 210.182177 
L 194.836949 198.365796 
L 220.520236 210.090679 
L 246.203524 242.71021 
L 271.886812 208.120344 
L 297.570099 196.000002 
L 323.253387 202.610286 
L 348.936675 216.164213 
L 374.619962 168.660695 
L 400.30325 224.299439 
L 425.986538 171.016994 
L 451.669825 184.4809 
L 477.353113 273.833704 
L 503.036401 225.274901 
L 528.719688 207.352986 
L 554.402976 240.418894 
L 785.552565 214.03163 
L 811.235853 240.693177 
L 836.91914 220.10235 
L 862.602428 199.740304 
" style="fill:none;stroke:#e377c2;stroke-dasharray:5.12,1.28,0.8,1.28;stroke-dashoffset:0;stroke-width:0.8;"/>
    <defs>
     <path d="M 0 3 
C 0.795609 3 1.55874 2.683901 2.12132 2.12132 
C 2.683901 1.55874 3 0.795609 3 0 
C 3 -0.795609 2.683901 -1.55874 2.12132 -2.12132 
C 1.55874 -2.683901 0.795609 -3 0 -3 
C -0.795609 -3 -1.55874 -2.683901 -2.12132 -2.12132 
C -2.683901 -1.55874 -3 -0.795609 -3 0 
C -3 0.795609 -2.683901 1.55874 -2.12132 2.12132 
C -1.55874 2.683901 -0.795609 3 0 3 
z
" id="mf884c78762" style="stroke:#e377c2;"/>
    </defs>
    <g clip-path="url(#pf6301ed59d)">
     <use style="fill:#ffffff;stroke:#e377c2;" x="92.103798" xlink:href="#mf884c78762" y="266.796313"/>
     <use style="fill:#ffffff;stroke:#e377c2;" x="117.787086" xlink:href="#mf884c78762" y="162.221732"/>
     <use style="fill:#ffffff;stroke:#e377c2;" x="143.470373" xlink:href="#mf884c78762" y="189.558155"/>
     <use style="fill:#ffffff;stroke:#e377c2;" x="169.153661" xlink:href="#mf884c78762" y="210.182177"/>
     <use style="fill:#ffffff;stroke:#e377c2;" x="194.836949" xlink:href="#mf884c78762" y="198.365796"/>
     <use style="fill:#ffffff;stroke:#e377c2;" x="220.520236" xlink:href="#mf884c78762" y="210.090679"/>
     <use style="fill:#ffffff;stroke:#e377c2;" x="246.203524" xlink:href="#mf884c78762" y="242.71021"/>
     <use style="fill:#ffffff;stroke:#e377c2;" x="271.886812" xlink:href="#mf884c78762" y="208.120344"/>
     <use style="fill:#ffffff;stroke:#e377c2;" x="297.570099" xlink:href="#mf884c78762" y="196.000002"/>
     <use style="fill:#ffffff;stroke:#e377c2;" x="323.253387" xlink:href="#mf884c78762" y="202.610286"/>
     <use style="fill:#ffffff;stroke:#e377c2;" x="348.936675" xlink:href="#mf884c78762" y="216.164213"/>
     <use style="fill:#ffffff;stroke:#e377c2;" x="374.619962" xlink:href="#mf884c78762" y="168.660695"/>
     <use style="fill:#ffffff;stroke:#e377c2;" x="400.30325" xlink:href="#mf884c78762" y="224.299439"/>
     <use style="fill:#ffffff;stroke:#e377c2;" x="425.986538" xlink:href="#mf884c78762" y="171.016994"/>
     <use style="fill:#ffffff;stroke:#e377c2;" x="451.669825" xlink:href="#mf884c78762" y="184.4809"/>
     <use style="fill:#ffffff;stroke:#e377c2;" x="477.353113" xlink:href="#mf884c78762" y="273.833704"/>
     <use style="fill:#ffffff;stroke:#e377c2;" x="503.036401" xlink:href="#mf884c78762" y="225.274901"/>
     <use style="fill:#ffffff;stroke:#e377c2;" x="528.719688" xlink:href="#mf884c78762" y="207.352986"/>
     <use style="fill:#ffffff;stroke:#e377c2;" x="554.402976" xlink:href="#mf884c78762" y="240.418894"/>
     <use style="fill:#ffffff;stroke:#e377c2;" x="785.552565" xlink:href="#mf884c78762" y="214.03163"/>
     <use style="fill:#ffffff;stroke:#e377c2;" x="811.235853" xlink:href="#mf884c78762" y="240.693177"/>
     <use style="fill:#ffffff;stroke:#e377c2;" x="836.91914" xlink:href="#mf884c78762" y="220.10235"/>
     <use style="fill:#ffffff;stroke:#e377c2;" x="862.602428" xlink:href="#mf884c78762" y="199.740304"/>
    </g>
   </g>
   <g id="line2d_38">
    <path clip-path="url(#pf6301ed59d)" d="M 0 0 
" style="fill:none;stroke:#7f7f7f;stroke-dasharray:5.12,1.28,0.8,1.28;stroke-dashoffset:0;stroke-width:0.8;"/>
    <defs>
     <path d="M 0 3 
C 0.795609 3 1.55874 2.683901 2.12132 2.12132 
C 2.683901 1.55874 3 0.795609 3 0 
C 3 -0.795609 2.683901 -1.55874 2.12132 -2.12132 
C 1.55874 -2.683901 0.795609 -3 0 -3 
C -0.795609 -3 -1.55874 -2.683901 -2.12132 -2.12132 
C -2.683901 -1.55874 -3 -0.795609 -3 0 
C -3 0.795609 -2.683901 1.55874 -2.12132 2.12132 
C -1.55874 2.683901 -0.795609 3 0 3 
z
" id="m21e0aa2877" style="stroke:#7f7f7f;"/>
    </defs>
    <g clip-path="url(#pf6301ed59d)">
     <use style="fill:#ffffff;stroke:#7f7f7f;" x="0" xlink:href="#m21e0aa2877" y="0"/>
    </g>
   </g>
   <g id="line2d_39">
    <path clip-path="url(#pf6301ed59d)" d="M 322.18325 284.062692 
L 634.66325 284.062692 
" style="fill:none;stroke:#000000;stroke-linecap:square;stroke-width:1.5;"/>
   </g>
   <g id="line2d_40">
    <path clip-path="url(#pf6301ed59d)" d="M 322.18325 145.790438 
L 634.66325 145.790438 
" style="fill:none;stroke:#000000;stroke-linecap:square;stroke-width:1.5;"/>
   </g>
   <g id="line2d_41">
    <path clip-path="url(#pf6301ed59d)" d="M 634.66325 320.935293 
L 869.02325 320.935293 
" style="fill:none;stroke:#000000;stroke-linecap:square;stroke-width:1.5;"/>
   </g>
   <g id="line2d_42">
    <path clip-path="url(#pf6301ed59d)" d="M 634.66325 113.526912 
L 869.02325 113.526912 
" style="fill:none;stroke:#000000;stroke-linecap:square;stroke-width:1.5;"/>
   </g>
   <g id="line2d_43">
    <path clip-path="url(#pf6301ed59d)" d="M 87.82325 320.935293 
L 322.18325 320.935293 
" style="fill:none;stroke:#000000;stroke-linecap:square;stroke-width:1.5;"/>
   </g>
   <g id="line2d_44">
    <path clip-path="url(#pf6301ed59d)" d="M 87.82325 113.526912 
L 322.18325 113.526912 
" style="fill:none;stroke:#000000;stroke-linecap:square;stroke-width:1.5;"/>
   </g>
   <g id="patch_3">
    <path d="M 87.82325 333.36 
L 87.82325 7.2 
" style="fill:none;stroke:#000000;stroke-linecap:square;stroke-linejoin:miter;stroke-width:0.8;"/>
   </g>
   <g id="patch_4">
    <path d="M 869.02325 333.36 
L 869.02325 7.2 
" style="fill:none;stroke:#000000;stroke-linecap:square;stroke-linejoin:miter;stroke-width:0.8;"/>
   </g>
   <g id="patch_5">
    <path d="M 87.82325 333.36 
L 869.02325 333.36 
" style="fill:none;stroke:#000000;stroke-linecap:square;stroke-linejoin:miter;stroke-width:0.8;"/>
   </g>
   <g id="patch_6">
    <path d="M 87.82325 7.2 
L 869.02325 7.2 
" style="fill:none;stroke:#000000;stroke-linecap:square;stroke-linejoin:miter;stroke-width:0.8;"/>
   </g>
   <g id="legend_1">
    <g id="patch_7">
     <path d="M 97.62325 59.49875 
L 486.54325 59.49875 
Q 489.34325 59.49875 489.34325 56.69875 
L 489.34325 17 
Q 489.34325 14.2 486.54325 14.2 
L 97.62325 14.2 
Q 94.82325 14.2 94.82325 17 
L 94.82325 56.69875 
Q 94.82325 59.49875 97.62325 59.49875 
z
" style="fill:#ffffff;opacity:0.8;stroke:#cccccc;stroke-linejoin:miter;"/>
    </g>
    <g id="line2d_45">
     <path d="M 100.42325 25.537812 
L 128.42325 25.537812 
" style="fill:none;stroke:#1f77b4;stroke-dasharray:5.12,1.28,0.8,1.28;stroke-dashoffset:0;stroke-width:0.8;"/>
    </g>
    <g id="line2d_46">
     <g>
      <use style="fill:#ffffff;stroke:#1f77b4;" x="114.42325" xlink:href="#mf9da6747e4" y="25.537812"/>
     </g>
    </g>
    <g id="text_18">
     <!-- 2014 -->
     <g transform="translate(139.62325 30.437812)scale(0.14 -0.14)">
      <use xlink:href="#DejaVuSans-50"/>
      <use x="63.623047" xlink:href="#DejaVuSans-48"/>
      <use x="127.246094" xlink:href="#DejaVuSans-49"/>
      <use x="190.869141" xlink:href="#DejaVuSans-52"/>
     </g>
    </g>
    <g id="line2d_47">
     <path d="M 100.42325 46.087187 
L 128.42325 46.087187 
" style="fill:none;stroke:#ff7f0e;stroke-dasharray:5.12,1.28,0.8,1.28;stroke-dashoffset:0;stroke-width:0.8;"/>
    </g>
    <g id="line2d_48">
     <g>
      <use style="fill:#ffffff;stroke:#ff7f0e;" x="114.42325" xlink:href="#m9f98a2a4e0" y="46.087187"/>
     </g>
    </g>
    <g id="text_19">
     <!-- 2015 -->
     <g transform="translate(139.62325 50.987187)scale(0.14 -0.14)">
      <use xlink:href="#DejaVuSans-50"/>
      <use x="63.623047" xlink:href="#DejaVuSans-48"/>
      <use x="127.246094" xlink:href="#DejaVuSans-49"/>
      <use x="190.869141" xlink:href="#DejaVuSans-53"/>
     </g>
    </g>
    <g id="line2d_49">
     <path d="M 203.25325 25.537812 
L 231.25325 25.537812 
" style="fill:none;stroke:#2ca02c;stroke-dasharray:5.12,1.28,0.8,1.28;stroke-dashoffset:0;stroke-width:0.8;"/>
    </g>
    <g id="line2d_50">
     <g>
      <use style="fill:#ffffff;stroke:#2ca02c;" x="217.25325" xlink:href="#m7295bfb912" y="25.537812"/>
     </g>
    </g>
    <g id="text_20">
     <!-- 2016 -->
     <g transform="translate(242.45325 30.437812)scale(0.14 -0.14)">
      <defs>
       <path d="M 33.015625 40.375 
Q 26.375 40.375 22.484375 35.828125 
Q 18.609375 31.296875 18.609375 23.390625 
Q 18.609375 15.53125 22.484375 10.953125 
Q 26.375 6.390625 33.015625 6.390625 
Q 39.65625 6.390625 43.53125 10.953125 
Q 47.40625 15.53125 47.40625 23.390625 
Q 47.40625 31.296875 43.53125 35.828125 
Q 39.65625 40.375 33.015625 40.375 
z
M 52.59375 71.296875 
L 52.59375 62.3125 
Q 48.875 64.0625 45.09375 64.984375 
Q 41.3125 65.921875 37.59375 65.921875 
Q 27.828125 65.921875 22.671875 59.328125 
Q 17.53125 52.734375 16.796875 39.40625 
Q 19.671875 43.65625 24.015625 45.921875 
Q 28.375 48.1875 33.59375 48.1875 
Q 44.578125 48.1875 50.953125 41.515625 
Q 57.328125 34.859375 57.328125 23.390625 
Q 57.328125 12.15625 50.6875 5.359375 
Q 44.046875 -1.421875 33.015625 -1.421875 
Q 20.359375 -1.421875 13.671875 8.265625 
Q 6.984375 17.96875 6.984375 36.375 
Q 6.984375 53.65625 15.1875 63.9375 
Q 23.390625 74.21875 37.203125 74.21875 
Q 40.921875 74.21875 44.703125 73.484375 
Q 48.484375 72.75 52.59375 71.296875 
z
" id="DejaVuSans-54"/>
      </defs>
      <use xlink:href="#DejaVuSans-50"/>
      <use x="63.623047" xlink:href="#DejaVuSans-48"/>
      <use x="127.246094" xlink:href="#DejaVuSans-49"/>
      <use x="190.869141" xlink:href="#DejaVuSans-54"/>
     </g>
    </g>
    <g id="line2d_51">
     <path d="M 203.25325 46.087187 
L 231.25325 46.087187 
" style="fill:none;stroke:#d62728;stroke-dasharray:5.12,1.28,0.8,1.28;stroke-dashoffset:0;stroke-width:0.8;"/>
    </g>
    <g id="line2d_52">
     <g>
      <use style="fill:#ffffff;stroke:#d62728;" x="217.25325" xlink:href="#m7e833f9b14" y="46.087187"/>
     </g>
    </g>
    <g id="text_21">
     <!-- 2017 -->
     <g transform="translate(242.45325 50.987187)scale(0.14 -0.14)">
      <defs>
       <path d="M 8.203125 72.90625 
L 55.078125 72.90625 
L 55.078125 68.703125 
L 28.609375 0 
L 18.3125 0 
L 43.21875 64.59375 
L 8.203125 64.59375 
z
" id="DejaVuSans-55"/>
      </defs>
      <use xlink:href="#DejaVuSans-50"/>
      <use x="63.623047" xlink:href="#DejaVuSans-48"/>
      <use x="127.246094" xlink:href="#DejaVuSans-49"/>
      <use x="190.869141" xlink:href="#DejaVuSans-55"/>
     </g>
    </g>
    <g id="line2d_53">
     <path d="M 306.08325 25.537812 
L 334.08325 25.537812 
" style="fill:none;stroke:#9467bd;stroke-dasharray:5.12,1.28,0.8,1.28;stroke-dashoffset:0;stroke-width:0.8;"/>
    </g>
    <g id="line2d_54">
     <g>
      <use style="fill:#ffffff;stroke:#9467bd;" x="320.08325" xlink:href="#m3a7558f3b8" y="25.537812"/>
     </g>
    </g>
    <g id="text_22">
     <!-- 2018 -->
     <g transform="translate(345.28325 30.437812)scale(0.14 -0.14)">
      <defs>
       <path d="M 31.78125 34.625 
Q 24.75 34.625 20.71875 30.859375 
Q 16.703125 27.09375 16.703125 20.515625 
Q 16.703125 13.921875 20.71875 10.15625 
Q 24.75 6.390625 31.78125 6.390625 
Q 38.8125 6.390625 42.859375 10.171875 
Q 46.921875 13.96875 46.921875 20.515625 
Q 46.921875 27.09375 42.890625 30.859375 
Q 38.875 34.625 31.78125 34.625 
z
M 21.921875 38.8125 
Q 15.578125 40.375 12.03125 44.71875 
Q 8.5 49.078125 8.5 55.328125 
Q 8.5 64.0625 14.71875 69.140625 
Q 20.953125 74.21875 31.78125 74.21875 
Q 42.671875 74.21875 48.875 69.140625 
Q 55.078125 64.0625 55.078125 55.328125 
Q 55.078125 49.078125 51.53125 44.71875 
Q 48 40.375 41.703125 38.8125 
Q 48.828125 37.15625 52.796875 32.3125 
Q 56.78125 27.484375 56.78125 20.515625 
Q 56.78125 9.90625 50.3125 4.234375 
Q 43.84375 -1.421875 31.78125 -1.421875 
Q 19.734375 -1.421875 13.25 4.234375 
Q 6.78125 9.90625 6.78125 20.515625 
Q 6.78125 27.484375 10.78125 32.3125 
Q 14.796875 37.15625 21.921875 38.8125 
z
M 18.3125 54.390625 
Q 18.3125 48.734375 21.84375 45.5625 
Q 25.390625 42.390625 31.78125 42.390625 
Q 38.140625 42.390625 41.71875 45.5625 
Q 45.3125 48.734375 45.3125 54.390625 
Q 45.3125 60.0625 41.71875 63.234375 
Q 38.140625 66.40625 31.78125 66.40625 
Q 25.390625 66.40625 21.84375 63.234375 
Q 18.3125 60.0625 18.3125 54.390625 
z
" id="DejaVuSans-56"/>
      </defs>
      <use xlink:href="#DejaVuSans-50"/>
      <use x="63.623047" xlink:href="#DejaVuSans-48"/>
      <use x="127.246094" xlink:href="#DejaVuSans-49"/>
      <use x="190.869141" xlink:href="#DejaVuSans-56"/>
     </g>
    </g>
    <g id="line2d_55">
     <path d="M 306.08325 46.087187 
L 334.08325 46.087187 
" style="fill:none;stroke:#8c564b;stroke-dasharray:5.12,1.28,0.8,1.28;stroke-dashoffset:0;stroke-width:0.8;"/>
    </g>
    <g id="line2d_56">
     <g>
      <use style="fill:#ffffff;stroke:#8c564b;" x="320.08325" xlink:href="#m7579fb1c09" y="46.087187"/>
     </g>
    </g>
    <g id="text_23">
     <!-- 2019 -->
     <g transform="translate(345.28325 50.987187)scale(0.14 -0.14)">
      <defs>
       <path d="M 10.984375 1.515625 
L 10.984375 10.5 
Q 14.703125 8.734375 18.5 7.8125 
Q 22.3125 6.890625 25.984375 6.890625 
Q 35.75 6.890625 40.890625 13.453125 
Q 46.046875 20.015625 46.78125 33.40625 
Q 43.953125 29.203125 39.59375 26.953125 
Q 35.25 24.703125 29.984375 24.703125 
Q 19.046875 24.703125 12.671875 31.3125 
Q 6.296875 37.9375 6.296875 49.421875 
Q 6.296875 60.640625 12.9375 67.421875 
Q 19.578125 74.21875 30.609375 74.21875 
Q 43.265625 74.21875 49.921875 64.515625 
Q 56.59375 54.828125 56.59375 36.375 
Q 56.59375 19.140625 48.40625 8.859375 
Q 40.234375 -1.421875 26.421875 -1.421875 
Q 22.703125 -1.421875 18.890625 -0.6875 
Q 15.09375 0.046875 10.984375 1.515625 
z
M 30.609375 32.421875 
Q 37.25 32.421875 41.125 36.953125 
Q 45.015625 41.5 45.015625 49.421875 
Q 45.015625 57.28125 41.125 61.84375 
Q 37.25 66.40625 30.609375 66.40625 
Q 23.96875 66.40625 20.09375 61.84375 
Q 16.21875 57.28125 16.21875 49.421875 
Q 16.21875 41.5 20.09375 36.953125 
Q 23.96875 32.421875 30.609375 32.421875 
z
" id="DejaVuSans-57"/>
      </defs>
      <use xlink:href="#DejaVuSans-50"/>
      <use x="63.623047" xlink:href="#DejaVuSans-48"/>
      <use x="127.246094" xlink:href="#DejaVuSans-49"/>
      <use x="190.869141" xlink:href="#DejaVuSans-57"/>
     </g>
    </g>
    <g id="line2d_57">
     <path d="M 408.91325 25.537812 
L 436.91325 25.537812 
" style="fill:none;stroke:#e377c2;stroke-dasharray:5.12,1.28,0.8,1.28;stroke-dashoffset:0;stroke-width:0.8;"/>
    </g>
    <g id="line2d_58">
     <g>
      <use style="fill:#ffffff;stroke:#e377c2;" x="422.91325" xlink:href="#mf884c78762" y="25.537812"/>
     </g>
    </g>
    <g id="text_24">
     <!-- 2020 -->
     <g transform="translate(448.11325 30.437812)scale(0.14 -0.14)">
      <use xlink:href="#DejaVuSans-50"/>
      <use x="63.623047" xlink:href="#DejaVuSans-48"/>
      <use x="127.246094" xlink:href="#DejaVuSans-50"/>
      <use x="190.869141" xlink:href="#DejaVuSans-48"/>
     </g>
    </g>
    <g id="line2d_59">
     <path d="M 408.91325 46.087187 
L 436.91325 46.087187 
" style="fill:none;stroke:#7f7f7f;stroke-dasharray:5.12,1.28,0.8,1.28;stroke-dashoffset:0;stroke-width:0.8;"/>
    </g>
    <g id="line2d_60">
     <g>
      <use style="fill:#ffffff;stroke:#7f7f7f;" x="422.91325" xlink:href="#m21e0aa2877" y="46.087187"/>
     </g>
    </g>
    <g id="text_25">
     <!-- 2021 -->
     <g transform="translate(448.11325 50.987187)scale(0.14 -0.14)">
      <use xlink:href="#DejaVuSans-50"/>
      <use x="63.623047" xlink:href="#DejaVuSans-48"/>
      <use x="127.246094" xlink:href="#DejaVuSans-50"/>
      <use x="190.869141" xlink:href="#DejaVuSans-49"/>
     </g>
    </g>
   </g>
  </g>
 </g>
 <defs>
  <clipPath id="pf6301ed59d">
   <rect height="326.16" width="781.2" x="87.82325" y="7.2"/>
  </clipPath>
 </defs>
</svg>
